<svg width="507" height="73" viewBox="0 0 507 73" fill="none" xmlns="http://www.w3.org/2000/svg">
<path d="M1.6101 5.36923C1.6101 5.36923 30.6903 4.45294 39.996 5.36923C39.5436 12.2816 38.6228 25.0775 39.996 27.4245C38.2189 27.4245 22.9194 28.0996 22.9194 28.0996C22.9194 28.0996 23.1457 58.9963 24.8258 64.8317H0.866953C-0.499005 45.0234 -0.250486 25.1376 1.6101 5.36923Z" fill="#95C11F"/>
<path d="M77.881 3.02209C60.2067 3.02209 45.8766 17.7149 45.8766 35.8317C45.8766 53.9486 60.2067 68.6253 77.881 68.6253C95.5553 68.6253 109.902 53.9486 109.902 35.8317C109.902 17.7149 95.5714 3.02209 77.881 3.02209ZM86.7181 54.6398C85.3825 54.6398 84.0768 54.2457 82.9663 53.5074C81.8558 52.769 80.9902 51.7196 80.4791 50.4918C79.968 49.264 79.8342 47.9129 80.0948 46.6094C80.3554 45.306 80.9985 44.1087 81.943 43.169C82.8874 42.2292 84.0907 41.5893 85.4006 41.33C86.7106 41.0707 88.0684 41.2038 89.3024 41.7124C90.5364 42.221 91.591 43.0822 92.3331 44.1872C93.0751 45.2922 93.4712 46.5914 93.4712 47.9204C93.4712 49.7025 92.7597 51.4116 91.4932 52.6717C90.2268 53.9319 88.5092 54.6398 86.7181 54.6398Z" fill="#95C11F"/>
<path d="M204.121 3.02209C186.447 3.02209 172.117 17.7149 172.117 35.8317C172.117 53.9486 186.447 68.6253 204.121 68.6253C221.796 68.6253 236.142 53.9486 236.142 35.8317C236.142 17.7149 221.796 3.02209 204.121 3.02209ZM212.958 54.6398C211.623 54.6398 210.317 54.2457 209.207 53.5074C208.096 52.769 207.231 51.7196 206.719 50.4918C206.208 49.264 206.075 47.9129 206.335 46.6094C206.596 45.306 207.239 44.1087 208.183 43.169C209.128 42.2292 210.331 41.5893 211.641 41.33C212.951 41.0707 214.309 41.2038 215.543 41.7124C216.777 42.221 217.831 43.0822 218.573 44.1872C219.316 45.2922 219.712 46.5914 219.712 47.9204C219.712 49.7025 219 51.4116 217.734 52.6717C216.467 53.9319 214.75 54.6398 212.958 54.6398Z" fill="#95C11F"/>
<path d="M293.058 32.1346C293.058 0.562737 246.207 5.04773 246.207 5.04773C238.339 13.0854 243.396 65.9409 243.396 65.9409H267.629C267.192 63.545 267.045 61.1055 267.193 58.6749C268.421 58.1122 293.058 58.4498 293.058 32.1346ZM265.384 50.38V41.4261C265.384 41.4261 270.343 41.4261 270.23 45.2359C270.21 46.5396 269.703 47.7891 268.807 48.7403C267.91 49.6915 266.69 50.2762 265.384 50.38Z" fill="#95C11F"/>
<path d="M340.088 1.01275L359.555 12.8763C359.555 12.8763 335.031 58.7069 320.975 72.5477C306.565 63.5938 301.169 59.6875 301.169 59.6875L315.224 42.1172C315.224 42.1172 298.018 21.0586 295.466 10.4811C301.33 7.45896 314.723 1.07707 314.723 1.07707L327.486 22.3447L340.088 1.01275Z" fill="#95C11F"/>
<path d="M366.648 8.72894C366.648 8.72894 359.749 28.6783 365.339 63.5295C379.023 63.5295 433.338 67.6609 434.808 67.6609C436.279 67.6609 436.262 12.169 435.632 7.00887C434.388 6.81597 420.091 2.82932 410.963 4.82266C410.963 11.5582 408.475 27.4406 411.173 42.905C404.323 42.905 380.897 44.1428 380.897 44.1428C380.897 44.1428 379.281 19.5958 384.839 8.05375C381.301 8.05375 366.648 8.72894 366.648 8.72894Z" fill="#95C11F"/>
<path d="M392.707 0C392.707 0 384.823 13.5353 387.731 36.7802C392.97 38.5943 398.297 40.1448 403.693 41.426L408.248 7.66789L392.707 0Z" fill="#95C11F"/>
<path d="M480.803 0C480.803 0 507.557 40.0274 506.927 47.6471C504.649 50.7496 485.569 67.6608 485.569 67.6608C485.569 67.6608 477.282 43.0335 474.584 41.426C466.926 50.3317 459.252 61.4718 457.184 69.3166C450.722 63.1276 438.928 49.3028 438.928 49.3028C438.928 49.3028 474.794 2.44344 480.803 0Z" fill="#95C11F"/>
<path d="M467.346 55.9098L477.702 53.0162L479.576 63.7545L468.994 66.423L467.346 55.9098Z" fill="#95C11F"/>
<path d="M167.836 25.415C167.27 17.1362 156.931 4.51711 141.405 4.03485C132.09 3.76068 123.039 7.13781 116.202 13.4389V60.7966C125.54 72.2101 148.255 72.7727 154.782 65.9407C162.553 58.7712 157.173 50.7496 156.139 49.3832C167.949 42.3262 168.401 33.7098 167.836 25.415ZM139.773 58.2085V53.0002C140.532 53.0657 141.235 53.4198 141.738 53.9888C142.241 54.5577 142.503 55.2976 142.471 56.0545C142.496 56.3922 142.438 56.7309 142.302 57.0414C142.166 57.3519 141.956 57.6248 141.691 57.8368C141.426 58.0487 141.112 58.1933 140.778 58.258C140.444 58.3228 140.099 58.3058 139.773 58.2085ZM139.773 44.7857L139.935 37.1981C139.935 37.1981 145.67 37.5036 145.67 41.651C145.67 45.7985 139.773 44.7857 139.773 44.7857Z" fill="#95C11F"/>
</svg>
