<svg width="46" height="45" viewBox="0 0 46 45" fill="none" xmlns="http://www.w3.org/2000/svg">
<path d="M18.7985 31.0681C18.7985 31.0681 21.1772 31.3738 21.1714 31.8687C21.1655 32.3636 19.6792 32.3811 18.5849 32.3578C17.4906 32.3345 14.0235 33.2079 13.611 33.3156C13.1984 33.4234 12.4406 33.4932 12.663 32.9022C12.9702 32.4888 14.0206 31.9677 14.8954 31.9008C15.7702 31.8338 15.9019 31.8367 15.9019 31.8367C15.9019 31.8367 14.515 31.8571 13.9211 32.1278C13.3271 32.3986 12.5869 32.5704 12.5781 31.991C12.5781 31.3039 14.1464 31.0972 14.8691 30.9866C16.1767 30.84 17.4982 30.8674 18.7985 31.0681Z" fill="#DC5113"/>
<path d="M12.616 33.2923C12.578 33.2296 12.5562 33.1584 12.5527 33.0853C12.5491 33.0121 12.5638 32.9392 12.5956 32.8731V32.8498C12.7225 32.6954 12.8749 32.5635 13.0461 32.4597H13.0169C12.6833 32.4597 12.4961 32.2937 12.4932 31.991C12.4785 31.2602 13.8976 31.0419 14.7461 30.9138L14.8748 30.908C15.4223 30.8416 15.9735 30.8114 16.525 30.8177C17.2913 30.8093 18.0569 30.8678 18.813 30.9924C19.3982 31.0681 21.2678 31.3505 21.262 31.8803C21.262 32.2821 20.5919 32.4626 19.1056 32.4626H18.5877H18.5468C17.432 32.4626 14.0877 33.2981 13.6518 33.4175C13.4784 33.4657 13.2993 33.4911 13.1193 33.4932C13.0253 33.5026 12.9305 33.4892 12.8429 33.4543C12.7552 33.4193 12.6774 33.3637 12.616 33.2923ZM18.5877 32.2704H19.1027C20.8231 32.2704 21.0835 32.0143 21.0835 31.8629C21.0835 31.6038 19.8956 31.2806 18.7838 31.1496C18.0365 31.0251 17.2797 30.9667 16.5221 30.9749C15.9794 30.9678 15.4369 30.9969 14.8982 31.0623L14.7841 31.0797C14.0965 31.1845 12.6687 31.4029 12.6804 31.9822C12.6804 32.1191 12.7243 32.2734 13.0286 32.2734C13.229 32.2644 13.4266 32.2231 13.6138 32.1511C13.7132 32.1074 13.8127 32.0667 13.9063 32.0317C14.0411 31.9744 14.1813 31.9305 14.3247 31.9007C14.5166 31.8511 14.7124 31.818 14.9099 31.8017H15.0065C15.4483 31.7552 15.8374 31.7435 15.9106 31.7435V31.9182C15.8696 31.9182 15.6853 31.9182 15.0182 31.9735C14.7991 31.9963 14.5813 32.0303 14.3657 32.0754C14.234 32.1103 14.1024 32.1511 13.9736 32.1977C13.8449 32.2442 13.7718 32.285 13.6811 32.317C13.3305 32.4571 13.0149 32.6717 12.7565 32.9459C12.7369 32.9842 12.7268 33.0266 12.7268 33.0696C12.7268 33.1126 12.7369 33.155 12.7565 33.1933C12.8062 33.2661 12.932 33.304 13.1134 33.304C13.2777 33.3024 13.4411 33.2789 13.5991 33.2341C14.038 33.1147 17.4027 32.2734 18.5409 32.2734L18.5877 32.2704Z" fill="#3C3C3B"/>
<path d="M27.9711 30.9254C27.9711 30.9254 25.5982 31.2719 25.6129 31.7668C25.6275 32.2617 27.1138 32.253 28.2081 32.2122C29.3024 32.1715 32.7841 32.9837 33.1821 33.0856C33.58 33.1875 34.3524 33.2428 34.1213 32.6577C33.8053 32.2472 32.749 31.7435 31.8713 31.694C30.9935 31.6445 30.8648 31.6445 30.8648 31.6445C30.8648 31.6445 32.2516 31.6445 32.8485 31.9007C33.4454 32.1569 34.1915 32.3199 34.1915 31.7406C34.1915 31.0535 32.6086 30.8672 31.883 30.7741C30.578 30.6534 29.2627 30.7043 27.9711 30.9254Z" fill="#DC5113"/>
<path d="M33.1615 33.17C32.7255 33.0594 29.2876 32.2588 28.2109 32.2966C27.8949 32.2966 27.6258 32.3141 27.4063 32.3141C26.116 32.3141 25.5367 32.1452 25.525 31.7668C25.5104 31.2369 27.3829 30.9225 27.9535 30.8381C28.8136 30.6837 29.6864 30.6106 30.5604 30.6197C31.0071 30.6137 31.4537 30.6361 31.8975 30.6867L32.0087 30.7012C32.8601 30.8148 34.285 31.0069 34.2821 31.7377C34.2821 32.0463 34.0919 32.218 33.7496 32.218C33.9219 32.3191 34.0753 32.4492 34.2031 32.6023V32.6227C34.2377 32.6877 34.2558 32.7602 34.2558 32.8338C34.2558 32.9073 34.2377 32.9798 34.2031 33.0448C34.1375 33.116 34.0557 33.1703 33.9645 33.2033C33.8733 33.2362 33.7755 33.2468 33.6794 33.2341C33.5047 33.2341 33.3308 33.2125 33.1615 33.17ZM33.1176 32.0957C33.021 32.0637 32.9186 32.023 32.825 31.9822C32.6946 31.9362 32.5618 31.8973 32.4271 31.8658C32.2107 31.8225 31.9918 31.7924 31.7717 31.7755C31.1017 31.7377 30.9173 31.7318 30.8705 31.7318V31.5572C30.9437 31.5572 31.3357 31.5572 31.7717 31.6008H31.8741C32.0712 31.614 32.2669 31.6432 32.4593 31.6882C32.6033 31.7157 32.7443 31.7566 32.8806 31.8104C32.9801 31.8454 33.0825 31.8861 33.1732 31.924C33.3609 31.9931 33.5584 32.0324 33.7584 32.0404C34.0744 32.0404 34.1153 31.8774 34.1153 31.7347C34.1153 31.1525 32.6846 30.9632 31.9941 30.8614L31.8829 30.8468C31.4467 30.7988 31.008 30.7774 30.5692 30.7828C29.7059 30.7701 28.8435 30.8423 27.9944 30.9982C26.8884 31.1612 25.7035 31.4931 25.7093 31.7493C25.7093 31.892 25.9405 32.1278 27.4151 32.1278C27.6462 32.1278 27.9008 32.1278 28.2139 32.1103C29.3081 32.0725 32.7723 32.876 33.2141 32.9837C33.3651 33.0231 33.5204 33.0436 33.6764 33.0448C33.7443 33.0542 33.8134 33.0489 33.8791 33.0293C33.9447 33.0097 34.0053 32.9763 34.0568 32.9313C34.0755 32.8922 34.0852 32.8494 34.0852 32.8061C34.0852 32.7628 34.0755 32.72 34.0568 32.6809C33.79 32.4206 33.4695 32.2209 33.1176 32.0957Z" fill="#3C3C3B"/>
<path d="M28.0413 27.7055L29.0068 28.8439C29.0068 28.8439 28.448 28.8206 28.524 28.9603C28.6001 29.1 29.3433 30.282 29.0068 30.9313C28.8869 31.0615 28.734 31.1573 28.5642 31.2085C28.3943 31.2598 28.2137 31.2645 28.0413 31.2224C27.6902 31.1088 27.4327 30.5994 27.3069 30.4363C27.1811 30.2733 26.3004 29.5222 26.0897 29.4756" fill="#498632"/>
<path d="M28.2577 31.3563C28.4135 31.3562 28.5674 31.3235 28.7096 31.2603C28.8517 31.1971 28.9789 31.1048 29.0828 30.9895C29.3052 30.5615 29.1501 29.8861 28.6235 28.9778C28.7486 28.9526 28.8766 28.9448 29.0038 28.9545H29.2028L28.1085 27.6677L27.9739 27.7783L28.8166 28.7711C28.6527 28.7711 28.4977 28.806 28.4479 28.8846C28.4358 28.9049 28.4294 28.928 28.4294 28.9516C28.4294 28.9751 28.4358 28.9983 28.4479 29.0185L28.4743 29.0651C29.0858 30.119 29.0594 30.646 28.9336 30.9022C28.8236 31.0192 28.6846 31.1053 28.5305 31.1518C28.3764 31.1984 28.2127 31.2036 28.0559 31.1671C27.813 31.0856 27.6053 30.7711 27.4707 30.5644C27.4297 30.5004 27.3946 30.448 27.3624 30.4072C27.2483 30.2617 26.3442 29.4727 26.0985 29.4174L26.0604 29.5862C26.4884 29.8454 26.8817 30.1574 27.2308 30.5149C27.2571 30.547 27.2893 30.5994 27.3303 30.6576C27.4789 30.9476 27.7153 31.1838 28.0061 31.333C28.0883 31.3536 28.1732 31.3615 28.2577 31.3563Z" fill="#3C3C3B"/>
<path d="M17.9207 25.9035C17.9207 25.9035 17.8066 25.7317 18.0816 25.4289C18.3566 25.1262 18.2484 25.1145 19.9512 24.0461C21.6541 22.9776 23.3101 22.3721 24.2405 21.3997C25.171 20.4273 25.5952 20.1216 25.6654 19.3094C25.7357 18.4971 25.803 17.7664 25.8059 17.5626C25.8088 17.3588 25.5133 17.0065 25.4548 17.0298C25.3963 17.0531 24.577 17.6325 23.869 17.5626C23.1609 17.4927 22.6781 16.8668 22.6986 15.9381C23.1433 16.334 23.3745 16.4272 23.9597 16.2875C24.1169 16.2603 24.2651 16.1951 24.3911 16.0977C24.5171 16.0002 24.6171 15.8734 24.6823 15.7285C24.6823 15.7285 23.7256 15.7285 23.4915 15.3471C23.3394 15.0432 23.2527 14.711 23.237 14.3718C23.237 14.3718 23.7724 15.2452 24.3078 15.0793C24.8433 14.9133 24.7526 14.6164 24.5653 14.5698C24.3781 14.5232 23.5852 14.1971 23.7724 13.478C24.065 13.8041 24.5682 14.1942 25.01 14.1273C25.3026 14.0836 25.367 13.9322 25.4723 13.3354C25.6888 12.133 26.2916 11.5886 26.8504 11.3441C27.2104 11.1897 27.6053 11.1334 27.9944 11.181C27.9944 11.181 29.4076 11.3965 29.9489 11.8303C29.7212 12.5577 29.5394 13.2986 29.4047 14.0487C29.2613 15.0065 28.7756 16.9076 29.2028 18.6805C29.63 20.4535 22.9912 29.1234 17.9207 25.9035Z" fill="url(#paint0_radial_105_442)"/>
<path d="M17.8738 25.9791H17.8563C17.8563 25.9558 17.7129 25.7404 18.0259 25.3969L18.1167 25.2921C18.3127 25.0621 18.4092 24.934 19.9131 23.9994C20.5422 23.6035 21.1537 23.2774 21.7447 22.963C22.7454 22.4303 23.6056 21.9703 24.1878 21.3647L24.5652 20.9746C25.2265 20.2992 25.5279 19.9906 25.5864 19.3297C25.5864 19.1376 25.6186 18.9513 25.6332 18.7737C25.6829 18.2205 25.7239 17.7431 25.7268 17.5946C25.6875 17.4262 25.599 17.2732 25.4723 17.155L25.4196 17.187C24.9977 17.4724 24.5089 17.6449 24.0006 17.6878H23.8689C23.0877 17.6121 22.5991 16.9395 22.6225 15.9759V15.7867L22.7629 15.9119C23.0965 16.203 23.2779 16.2991 23.5353 16.2991C23.6736 16.2946 23.811 16.275 23.945 16.2408C24.1884 16.1917 24.4039 16.0523 24.5477 15.8507C24.2551 15.8333 23.6231 15.7576 23.4242 15.4286C23.2612 15.1134 23.1693 14.7667 23.155 14.4125L23.1404 14.0807L23.3159 14.3718C23.4329 14.5639 23.8192 15.0589 24.1937 15.0589C24.2312 15.0581 24.2684 15.0532 24.3048 15.0443C24.5565 14.9657 24.6472 14.8609 24.6442 14.791C24.6423 14.7696 24.6337 14.7493 24.6195 14.7331C24.6053 14.7169 24.5863 14.7056 24.5652 14.7008C24.2504 14.6142 23.9766 14.4192 23.7928 14.1505C23.7348 14.0544 23.6972 13.9474 23.6826 13.8362C23.668 13.725 23.6767 13.612 23.708 13.5042L23.7489 13.3412L23.8601 13.4693C24.1217 13.8071 24.5043 14.0314 24.9281 14.0952H25.0158C25.2499 14.0603 25.3084 13.9642 25.4079 13.3732C25.5893 12.3572 26.0691 11.6672 26.8357 11.3178C27.2102 11.1562 27.6213 11.0969 28.0265 11.1461C28.088 11.1461 29.4719 11.3731 30.022 11.8128L30.0688 11.8506L30.0512 11.9088C29.8268 12.6318 29.647 13.3678 29.5129 14.1127C29.4895 14.2699 29.4573 14.4417 29.4222 14.6425C29.2349 15.679 28.954 17.2423 29.3081 18.7184C29.4631 19.3588 28.7756 20.7912 27.5964 22.2789C25.8819 24.442 23.0818 26.7535 20.3637 26.7535C19.4753 26.7443 18.6093 26.475 17.8738 25.9791ZM27.9827 11.2742C27.6116 11.2276 27.2347 11.2809 26.8913 11.4285C26.1803 11.7516 25.721 12.4008 25.56 13.3587C25.4547 13.9409 25.3845 14.1651 25.0246 14.232H24.9105C24.4954 14.1858 24.112 13.9888 23.8338 13.6789C23.8311 13.8005 23.8625 13.9205 23.9245 14.0253C24.0852 14.2528 24.3197 14.4183 24.5887 14.4941C24.6474 14.5069 24.7002 14.5387 24.7388 14.5845C24.7775 14.6303 24.7998 14.6876 24.8022 14.7473C24.8022 14.8318 24.7642 15.0385 24.337 15.1724C24.2847 15.1873 24.2306 15.1951 24.1761 15.1957C24.0137 15.1719 23.8579 15.1155 23.718 15.0299C23.5782 14.9443 23.4573 14.8313 23.3627 14.6979C23.3964 14.9119 23.4667 15.1187 23.5705 15.3092C23.7402 15.6004 24.4482 15.6498 24.6852 15.6528H24.8052L24.7671 15.7663C24.6979 15.9254 24.59 16.0648 24.4531 16.172C24.3162 16.2793 24.1546 16.3509 23.983 16.3806C23.8359 16.4196 23.6846 16.4411 23.5324 16.4446C23.2561 16.4376 22.9923 16.3286 22.7922 16.1389C22.8331 16.9046 23.2457 17.4257 23.8777 17.484C23.9156 17.4869 23.9538 17.4869 23.9918 17.484C24.4677 17.4396 24.9246 17.2764 25.3201 17.0094C25.354 16.987 25.3892 16.9666 25.4255 16.9483H25.4606C25.5213 16.9555 25.5768 16.9857 25.6156 17.0327C25.7633 17.1769 25.8598 17.3649 25.8907 17.5684C25.8907 17.7256 25.8526 18.1827 25.8 18.7649C25.7853 18.9396 25.7678 19.1259 25.7531 19.3181C25.6888 20.043 25.3523 20.3865 24.6823 21.0649L24.3048 21.4521C23.7197 22.078 22.8419 22.5438 21.8179 23.0853C21.2327 23.3968 20.6212 23.7229 19.9951 24.113C18.5321 25.0359 18.418 25.164 18.2395 25.3707L18.143 25.4813C17.9616 25.6793 17.9762 25.8015 17.9879 25.8394C18.6871 26.2836 19.4991 26.5199 20.3286 26.5206C22.9853 26.5206 25.7356 24.244 27.4238 22.1129C28.5532 20.6864 29.2437 19.2831 29.1033 18.7009C28.7375 17.1928 29.0243 15.6091 29.2144 14.561C29.2495 14.3601 29.2817 14.1884 29.3051 14.0341C29.4349 13.2999 29.6108 12.5745 29.8318 11.8622C29.3022 11.4779 27.9973 11.2742 27.9827 11.2742Z" fill="#3C3C3B"/>
<path d="M30.2356 19.2628C31.2596 19.583 32.6377 18.9163 32.6611 16.1302C31.4732 16.2234 30.376 17.1987 30.2356 16.7125C30.0951 16.2263 29.1852 15.5479 29.1852 15.5479C29.043 16.0572 28.9886 16.5868 29.0243 17.1142C29.0945 17.9177 29.5041 19.0328 30.2356 19.2628Z" fill="url(#paint1_linear_105_442)"/>
<path d="M30.2092 19.3472C29.4456 19.1085 29.0155 18.0226 28.9365 17.1113C28.8986 16.573 28.955 16.0322 29.1033 15.513L29.1384 15.3937L29.2408 15.4694C29.2788 15.4985 30.1741 16.1768 30.3204 16.6863C30.335 16.7329 30.3555 16.7591 30.4257 16.7591C30.6609 16.7154 30.8879 16.6359 31.0987 16.5232C31.5865 16.2766 32.1128 16.1142 32.6553 16.0429H32.7518V16.136C32.7313 18.5641 31.6868 19.4287 30.7037 19.4287C30.5358 19.4255 30.3692 19.3981 30.2092 19.3472ZM31.1689 16.6834C30.9377 16.8093 30.6862 16.894 30.4257 16.9337C30.3638 16.9383 30.3022 16.921 30.2519 16.8847C30.2016 16.8485 30.1657 16.7958 30.1507 16.7358C30.0483 16.3748 29.4748 15.8799 29.2378 15.6877C29.1217 16.1479 29.0793 16.6234 29.112 17.0968C29.1706 17.81 29.5304 18.9513 30.2619 19.1813C30.408 19.2252 30.5598 19.2478 30.7125 19.2482C31.5902 19.2482 32.5265 18.4534 32.5733 16.2263C32.0851 16.3088 31.6118 16.4628 31.1689 16.6834Z" fill="#3C3C3B"/>
<path d="M29.7031 20.8844C29.7031 20.8844 30.7038 20.6515 30.8998 21.4288C31.0616 22.0142 31.0222 22.6367 30.7879 23.1974C30.5536 23.758 30.1378 24.2247 29.6066 24.5235" fill="url(#paint2_linear_105_442)"/>
<path d="M29.6505 24.5963C31.4265 23.5744 31.0725 21.7607 30.9847 21.4084C30.8121 20.7272 30.0601 20.7126 29.6856 20.7999L29.7237 20.9688C29.7617 20.9688 30.6424 20.765 30.815 21.4521C30.969 22.0189 30.9296 22.6205 30.703 23.1627C30.4763 23.7048 30.0753 24.1568 29.5627 24.4478L29.6505 24.5963Z" fill="#3C3C3B"/>
<path d="M34.5747 17.5684C34.5747 17.5684 35.233 15.775 34.9551 14.4533C34.6771 13.1316 33.7847 11.2363 32.3364 11.1868C30.7974 11.1315 29.3257 11.7429 29.1648 13.2247C29.1013 13.9512 29.1013 14.6817 29.1648 15.4082C29.2087 15.6993 29.4427 16.9162 30.1186 17.1724C30.7945 17.4286 32.3832 16.3602 32.8952 16.2991C33.4073 16.2379 34.4343 17.0123 34.5747 17.5684Z" fill="url(#paint3_radial_105_442)"/>
<path d="M34.4781 17.5917C34.3494 17.0822 33.3692 16.3165 32.8952 16.3777C32.6049 16.4612 32.3243 16.5754 32.0584 16.7183C31.4733 16.9919 30.8296 17.3005 30.3526 17.3005C30.2591 17.3021 30.166 17.2873 30.0776 17.2569C29.3988 17.0007 29.1443 15.8915 29.0653 15.4257C29.0005 14.6915 29.0005 13.9531 29.0653 13.2189C29.2379 11.6526 30.7652 11.0966 32.1374 11.0966H32.3276C33.9134 11.1519 34.7707 13.2189 35.0282 14.43C35.3208 15.7634 34.6712 17.5218 34.6449 17.5975L34.5483 17.8624L34.4781 17.5917ZM29.2379 13.2247C29.1745 13.9444 29.1745 14.6682 29.2379 15.3878C29.2964 15.7284 29.5305 16.8435 30.1391 17.0851C30.208 17.1075 30.2802 17.1183 30.3526 17.1171C30.7886 17.1171 31.4528 16.8056 31.9853 16.5523C32.2624 16.3991 32.5571 16.2798 32.863 16.1972C33.3487 16.1302 34.2323 16.7561 34.5454 17.3122C34.7063 16.7969 35.0633 15.4781 34.838 14.462C34.6098 13.379 33.7847 11.3178 32.3042 11.2596H32.1374C30.853 11.2712 29.4105 11.7865 29.2496 13.2335L29.2379 13.2247Z" fill="#3C3C3B"/>
<path d="M15.4015 23.0475C13.1632 21.883 9.02315 20.1915 8.77738 20.864C8.53161 21.5365 11.0186 22.9339 11.8232 23.2687L18.0933 26.1538L19.0384 25.557L17.8417 24.343L15.4015 23.0475Z" fill="url(#paint4_linear_105_442)"/>
<path d="M11.7881 23.3386C11.0771 23.0475 8.39702 21.5918 8.69545 20.8232C8.74812 20.6835 8.90612 20.6136 9.16359 20.6136C10.2988 20.6136 13.5524 21.9674 15.4425 22.9427L17.8885 24.2498L19.1817 25.5599L18.0933 26.2499L11.7881 23.3386ZM17.8007 24.4129L15.3664 23.1115C13.4822 22.142 10.2783 20.7999 9.16944 20.7999C8.99682 20.7999 8.87686 20.832 8.87686 20.896C8.6662 21.4462 10.884 22.7738 11.8759 23.1901L18.108 26.0548L18.9243 25.5424L17.8007 24.4129Z" fill="#3C3C3B"/>
<path d="M19.8167 27.1844C19.8108 27.2842 19.7792 27.3809 19.7249 27.465C19.6706 27.5491 19.5954 27.6179 19.5066 27.6648C19.214 27.8045 18.2485 28.8962 18.2251 29.0127C18.2017 29.1292 18.8102 29.0564 18.9009 29.0127C18.9916 28.969 17.8974 30.6576 17.9208 31.1467C17.9676 31.2631 18.2134 31.496 18.6903 31.1467C19.1672 30.7973 20.8613 29.8017 21.5371 29.6386C22.1945 29.8363 22.878 29.9345 23.5648 29.9298C24.4659 29.9836 25.3663 29.8123 26.1839 29.4314C27.0016 29.0506 27.7105 28.4723 28.2461 27.7492C29.7851 25.6822 30.0017 24.145 30.0017 22.6399C30.0017 21.2949 30.0309 21.1697 29.7588 20.2089C29.4867 19.2482 29.0069 18.4389 29.0156 17.0211" fill="url(#paint5_radial_105_442)"/>
<path d="M18.2367 31.4175C18.4229 31.4071 18.6006 31.3365 18.7428 31.2166C19.1934 30.8789 20.8524 29.9036 21.5341 29.7289C22.1928 29.9253 22.8771 30.0234 23.5647 30.02C25.5923 30.0637 27.1957 29.3213 28.325 27.8045C29.9547 25.6181 30.0806 23.9936 30.0806 22.6428C30.0806 22.5089 30.0806 22.3866 30.0806 22.2731C30.1311 21.569 30.0477 20.8618 29.8348 20.1886C29.7587 19.9236 29.668 19.6675 29.5802 19.42C29.2657 18.6596 29.1008 17.8462 29.0945 17.024H28.919C28.9251 17.8659 29.0929 18.699 29.4135 19.4782C29.5071 19.7344 29.5919 19.979 29.6651 20.2352C29.8746 20.8931 29.956 21.5848 29.905 22.2731V22.6428C29.905 23.9645 29.7704 25.5541 28.1729 27.6997C27.0786 29.1554 25.525 29.8919 23.5559 29.8483C22.876 29.8507 22.1996 29.7526 21.5487 29.5571H21.5253H21.5049C20.8056 29.7231 19.1027 30.7217 18.6258 31.0797C18.5621 31.1398 18.4857 31.1849 18.4021 31.2116C18.3185 31.2383 18.23 31.246 18.143 31.234C18.1128 31.2274 18.0842 31.2146 18.0591 31.1966C18.0339 31.1786 18.0127 31.1557 17.9967 31.1292C17.9967 30.809 18.4941 29.9298 18.7633 29.4552C19.0325 28.9807 19.012 29.0127 18.9564 28.9545L18.9125 28.9079L18.8482 28.937C18.6772 28.9802 18.5005 28.9969 18.3244 28.9865C18.4854 28.7507 19.2871 27.8599 19.5328 27.7463C19.637 27.6941 19.7252 27.6149 19.788 27.517C19.8508 27.4192 19.886 27.3063 19.8898 27.1903H19.7172C19.7134 27.2738 19.6876 27.3549 19.6424 27.4254C19.5972 27.4959 19.5342 27.5533 19.4597 27.592C18.9394 27.9847 18.4885 28.4609 18.1255 29.0011C18.1213 29.0229 18.1235 29.0455 18.1318 29.0661C18.1401 29.0867 18.1541 29.1046 18.1723 29.1175C18.3554 29.1789 18.5523 29.187 18.7399 29.1408C18.7019 29.2078 18.6551 29.2893 18.6112 29.3737C18.2016 30.0957 17.8066 30.8294 17.8212 31.1554V31.17V31.1846C17.8468 31.2385 17.8838 31.2862 17.9298 31.3244C17.9758 31.3626 18.0296 31.3904 18.0874 31.4058C18.1365 31.416 18.1866 31.4199 18.2367 31.4175Z" fill="#3C3C3B"/>
<path d="M27.4561 12.0224C27.5591 11.7182 27.7167 11.4351 27.9213 11.1868C27.9734 11.1132 28.0476 11.0578 28.1332 11.0285C28.2188 10.9992 28.3116 10.9976 28.3982 11.0238C28.9365 11.2334 29.0536 11.8361 29.1472 12.1388" fill="#498632"/>
<path d="M29.0565 12.165L29.2233 12.1126C29.2233 12.0806 29.2028 12.0456 29.194 12.0078C29.1004 11.6846 28.9453 11.1344 28.4245 10.9423C28.3203 10.9044 28.2064 10.9018 28.1006 10.935C27.9948 10.9682 27.9029 11.0352 27.8393 11.1257C27.6268 11.3855 27.4632 11.6813 27.3566 11.9991L27.5233 12.0573C27.6211 11.7653 27.7708 11.4932 27.9651 11.2538C28.167 11.0412 28.3045 11.0937 28.3514 11.1111C28.7902 11.2829 28.9365 11.7516 29.0126 12.0631C29.036 12.0951 29.0448 12.1301 29.0565 12.165Z" fill="#3C3C3B"/>
<path d="M29.0185 22.9164C29.235 22.9164 29.4106 22.6894 29.5217 22.4332C29.5421 22.5261 29.585 22.6126 29.6467 22.6851C29.7085 22.7577 29.7871 22.8141 29.8758 22.8495L29.9226 22.6835C29.7441 22.6341 29.6124 22.2876 29.6534 21.9703L29.4808 21.947C29.431 22.308 29.2175 22.736 29.0126 22.7447C28.9925 22.7446 28.9727 22.7401 28.9545 22.7316C28.9363 22.723 28.9202 22.7106 28.9073 22.6952C28.7434 22.4095 28.6845 22.0761 28.7405 21.7519L28.565 21.7316C28.5094 22.0605 28.3543 22.4565 28.0998 22.4972C28.0883 22.4965 28.0771 22.4932 28.0669 22.4877C28.0568 22.4821 28.0481 22.4745 28.0413 22.4652C27.8769 22.2482 27.7757 21.9903 27.7487 21.7199L27.576 21.7432C27.576 21.8131 27.6814 22.4244 27.9242 22.6166C27.9519 22.6376 27.9835 22.6528 28.0172 22.6613C28.0508 22.6698 28.0859 22.6714 28.1203 22.6661C28.2213 22.6417 28.3149 22.5935 28.3933 22.5256C28.4717 22.4577 28.5326 22.3721 28.5708 22.276C28.5822 22.4712 28.6537 22.6583 28.7757 22.8116C28.806 22.8457 28.8434 22.8727 28.8854 22.8908C28.9274 22.909 28.9728 22.9177 29.0185 22.9164Z" fill="#3C3C3B"/>
<path d="M29.3901 24.3663C29.9958 24.3459 30.0338 23.7025 30.0543 23.3561V23.2804H29.8816V23.3561C29.8582 23.7753 29.7997 24.1858 29.393 24.2033C28.9278 24.1538 28.8986 23.7986 28.9044 23.4376C28.9044 23.4114 28.9044 23.3881 28.9044 23.3648L28.7289 23.3503C28.6323 23.9063 28.5211 24.1625 28.1437 24.1218C27.8511 24.0897 27.8511 23.5395 27.8511 23.3182C27.8511 23.2163 27.8511 23.1901 27.8335 23.1581L27.6902 23.2571C27.6874 23.2476 27.6874 23.2375 27.6902 23.228C27.6902 23.228 27.6902 23.2804 27.6902 23.3153C27.6902 23.6065 27.6726 24.2469 28.1232 24.2964C28.2604 24.3211 28.4018 24.2938 28.5198 24.22C28.6378 24.1462 28.7239 24.0312 28.761 23.8976C28.7961 24.0327 28.8745 24.1527 28.9843 24.2394C29.0942 24.3261 29.2294 24.3748 29.3696 24.3779L29.3901 24.3663Z" fill="#3C3C3B"/>
<path d="M28.1056 17.8857C28.276 17.8885 28.4448 17.8537 28.6001 17.7838C28.7244 17.7217 28.8327 17.6318 28.9164 17.5212C29.0001 17.4107 29.0571 17.2823 29.0828 17.1463C29.3754 15.9643 28.6469 15.612 28.3777 15.481L28.3338 15.4606C28.2482 15.4213 28.1603 15.3872 28.0705 15.3587C27.7486 15.2423 27.2103 15.0676 27.1488 14.8085L26.9791 14.8492C27.064 15.184 27.6345 15.3878 28.012 15.5218C28.1173 15.5596 28.208 15.5916 28.2548 15.6149L28.2987 15.6382C28.5591 15.7634 29.1764 16.0574 28.9102 17.0939C28.8908 17.2046 28.8458 17.3093 28.7788 17.3997C28.7118 17.4901 28.6245 17.5638 28.524 17.615C28.0061 17.8595 27.1927 17.4811 27.1839 17.4781L27.1108 17.6354C27.4221 17.7845 27.7605 17.8696 28.1056 17.8857Z" fill="#3C3C3B"/>
<path d="M27.5438 13.7954C27.5438 14.6688 27.8364 15.3587 28.2168 15.3587C28.5971 15.3587 28.8926 14.6571 28.8926 13.7954C28.8926 12.9336 28.6001 12.2291 28.2168 12.2291C27.8335 12.2291 27.5438 12.9307 27.5438 13.7954Z" fill="white"/>
<path d="M27.6346 14.3136C27.6346 14.6979 27.816 15.0065 28.0032 14.9977C28.1905 14.989 28.3368 14.6746 28.3222 14.2874C28.3075 13.9002 28.1437 13.5945 27.9535 13.6032C27.7633 13.6119 27.6199 13.9322 27.6346 14.3136Z" fill="#1D1D1B"/>
<path d="M33.179 12.986C33.4277 13.2771 33.7496 13.4198 33.8929 13.2975C34.0363 13.1752 33.9544 12.8375 33.7057 12.5435C33.457 12.2494 33.1205 12.1068 32.9888 12.2291C32.8572 12.3513 32.9274 12.689 33.179 12.986Z" fill="url(#paint6_radial_105_442)"/>
<path d="M27.8892 14.3135C27.8892 14.4329 27.9477 14.529 28.0179 14.529C28.0881 14.529 28.1496 14.4329 28.1496 14.3135C28.1496 14.1942 28.091 14.0981 28.0179 14.0981C27.9448 14.0981 27.8892 14.1854 27.8892 14.3135Z" fill="#706F6F"/>
<path d="M19.4129 24.3692C19.4129 24.3692 17.0576 22.605 16.0072 21.979C14.9568 21.3531 12.9263 20.3312 12.3469 20.3312C12.1363 20.3312 11.32 20.3312 11.9256 20.864C12.5313 21.3968 18.5176 24.9951 18.5176 24.9951" fill="url(#paint7_linear_105_442)"/>
<path d="M18.4707 25.0854L18.5614 24.9369C18.5029 24.899 12.578 21.3356 11.9841 20.8145C11.7764 20.6311 11.791 20.5583 11.7968 20.5437C11.8027 20.5292 11.8758 20.4331 12.3469 20.4331C12.8823 20.4331 14.8456 21.4026 15.9633 22.0693C16.9961 22.6864 19.3368 24.4361 19.3602 24.4536L19.4655 24.3139C19.4421 24.2964 17.0956 22.5409 16.054 21.9179C15.0562 21.3356 12.9643 20.2584 12.3469 20.2584C12.0543 20.2584 11.7091 20.2846 11.633 20.4826C11.5832 20.6107 11.6593 20.7737 11.8671 20.9455C12.4727 21.4637 18.2279 24.9223 18.4707 25.0854Z" fill="#3C3C3B"/>
<path d="M17.953 25.6065C17.953 25.6065 13.889 23.6297 12.3704 23.2542C10.8519 22.8786 9.54698 22.1886 9.21928 23.0708C9.03495 23.5104 12.1451 24.5555 13.2102 24.9718C14.2752 25.3882 16.6744 26.2499 17.5082 26.3664" fill="url(#paint8_linear_105_442)"/>
<path d="M17.4819 26.4508L17.5053 26.279C16.7124 26.1654 14.3073 25.3153 13.2423 24.8932L12.4641 24.6021C11.4137 24.212 9.45627 23.4841 9.30412 23.1464C9.30412 23.1464 9.30412 23.126 9.30412 23.1202C9.51479 22.5554 10.1614 22.7185 11.2879 23.0591C11.6273 23.1639 11.9813 23.2687 12.3529 23.3502C13.8451 23.6996 17.8769 25.6793 17.912 25.6793L17.9881 25.525C17.8242 25.4434 13.8919 23.5249 12.388 23.1668C12.0193 23.0824 11.6711 22.9747 11.3317 22.8757C10.258 22.5525 9.41238 22.2934 9.13442 23.0387C9.11405 23.0902 9.11405 23.1474 9.13442 23.1988C9.30412 23.586 10.7115 24.1363 12.3938 24.7622C12.704 24.8757 12.979 24.9747 13.1692 25.0533C14.2898 25.4929 16.6627 26.3343 17.4819 26.4508Z" fill="#3C3C3B"/>
<path d="M24.2376 21.3997C23.3072 22.3721 21.6482 22.9776 19.9483 24.0461C18.2484 25.1145 18.3537 25.1232 18.0787 25.4289C17.8036 25.7346 17.9178 25.9035 17.9178 25.9035C22.1398 28.7478 28.6644 22.1945 26.6368 21.5365" fill="url(#paint9_linear_105_442)"/>
<path d="M20.3257 26.6982C21.6341 26.6486 22.9043 26.2461 24.0006 25.5337C25.7824 24.4595 27.2015 22.8146 27.102 21.9441C27.0916 21.8247 27.0444 21.7115 26.9669 21.6198C26.8894 21.5281 26.7854 21.4624 26.669 21.4317L26.6134 21.5976C26.6974 21.6183 26.7729 21.6644 26.8295 21.7296C26.8861 21.7948 26.921 21.8758 26.9294 21.9615C27.0113 22.6719 25.7883 24.2498 23.9099 25.3823C22.8683 26.0112 20.2116 27.3067 17.9909 25.8307C17.9909 25.7957 17.9645 25.6735 18.1459 25.4726L18.2425 25.362C18.418 25.1553 18.5351 25.0272 19.998 24.1043C20.6241 23.7142 21.2327 23.3881 21.8208 23.0766C22.8332 22.5351 23.708 22.0693 24.3078 21.4433L24.182 21.324C23.5968 21.9295 22.7395 22.3895 21.7389 22.9223C21.1537 23.2367 20.5364 23.5628 19.9073 23.9587C18.4122 24.8932 18.3069 25.0213 18.1108 25.2513L18.0201 25.3561C17.7071 25.6997 17.8358 25.9151 17.8504 25.9384C18.5776 26.4384 19.4418 26.7037 20.3257 26.6982Z" fill="#3C3C3B"/>
<path d="M22.5845 23.8131C22.5845 23.8131 17.7364 25.851 17.5462 26.18C17.356 26.509 17.7627 26.6342 17.8798 26.6312C18.7172 26.4181 19.5361 26.1387 20.3287 25.7957C21.2299 25.3532 22.4968 24.8641 22.4968 24.8641" fill="url(#paint10_linear_105_442)"/>
<path d="M17.8768 26.7186H17.9002C18.7444 26.5036 19.5702 26.2223 20.3696 25.8772C21.2474 25.4435 22.5172 24.9544 22.5289 24.9485L22.4646 24.7855C22.4646 24.7855 21.183 25.2833 20.2906 25.72C19.5063 26.0589 18.6963 26.3354 17.868 26.5468C17.7647 26.5359 17.67 26.4846 17.6047 26.4042C17.6047 26.3867 17.5608 26.3314 17.6223 26.2266C17.7803 26.0024 20.7705 24.6778 22.6196 23.8976L22.5523 23.7374C21.736 24.0839 17.6661 25.8161 17.473 26.1422C17.4357 26.1926 17.4138 26.2527 17.4102 26.3153C17.4066 26.3778 17.4213 26.4401 17.4526 26.4944C17.5015 26.5614 17.5651 26.6165 17.6386 26.6553C17.7122 26.6942 17.7936 26.7158 17.8768 26.7186Z" fill="#3C3C3B"/>
<path d="M22.4821 24.8262C22.4821 24.8262 17.0576 26.5439 17.1453 26.9602C17.2331 27.3765 18.0231 27.6968 19.3339 27.4377C20.6447 27.1786 23.7753 25.6181 24.5331 25.1086" fill="url(#paint11_linear_105_442)"/>
<path d="M18.424 27.6182C18.7307 27.6158 19.0364 27.5837 19.3368 27.5221C20.6593 27.2601 23.7988 25.6967 24.5683 25.1931L24.4717 25.0475C23.7081 25.5483 20.6067 27.0854 19.3017 27.3533C17.9968 27.6211 17.2975 27.2805 17.2185 26.9544C17.3472 26.6808 19.9922 25.7026 22.4851 24.9165L22.4295 24.7506C22.4295 24.7506 21.0572 25.1873 19.726 25.6647C16.964 26.6517 17.0078 26.8613 17.0342 26.9865C17.119 27.3387 17.6047 27.6182 18.424 27.6182Z" fill="#3C3C3B"/>
<path d="M22.9238 25.3765L23.0087 25.2222C22.8823 25.1549 22.7619 25.077 22.6488 24.9893C22.5986 24.9386 22.5641 24.8745 22.5496 24.8048C22.535 24.7351 22.5411 24.6627 22.5669 24.5963C22.719 24.2848 23.4271 24.1363 23.6699 24.1334L23.6963 23.9645C23.4037 23.8655 23.2545 23.7462 23.2457 23.6297C23.2369 23.5133 23.4476 23.3153 23.5383 23.2716L23.4505 23.1202C23.4095 23.1435 23.0555 23.359 23.0818 23.6443C23.0947 23.7218 23.1269 23.795 23.1755 23.857C23.224 23.919 23.2874 23.968 23.3598 23.9994C23.0204 24.0664 22.5669 24.2236 22.4206 24.5206C22.3783 24.6173 22.3661 24.7244 22.3854 24.8282C22.4046 24.9319 22.4546 25.0275 22.5289 25.1028C22.6526 25.2049 22.7847 25.2964 22.9238 25.3765Z" fill="#3C3C3B"/>
<path d="M22.8624 23.129C22.7537 23.1931 22.6615 23.2814 22.593 23.387C22.5244 23.4926 22.4814 23.6125 22.4674 23.7375C22.4674 24.1305 22.9063 24.1974 22.9063 24.1974" fill="#4E8832"/>
<path d="M22.8946 24.2848L22.918 24.113C22.918 24.113 22.5435 24.049 22.5552 23.7404C22.5684 23.6302 22.607 23.5246 22.6679 23.4317C22.7288 23.3388 22.8104 23.2611 22.9063 23.2047L22.8185 23.0533C22.697 23.1248 22.594 23.2237 22.5178 23.342C22.4415 23.4603 22.3942 23.5948 22.3796 23.7345C22.382 23.8733 22.4359 24.0064 22.531 24.108C22.6261 24.2096 22.7556 24.2726 22.8946 24.2848Z" fill="#3C3C3B"/>
<path d="M32.8308 12.1738L32.7284 12.7648H31.9033L32.8308 12.1738Z" fill="url(#paint12_radial_105_442)"/>
<path fill-rule="evenodd" clip-rule="evenodd" d="M6.54191 22.1275C6.5421 18.0934 7.80802 14.1599 10.163 10.8761C12.518 7.59231 15.8446 5.12198 19.6784 3.80988C23.5123 2.49779 27.6622 2.40938 31.549 3.55701C35.4358 4.70464 38.8656 7.03104 41.3597 10.2115C40.0851 7.84832 38.3312 5.7742 36.2091 4.12052C34.087 2.46684 31.6429 1.26964 29.0316 0.604736C26.4203 -0.0601676 23.6987 -0.17829 21.0392 0.257855C18.3796 0.694 15.84 1.67491 13.5813 3.13846C11.3226 4.60201 9.39385 6.5163 7.91732 8.76013C6.44079 11.0039 5.4486 13.5284 5.0036 16.1736C4.5586 18.8188 4.67048 21.5272 5.33215 24.1271C5.99382 26.7271 7.19087 29.162 8.84749 31.2777C7.33021 28.4643 6.53802 25.3204 6.54191 22.1275Z" fill="url(#paint13_linear_105_442)"/>
<path fill-rule="evenodd" clip-rule="evenodd" d="M21.9291 6.21725C25.9614 5.80032 30.0239 6.64647 33.5495 8.63759C37.0752 10.6287 39.8882 13.6654 41.5957 17.3239C43.3033 20.9824 43.8204 25.0801 43.0747 29.0451C42.329 33.0101 40.3578 36.6445 37.4362 39.441C39.6714 37.9375 41.568 35.9881 43.0058 33.7165C44.4435 31.4449 45.391 28.9006 45.7881 26.2453C46.1852 23.59 46.0231 20.8815 45.3123 18.2918C44.6015 15.7021 43.3574 13.2877 41.659 11.2018C39.9606 9.11592 37.8449 7.40413 35.4463 6.17505C33.0477 4.94598 30.4185 4.22647 27.7256 4.06218C25.0326 3.8979 22.3348 4.29242 19.8032 5.22072C17.2717 6.14901 14.9617 7.59081 13.0199 9.45461C15.6738 7.65694 18.7355 6.54441 21.9291 6.21725Z" fill="url(#paint14_linear_105_442)"/>
<path fill-rule="evenodd" clip-rule="evenodd" d="M39.9378 20.7679C40.3568 24.7801 39.5064 28.8223 37.5053 32.3305C35.5042 35.8386 32.4523 38.6375 28.7755 40.3366C25.0987 42.0357 20.9805 42.5502 16.9957 41.8082C13.0109 41.0662 9.35837 39.1048 6.54785 36.1978C8.05888 38.4218 10.018 40.309 12.301 41.7396C14.584 43.1702 17.1409 44.113 19.8095 44.5081C22.4781 44.9032 25.2002 44.742 27.8028 44.0347C30.4055 43.3274 32.832 42.0895 34.9283 40.3996C37.0246 38.7096 38.745 36.6045 39.9802 34.2178C41.2154 31.8311 41.9385 29.215 42.1036 26.5355C42.2687 23.8559 41.8722 21.1715 40.9393 18.6525C40.0064 16.1336 38.5573 13.8351 36.6842 11.903C38.4897 14.5443 39.6076 17.5905 39.9378 20.7679Z" fill="url(#paint15_linear_105_442)"/>
<path fill-rule="evenodd" clip-rule="evenodd" d="M18.7516 38.6666C14.7742 37.8871 11.1405 35.8915 8.35779 32.9582C5.57508 30.0249 3.78218 26.3003 3.22931 22.3043C2.67645 18.3083 3.39121 14.2402 5.27384 10.6678C7.15647 7.09549 10.113 4.19711 13.7309 2.37723C11.157 3.1668 8.77578 4.47928 6.73788 6.23164C4.69999 7.98401 3.04975 10.1381 1.89156 12.5577C0.733369 14.9773 0.0924273 17.6098 0.00927844 20.2885C-0.0738704 22.9673 0.402583 25.634 1.4085 28.1201C2.41442 30.6063 3.92791 32.8576 5.85323 34.7318C7.77856 36.6059 10.0738 38.0621 12.5938 39.0082C15.1139 39.9543 17.8038 40.3698 20.4935 40.2283C23.1831 40.0868 25.814 39.3915 28.2197 38.1862C25.1521 39.1225 21.8991 39.2875 18.7516 38.6666Z" fill="url(#paint16_linear_105_442)"/>
<defs>
<radialGradient id="paint0_radial_105_442" cx="0" cy="0" r="1" gradientUnits="userSpaceOnUse" gradientTransform="translate(27.2513 15.7547) rotate(180) scale(4.42975 4.40771)">
<stop stop-color="#AAC811"/>
<stop offset="0.45" stop-color="#498632"/>
<stop offset="1" stop-color="#508931"/>
</radialGradient>
<linearGradient id="paint1_linear_105_442" x1="30.575" y1="16.7183" x2="32.2961" y2="19.0177" gradientUnits="userSpaceOnUse">
<stop stop-color="#72100C"/>
<stop offset="0.15" stop-color="#7A0F0C"/>
<stop offset="0.39" stop-color="#8F0D0E"/>
<stop offset="0.67" stop-color="#B20A10"/>
<stop offset="0.99" stop-color="#E20613"/>
<stop offset="1" stop-color="#E30613"/>
</linearGradient>
<linearGradient id="paint2_linear_105_442" x1="31.7044" y1="22.1537" x2="28.7279" y2="22.9588" gradientUnits="userSpaceOnUse">
<stop stop-color="#DEDC00"/>
<stop offset="0.72" stop-color="#498632"/>
<stop offset="1" stop-color="#508931"/>
</linearGradient>
<radialGradient id="paint3_radial_105_442" cx="0" cy="0" r="1" gradientUnits="userSpaceOnUse" gradientTransform="translate(32.945 13.7371) rotate(180) scale(4.09328 4.07291)">
<stop stop-color="#E30613"/>
<stop offset="0.2" stop-color="#DE0713"/>
<stop offset="0.44" stop-color="#D00914"/>
<stop offset="0.69" stop-color="#B90D15"/>
<stop offset="0.95" stop-color="#981316"/>
<stop offset="1" stop-color="#921416"/>
</radialGradient>
<linearGradient id="paint4_linear_105_442" x1="19.0442" y1="23.4318" x2="8.7569" y2="23.4318" gradientUnits="userSpaceOnUse">
<stop offset="0.49" stop-color="#498632"/>
<stop offset="1" stop-color="#95C11F"/>
</linearGradient>
<radialGradient id="paint5_radial_105_442" cx="0" cy="0" r="1" gradientUnits="userSpaceOnUse" gradientTransform="translate(31.2042 23.7811) rotate(180) scale(8.14267 8.10215)">
<stop stop-color="#DEDC00"/>
<stop offset="0.72" stop-color="#498632"/>
<stop offset="1" stop-color="#508931"/>
</radialGradient>
<radialGradient id="paint6_radial_105_442" cx="0" cy="0" r="1" gradientUnits="userSpaceOnUse" gradientTransform="translate(32.8865 12.0079) rotate(140.408) scale(0.304051 0.581906)">
<stop stop-color="white"/>
<stop offset="0.14" stop-color="#FFFBFB"/>
<stop offset="0.26" stop-color="#FDF0F1"/>
<stop offset="0.39" stop-color="#FBDDDF"/>
<stop offset="0.51" stop-color="#F8C2C5"/>
<stop offset="0.63" stop-color="#F4A0A5"/>
<stop offset="0.75" stop-color="#F0757D"/>
<stop offset="0.87" stop-color="#EA434D"/>
<stop offset="0.99" stop-color="#E40B18"/>
<stop offset="1" stop-color="#E30613"/>
</radialGradient>
<linearGradient id="paint7_linear_105_442" x1="19.4129" y1="22.6632" x2="11.7032" y2="22.6632" gradientUnits="userSpaceOnUse">
<stop offset="0.49" stop-color="#498632"/>
<stop offset="1" stop-color="#95C11F"/>
</linearGradient>
<linearGradient id="paint8_linear_105_442" x1="17.953" y1="24.506" x2="9.2105" y2="24.506" gradientUnits="userSpaceOnUse">
<stop offset="0.49" stop-color="#498632"/>
<stop offset="1" stop-color="#95C11F"/>
</linearGradient>
<linearGradient id="paint9_linear_105_442" x1="27.0201" y1="24.0082" x2="17.8943" y2="24.0082" gradientUnits="userSpaceOnUse">
<stop offset="0.49" stop-color="#498632"/>
<stop offset="1" stop-color="#95C11F"/>
</linearGradient>
<linearGradient id="paint10_linear_105_442" x1="22.5845" y1="25.2222" x2="17.4965" y2="25.2222" gradientUnits="userSpaceOnUse">
<stop offset="0.49" stop-color="#498632"/>
<stop offset="1" stop-color="#95C11F"/>
</linearGradient>
<linearGradient id="paint11_linear_105_442" x1="24.5185" y1="26.1771" x2="17.1278" y2="26.1771" gradientUnits="userSpaceOnUse">
<stop offset="0.49" stop-color="#498632"/>
<stop offset="1" stop-color="#95C11F"/>
</linearGradient>
<radialGradient id="paint12_radial_105_442" cx="0" cy="0" r="1" gradientUnits="userSpaceOnUse" gradientTransform="translate(32.5412 12.5755) rotate(180) scale(0.547136 0.544413)">
<stop stop-color="#520A00"/>
<stop offset="0.22" stop-color="#550A00"/>
<stop offset="0.38" stop-color="#5F0A02"/>
<stop offset="0.53" stop-color="#6F0904"/>
<stop offset="0.67" stop-color="#860907"/>
<stop offset="0.8" stop-color="#A4080B"/>
<stop offset="0.92" stop-color="#C8070F"/>
<stop offset="1" stop-color="#E30613"/>
</radialGradient>
<linearGradient id="paint13_linear_105_442" x1="27.4121" y1="-4.03927" x2="18.4587" y2="32.4688" gradientUnits="userSpaceOnUse">
<stop offset="0.37" stop-color="#9AC328"/>
<stop offset="1" stop-color="white"/>
</linearGradient>
<linearGradient id="paint14_linear_105_442" x1="36.8071" y1="22.1217" x2="15.6012" y2="-2.98786" gradientUnits="userSpaceOnUse">
<stop stop-color="#004E9E"/>
<stop offset="0.43" stop-color="#009FE3"/>
<stop offset="1" stop-color="white"/>
</linearGradient>
<linearGradient id="paint15_linear_105_442" x1="35.6104" y1="28.3023" x2="71.1947" y2="28.3023" gradientUnits="userSpaceOnUse">
<stop stop-color="#D1461C"/>
<stop offset="0.56" stop-color="#FFED00"/>
<stop offset="1" stop-color="white"/>
</linearGradient>
<linearGradient id="paint16_linear_105_442" x1="-0.0294529" y1="21.324" x2="28.2197" y2="21.324" gradientUnits="userSpaceOnUse">
<stop stop-color="#D7771A"/>
<stop offset="0.56" stop-color="#FFED00"/>
<stop offset="1" stop-color="white"/>
</linearGradient>
</defs>
</svg>
