<svg width="190" height="55" viewBox="0 0 190 55" fill="none" xmlns="http://www.w3.org/2000/svg">
<g clip-path="url(#clip0_7_21)">
<path d="M77.4089 12.1776C77.4089 12.1776 83.8881 11.9735 85.9615 12.1776C85.8607 13.7178 85.6555 16.5688 85.9615 17.0917C85.5656 17.0917 82.1568 17.2421 82.1568 17.2421C82.1568 17.2421 82.2072 24.1261 82.5815 25.4262H77.2433C76.939 21.0128 76.9944 16.5821 77.4089 12.1776Z" fill="#95C11F"/>
<path d="M94.4025 11.6547C90.4646 11.6547 87.2717 14.9284 87.2717 18.9649C87.2717 23.0014 90.4646 26.2715 94.4025 26.2715C98.3404 26.2715 101.537 23.0014 101.537 18.9649C101.537 14.9284 98.344 11.6547 94.4025 11.6547ZM96.3715 23.1554C96.0739 23.1554 95.783 23.0676 95.5355 22.9031C95.2881 22.7386 95.0952 22.5048 94.9814 22.2312C94.8675 21.9577 94.8377 21.6566 94.8957 21.3662C94.9538 21.0758 95.0971 20.8091 95.3075 20.5997C95.5179 20.3903 95.786 20.2477 96.0779 20.1899C96.3698 20.1322 96.6723 20.1618 96.9472 20.2751C97.2222 20.3885 97.4572 20.5803 97.6225 20.8265C97.7878 21.0727 97.8761 21.3622 97.8761 21.6583C97.8761 22.0554 97.7175 22.4362 97.4354 22.7169C97.1532 22.9977 96.7705 23.1554 96.3715 23.1554Z" fill="#95C11F"/>
<path d="M122.53 11.6547C118.592 11.6547 115.399 14.9284 115.399 18.9649C115.399 23.0014 118.592 26.2715 122.53 26.2715C126.467 26.2715 129.664 23.0014 129.664 18.9649C129.664 14.9284 126.467 11.6547 122.53 11.6547ZM124.499 23.1554C124.201 23.1554 123.91 23.0676 123.663 22.9031C123.415 22.7386 123.222 22.5048 123.108 22.2312C122.995 21.9577 122.965 21.6566 123.023 21.3662C123.081 21.0758 123.224 20.8091 123.435 20.5997C123.645 20.3903 123.913 20.2477 124.205 20.1899C124.497 20.1322 124.799 20.1618 125.074 20.2751C125.349 20.3885 125.584 20.5803 125.75 20.8265C125.915 21.0727 126.003 21.3622 126.003 21.6583C126.003 22.0554 125.845 22.4362 125.562 22.7169C125.28 22.9977 124.898 23.1554 124.499 23.1554Z" fill="#95C11F"/>
<path d="M142.345 18.1411C142.345 11.1067 131.906 12.106 131.906 12.106C130.153 13.8968 131.28 25.6734 131.28 25.6734H136.679C136.582 25.1395 136.549 24.596 136.582 24.0544C136.856 23.9291 142.345 24.0043 142.345 18.1411ZM136.179 22.2063V20.2113C136.179 20.2113 137.284 20.2113 137.259 21.0602C137.255 21.3506 137.141 21.629 136.942 21.841C136.742 22.0529 136.47 22.1832 136.179 22.2063Z" fill="#95C11F"/>
<path d="M152.824 11.207L157.161 13.8503C157.161 13.8503 151.697 24.0616 148.565 27.1454C145.355 25.1504 144.152 24.2801 144.152 24.2801L147.284 20.3653C147.284 20.3653 143.45 15.6733 142.882 13.3166C144.188 12.6433 147.172 11.2213 147.172 11.2213L150.016 15.9599L152.824 11.207Z" fill="#95C11F"/>
<path d="M158.741 12.9262C158.741 12.9262 157.204 17.3711 158.45 25.1361C161.499 25.1361 173.6 26.0566 173.928 26.0566C174.256 26.0566 174.252 13.6927 174.112 12.543C173.834 12.5 170.649 11.6117 168.615 12.0559C168.615 13.5566 168.061 17.0953 168.662 20.5408C167.136 20.5408 161.916 20.8166 161.916 20.8166C161.916 20.8166 161.556 15.3474 162.794 12.7758C162.006 12.7758 158.741 12.9262 158.741 12.9262Z" fill="#95C11F"/>
<path d="M164.547 10.9814C164.547 10.9814 162.791 13.9971 163.439 19.1762C164.606 19.5804 165.793 19.9259 166.995 20.2113L168.01 12.6898L164.547 10.9814Z" fill="#95C11F"/>
<path d="M184.176 10.9814C184.176 10.9814 190.137 19.8997 189.996 21.5974C189.489 22.2887 185.238 26.0566 185.238 26.0566C185.238 26.0566 183.391 20.5695 182.79 20.2113C181.084 22.1956 179.374 24.6777 178.913 26.4255C177.474 25.0466 174.846 21.9663 174.846 21.9663C174.846 21.9663 182.837 11.5258 184.176 10.9814Z" fill="#95C11F"/>
<path d="M181.177 23.4384L183.485 22.7937L183.902 25.1863L181.545 25.7808L181.177 23.4384Z" fill="#95C11F"/>
<path d="M114.445 16.644C114.319 14.7994 112.015 11.9878 108.556 11.8804C106.481 11.8193 104.464 12.5717 102.941 13.9756V24.5272C105.021 27.0702 110.082 27.1956 111.536 25.6734C113.268 24.0759 112.069 22.2887 111.839 21.9842C114.47 20.4119 114.571 18.4921 114.445 16.644ZM108.192 23.9506V22.7901C108.361 22.8047 108.518 22.8836 108.63 23.0104C108.742 23.1372 108.801 23.302 108.794 23.4706C108.799 23.5459 108.786 23.6214 108.756 23.6905C108.726 23.7597 108.679 23.8205 108.62 23.8677C108.561 23.915 108.491 23.9472 108.416 23.9616C108.342 23.976 108.265 23.9723 108.192 23.9506ZM108.192 20.9599L108.228 19.2693C108.228 19.2693 109.506 19.3374 109.506 20.2615C109.506 21.1855 108.192 20.9599 108.192 20.9599Z" fill="#95C11F"/>
<path d="M87.7324 32.5143V37.2851H88.9995V32.5143H90.6445V37.4212L91.2096 37.4463L91.1484 40.3116H89.9173L89.831 38.6246H86.0874V32.5358L87.7324 32.5143Z" fill="#1D71B8"/>
<path d="M93.2974 36.1497C93.2974 37.0989 93.8734 37.4463 94.5897 37.4463C94.9866 37.4436 95.3804 37.3771 95.7559 37.2493L95.9683 38.4241C95.4325 38.6089 94.8688 38.7009 94.3017 38.6963C92.6171 38.6963 91.6992 37.5967 91.6992 35.6877C91.6992 33.6246 92.7791 32.3997 94.1613 32.3997C95.4788 32.3997 96.2455 33.4384 96.2455 35.3009C96.2501 35.5847 96.2333 35.8684 96.1951 36.1497H93.2974ZM94.7373 35C94.7373 34.212 94.5357 33.5996 94.0461 33.5996C93.5566 33.5996 93.2938 34.3875 93.283 35H94.7373Z" fill="#1D71B8"/>
<path d="M98.8192 32.5143V34.8245H100.115V32.5143H101.756V38.6032H100.115V36.1927H98.8192V38.6032H97.167V32.5143H98.8192Z" fill="#1D71B8"/>
<path d="M106.807 32.5143V33.8503H105.446V38.6211H103.801V33.8503H102.433V32.5143H106.807Z" fill="#1D71B8"/>
<path d="M107.498 34.4484C107.498 33.7142 107.472 33.1017 107.447 32.5143H108.887L108.977 33.2128H109.002C109.117 32.9683 109.299 32.7617 109.529 32.6176C109.758 32.4734 110.023 32.3978 110.295 32.3997C111.637 32.3997 112.192 33.861 112.192 35.5623C112.192 37.7364 111.238 38.7214 110.194 38.7214C109.987 38.7176 109.785 38.6604 109.607 38.5556C109.429 38.4508 109.281 38.3018 109.179 38.1232H109.153V41.0208H107.498V34.4484ZM109.143 36.3969C109.135 36.5729 109.164 36.7486 109.229 36.9126C109.355 37.2708 109.567 37.3854 109.758 37.3854C110.334 37.3854 110.547 36.5365 110.547 35.5731C110.547 34.4126 110.259 33.7823 109.769 33.7823C109.632 33.7985 109.504 33.8586 109.405 33.9536C109.306 34.0487 109.24 34.1733 109.218 34.3087C109.16 34.4467 109.134 34.5962 109.143 34.7457V36.3969Z" fill="#1D71B8"/>
<path d="M115.107 34.4484C115.107 33.7142 115.082 33.1017 115.057 32.5143H116.497L116.587 33.2128H116.605C116.719 32.9683 116.902 32.7617 117.131 32.6176C117.36 32.4734 117.626 32.3978 117.897 32.3997C119.24 32.3997 119.794 33.861 119.794 35.5623C119.794 37.7364 118.84 38.7214 117.796 38.7214C117.589 38.7183 117.387 38.6614 117.209 38.5565C117.031 38.4516 116.883 38.3023 116.781 38.1232H116.756V41.0208H115.111L115.107 34.4484ZM116.752 36.3969C116.745 36.5729 116.774 36.7486 116.839 36.9126C116.965 37.2708 117.177 37.3854 117.368 37.3854C117.944 37.3854 118.156 36.5365 118.156 35.5731C118.156 34.4126 117.868 33.7823 117.379 33.7823C117.242 33.7985 117.114 33.8586 117.015 33.9536C116.915 34.0487 116.85 34.1733 116.828 34.3087C116.769 34.4467 116.744 34.5962 116.752 34.7457V36.3969Z" fill="#1D71B8"/>
<path d="M124.884 37.2242C124.88 37.6913 124.908 38.158 124.97 38.6211H123.501L123.411 38.0229H123.375C123.224 38.2414 123.022 38.4195 122.785 38.5413C122.548 38.6632 122.285 38.725 122.018 38.7214C121.09 38.7214 120.399 37.9477 120.399 36.8732C120.399 35.2615 121.817 34.6132 123.213 34.5989V34.4484C123.223 34.3337 123.207 34.2183 123.167 34.1104C123.126 34.0026 123.062 33.905 122.979 33.8248C122.896 33.7446 122.796 33.6838 122.687 33.6467C122.577 33.6096 122.461 33.5972 122.346 33.6103C121.901 33.6084 121.466 33.7326 121.09 33.9685L120.787 32.8582C121.382 32.5538 122.041 32.3953 122.709 32.3961C124.581 32.3961 124.869 33.6963 124.869 34.9427L124.884 37.2242ZM123.264 35.6483C122.724 35.6483 121.957 35.8489 121.957 36.6977C121.957 37.2994 122.296 37.5215 122.548 37.5215C122.702 37.518 122.851 37.4653 122.973 37.3711C123.094 37.277 123.183 37.1464 123.224 36.9986C123.251 36.9055 123.265 36.809 123.264 36.712V35.6483Z" fill="#1D71B8"/>
<path d="M126.507 34.9248H127.022C127.612 34.9248 128.001 34.649 128.001 34.2084C128.001 33.7679 127.688 33.5351 127.123 33.5351C126.746 33.5479 126.376 33.6459 126.043 33.8216L125.791 32.808C126.364 32.5242 126.997 32.3829 127.637 32.3961C128.994 32.3961 129.66 33.1125 129.66 33.9577C129.66 34.6741 129.146 35.1468 128.415 35.3188V35.3438C129.297 35.4835 129.898 36.0602 129.898 36.8589C129.898 38.1053 128.656 38.7178 127.274 38.7178C126.702 38.722 126.136 38.5997 125.618 38.3596L125.892 37.2851C126.271 37.4443 126.676 37.533 127.087 37.5466C127.9 37.5466 128.217 37.1884 128.217 36.798C128.217 36.2249 127.652 35.9993 127.047 35.9993H126.522L126.507 34.9248Z" fill="#1D71B8"/>
<path d="M130.791 32.5394C131.387 32.4555 131.988 32.4136 132.59 32.4141C133.67 32.4141 135.301 32.5895 135.301 33.9506C135.298 34.2837 135.178 34.6054 134.963 34.8603C134.747 35.1152 134.449 35.2875 134.12 35.3474V35.3868C135.038 35.5229 135.56 36.1032 135.56 36.8374C135.56 38.4599 133.551 38.6963 132.32 38.6963C131.813 38.7026 131.306 38.6775 130.801 38.6211L130.791 32.5394ZM132.371 37.5967C132.507 37.6233 132.646 37.6365 132.785 37.6361C133.364 37.6361 133.929 37.4212 133.929 36.8231C133.929 36.2249 133.4 35.9993 132.759 35.9993H132.371V37.5967ZM132.371 34.9499H132.731C133.281 34.9499 133.746 34.6741 133.746 34.187C133.746 33.6999 133.357 33.4706 132.781 33.4706C132.642 33.4688 132.503 33.482 132.367 33.51L132.371 34.9499Z" fill="#1D71B8"/>
<path d="M137.961 32.5143V33.836C137.961 34.9499 137.896 36.0244 137.835 36.6476H137.871C138.073 36.01 138.35 35.3367 138.548 34.8567L139.48 32.5215H141.035V38.6103H139.541V37.2744C139.541 36.0387 139.602 35.351 139.653 34.5272H139.617C139.415 35.1755 139.257 35.6769 139.012 36.2643C138.85 36.6762 138.36 37.8761 138.008 38.6103H136.478V32.5215L137.961 32.5143Z" fill="#1D71B8"/>
<path d="M146.071 32.5143V33.8503H144.703V38.6211H143.058V33.8503H141.69V32.5143H146.071Z" fill="#1D71B8"/>
<path d="M148.256 32.5143V33.836C148.256 34.9499 148.195 36.0244 148.13 36.6476H148.169C148.367 36.01 148.644 35.3367 148.846 34.8567L149.775 32.5215H151.333V38.6103H149.84V37.2744C149.84 36.0387 149.901 35.351 149.951 34.5272H149.915C149.714 35.1755 149.555 35.6769 149.31 36.2643C149.148 36.6762 148.659 37.8761 148.306 38.6103H146.773V32.5215L148.256 32.5143Z" fill="#1D71B8"/>
<path d="M156.808 38.6211H155.225V36.2393H155.073C154.918 36.2314 154.763 36.2742 154.634 36.361C154.17 36.6261 154.033 37.4355 153.842 38.1877C153.799 38.3425 153.74 38.4925 153.666 38.6354H151.96C152.091 38.4256 152.192 38.1991 152.262 37.962C152.424 37.4248 152.6 36.6261 153.004 36.1891C153.208 35.9859 153.463 35.839 153.742 35.7629V35.7378C152.978 35.5766 152.302 35.1254 152.302 34.2407C152.298 33.9784 152.362 33.7196 152.488 33.4893C152.614 33.259 152.798 33.065 153.022 32.9262C153.436 32.6397 154.238 32.4893 155.081 32.4893C155.656 32.4833 156.231 32.5168 156.801 32.5895L156.808 38.6211ZM155.239 33.5387C155.121 33.5121 155 33.4989 154.879 33.4993C154.314 33.4993 153.961 33.7858 153.961 34.3231C153.965 34.4535 153.995 34.5818 154.05 34.7001C154.105 34.8185 154.184 34.9244 154.282 35.0112C154.379 35.0981 154.494 35.1642 154.618 35.2054C154.743 35.2466 154.874 35.262 155.005 35.2507C155.08 35.2586 155.156 35.2586 155.232 35.2507L155.239 33.5387Z" fill="#1D71B8"/>
<path d="M159.947 34.4484C159.947 33.7142 159.922 33.1017 159.897 32.5143H161.337L161.427 33.2128H161.452C161.566 32.9683 161.749 32.7617 161.978 32.6176C162.207 32.4734 162.473 32.3978 162.744 32.3997C164.087 32.3997 164.641 33.861 164.641 35.5623C164.641 37.7364 163.687 38.7214 162.643 38.7214C162.436 38.7176 162.234 38.6604 162.056 38.5556C161.878 38.4508 161.731 38.3018 161.628 38.1232H161.599V41.0208H159.954L159.947 34.4484ZM161.592 36.3969C161.584 36.5729 161.614 36.7486 161.679 36.9126C161.805 37.2708 162.017 37.3854 162.208 37.3854C162.784 37.3854 162.996 36.5365 162.996 35.5731C162.996 34.4126 162.708 33.7823 162.218 33.7823C162.082 33.7985 161.954 33.8586 161.854 33.9536C161.755 34.0487 161.689 34.1733 161.668 34.3087C161.609 34.4467 161.583 34.5962 161.592 34.7457V36.3969Z" fill="#1D71B8"/>
<path d="M166.952 36.1497C166.952 37.0989 167.531 37.4463 168.244 37.4463C168.642 37.4439 169.037 37.3774 169.414 37.2493L169.626 38.4241C169.089 38.6092 168.524 38.7013 167.956 38.6963C166.275 38.6963 165.357 37.5967 165.357 35.6877C165.357 33.6246 166.437 32.3997 167.819 32.3997C169.137 32.3997 169.904 33.4384 169.904 35.3009C169.908 35.5847 169.891 35.8684 169.853 36.1497H166.952ZM168.41 35C168.41 34.212 168.208 33.5996 167.719 33.5996C167.229 33.5996 166.966 34.3875 166.952 35H168.41Z" fill="#1D71B8"/>
<path d="M172.376 32.5143V34.735C172.376 35.2507 172.553 35.5731 173.042 35.5731C173.248 35.58 173.45 35.5237 173.622 35.4119V32.5143H175.278V38.6855H173.633V36.4864H173.597C173.248 36.6803 172.852 36.7757 172.452 36.7622C171.246 36.7622 170.731 36.01 170.731 34.8352V32.5143H172.376Z" fill="#1D71B8"/>
<path d="M177.902 32.5143V33.836C177.902 34.9499 177.841 36.0244 177.776 36.6476H177.815C178.013 36.01 178.291 35.3367 178.492 34.8567L179.421 32.5215H180.98V38.6103H179.486V37.2744C179.486 36.0387 179.547 35.351 179.597 34.5272H179.561C179.36 35.1755 179.201 35.6769 178.957 36.2643C178.795 36.6762 178.305 37.8761 177.952 38.6103H176.419V32.5215L177.902 32.5143Z" fill="#1D71B8"/>
<path d="M23.1633 38.2271C23.1633 38.2271 26.0898 38.6031 26.0826 39.212C26.0754 39.8209 24.2468 39.8424 22.9005 39.8138C21.5543 39.7851 17.2888 40.8596 16.7813 40.9921C16.2737 41.1246 15.3414 41.2106 15.615 40.4835C15.993 39.9749 17.2852 39.3338 18.3615 39.2514C19.4378 39.1691 19.5997 39.1726 19.5997 39.1726C19.5997 39.1726 17.8935 39.1977 17.1628 39.5308C16.4321 39.8639 15.5214 40.0752 15.5106 39.3625C15.5106 38.5172 17.44 38.2629 18.3291 38.1268C19.9378 37.9464 21.5635 37.9801 23.1633 38.2271Z" fill="#DC5113"/>
<path d="M15.5573 40.9635C15.5105 40.8863 15.4838 40.7988 15.4794 40.7087C15.475 40.6187 15.4931 40.529 15.5321 40.4477V40.4191C15.6884 40.2291 15.8758 40.0668 16.0865 39.9391H16.0505C15.6401 39.9391 15.4097 39.735 15.4061 39.3625C15.3881 38.4635 17.1339 38.1948 18.1778 38.0372L18.3362 38.0301C19.0097 37.9484 19.6879 37.9113 20.3664 37.9191C21.3092 37.9087 22.251 37.9807 23.1812 38.134C23.9011 38.2271 26.2013 38.5745 26.1941 39.2264C26.1941 39.7206 25.3698 39.9427 23.5412 39.9427H22.9041H22.8537C21.4822 39.9427 17.3679 40.9706 16.8316 41.1175C16.6182 41.1768 16.398 41.2081 16.1765 41.2106C16.0609 41.2222 15.9442 41.2057 15.8364 41.1627C15.7286 41.1197 15.6328 41.0513 15.5573 40.9635ZM22.9041 39.7063H23.5376C25.6541 39.7063 25.9745 39.3911 25.9745 39.2049C25.9745 38.8861 24.5131 38.4885 23.1452 38.3274C22.2259 38.1742 21.2948 38.1023 20.3628 38.1125C19.6952 38.1036 19.0277 38.1395 18.365 38.2199L18.2246 38.2414C17.3787 38.3703 15.6221 38.639 15.6365 39.3517C15.6365 39.5201 15.6905 39.7099 16.0649 39.7099C16.3114 39.6988 16.5546 39.648 16.7848 39.5594C16.9072 39.5057 17.0296 39.4556 17.1447 39.4126C17.3106 39.3421 17.483 39.2881 17.6595 39.2514C17.8955 39.1904 18.1364 39.1497 18.3794 39.1297H18.4982C19.0417 39.0723 19.5205 39.058 19.6104 39.058V39.2729C19.5601 39.2729 19.3333 39.2729 18.5126 39.341C18.243 39.3691 17.9751 39.4109 17.7099 39.4663C17.5479 39.5093 17.3859 39.5595 17.2275 39.6168C17.0691 39.6741 16.9792 39.7242 16.8676 39.7636C16.4363 39.9359 16.0481 40.2 15.7301 40.5372C15.7061 40.5844 15.6935 40.6366 15.6935 40.6895C15.6935 40.7424 15.7061 40.7945 15.7301 40.8417C15.7913 40.9312 15.9461 40.9778 16.1693 40.9778C16.3714 40.9759 16.5724 40.9469 16.7668 40.8918C17.3067 40.745 21.4462 39.7099 22.8465 39.7099L22.9041 39.7063Z" fill="#3C3C3B"/>
<path d="M34.448 38.0516C34.448 38.0516 31.5287 38.4778 31.5467 39.0867C31.5647 39.6956 33.3933 39.6848 34.7395 39.6347C36.0858 39.5845 40.3693 40.5838 40.8588 40.7092C41.3484 40.8345 42.2986 40.9026 42.0143 40.1827C41.6255 39.6776 40.3261 39.058 39.2462 38.9971C38.1663 38.9362 38.008 38.9362 38.008 38.9362C38.008 38.9362 39.7141 38.9362 40.4485 39.2514C41.1828 39.5666 42.1007 39.7672 42.1007 39.0544C42.1007 38.2092 40.1533 37.9799 39.2606 37.8653C37.6551 37.7168 36.037 37.7795 34.448 38.0516Z" fill="#DC5113"/>
<path d="M40.8336 40.813C40.2973 40.6769 36.0678 39.692 34.7431 39.7385C34.3544 39.7385 34.0232 39.76 33.7532 39.76C32.1658 39.76 31.4531 39.5523 31.4387 39.0867C31.4207 38.4348 33.7244 38.048 34.4264 37.9441C35.4845 37.7542 36.5584 37.6643 37.6336 37.6755C38.1831 37.6682 38.7326 37.6957 39.2786 37.7579L39.4154 37.7758C40.4628 37.9155 42.2158 38.1519 42.2122 39.0509C42.2122 39.4305 41.9783 39.6418 41.5571 39.6418C41.7691 39.7662 41.9578 39.9262 42.115 40.1146V40.1397C42.1576 40.2197 42.1798 40.3088 42.1798 40.3994C42.1798 40.4899 42.1576 40.579 42.115 40.659C42.0344 40.7466 41.9337 40.8134 41.8215 40.854C41.7094 40.8945 41.589 40.9075 41.4707 40.8918C41.2559 40.8918 41.0419 40.8654 40.8336 40.813ZM40.7796 39.4914C40.6608 39.452 40.5348 39.4019 40.4196 39.3517C40.2592 39.2951 40.0958 39.2473 39.9301 39.2085C39.6638 39.1553 39.3946 39.1182 39.1238 39.0974C38.2995 39.0509 38.0727 39.0437 38.0151 39.0437V38.8288C38.1051 38.8288 38.5875 38.8288 39.1238 38.8825H39.2498C39.4923 38.8987 39.7331 38.9347 39.9697 38.99C40.1468 39.0239 40.3204 39.0742 40.488 39.1404C40.6104 39.1834 40.7364 39.2335 40.848 39.2801C41.0789 39.3651 41.3219 39.4134 41.5679 39.4234C41.9567 39.4234 42.0071 39.2228 42.0071 39.0473C42.0071 38.3309 40.2469 38.0981 39.3974 37.9728L39.2606 37.9549C38.724 37.8958 38.1842 37.8695 37.6444 37.8761C36.5823 37.8605 35.5213 37.9493 34.4767 38.1411C33.1161 38.3417 31.6583 38.75 31.6655 39.0652C31.6655 39.2407 31.9498 39.5308 33.764 39.5308C34.0484 39.5308 34.3616 39.5308 34.7467 39.5093C36.093 39.4628 40.3549 40.4513 40.8984 40.5838C41.0841 40.6323 41.2751 40.6576 41.4671 40.659C41.5506 40.6706 41.6357 40.6641 41.7164 40.64C41.7972 40.6158 41.8717 40.5747 41.9351 40.5193C41.9581 40.4712 41.97 40.4186 41.97 40.3653C41.97 40.312 41.9581 40.2594 41.9351 40.2113C41.6068 39.891 41.2126 39.6454 40.7796 39.4914Z" fill="#3C3C3B"/>
<path d="M34.5343 34.0903L35.7222 35.4907C35.7222 35.4907 35.0347 35.462 35.1283 35.634C35.2219 35.8059 36.1362 37.26 35.7222 38.0587C35.5747 38.219 35.3866 38.3369 35.1776 38.3999C34.9686 38.4629 34.7464 38.4688 34.5343 38.4169C34.1024 38.2772 33.7856 37.6504 33.6308 37.4499C33.4761 37.2493 32.3926 36.3252 32.1334 36.2679" fill="#498632"/>
<path d="M34.8007 38.5817C34.9923 38.5816 35.1816 38.5413 35.3565 38.4636C35.5314 38.3858 35.6879 38.2723 35.8158 38.1304C36.0893 37.6039 35.8986 36.7729 35.2506 35.6554C35.4046 35.6245 35.562 35.6149 35.7186 35.6268H35.9634L34.6171 34.0437L34.4515 34.1798L35.4882 35.4012C35.2866 35.4012 35.0959 35.4441 35.0347 35.5408C35.0198 35.5658 35.0119 35.5942 35.0119 35.6232C35.0119 35.6522 35.0198 35.6807 35.0347 35.7056L35.0671 35.7629C35.8194 37.0595 35.787 37.7077 35.6322 38.0229C35.4969 38.1669 35.3258 38.2729 35.1362 38.3301C34.9466 38.3873 34.7452 38.3938 34.5523 38.3489C34.2536 38.2486 33.998 37.8618 33.8324 37.6075C33.782 37.5287 33.7388 37.4642 33.6992 37.414C33.5588 37.235 32.4466 36.2643 32.1442 36.1963L32.0974 36.404C32.6239 36.7228 33.1077 37.1067 33.5372 37.5466C33.5696 37.586 33.6092 37.6504 33.6596 37.7221C33.8425 38.0789 34.1334 38.3695 34.4911 38.553C34.5922 38.5783 34.6966 38.588 34.8007 38.5817Z" fill="#3C3C3B"/>
<path d="M22.0834 31.8732C22.0834 31.8732 21.9431 31.6619 22.2814 31.2894C22.6198 30.9169 22.4866 30.9026 24.5815 29.5881C26.6765 28.2736 28.7139 27.5287 29.8585 26.3324C31.0032 25.1361 31.5251 24.76 31.6115 23.7607C31.6979 22.7615 31.7807 21.8625 31.7843 21.6118C31.7879 21.361 31.4243 20.9276 31.3523 20.9563C31.2804 20.985 30.2725 21.6977 29.4014 21.6118C28.5303 21.5258 27.9363 20.7557 27.9615 19.6132C28.5087 20.1003 28.793 20.2149 29.513 20.043C29.7064 20.0096 29.8887 19.9294 30.0437 19.8095C30.1988 19.6896 30.3218 19.5336 30.4021 19.3553C30.4021 19.3553 29.225 19.3553 28.937 18.8861C28.7499 18.5122 28.6432 18.1035 28.6239 17.6863C28.6239 17.6863 29.2826 18.7607 29.9413 18.5566C30.6 18.3524 30.4884 17.9871 30.2581 17.9298C30.0277 17.8725 29.0522 17.4714 29.2826 16.5867C29.6425 16.9878 30.2617 17.4678 30.8052 17.3854C31.1652 17.3317 31.2444 17.1454 31.3739 16.4112C31.6403 14.932 32.3818 14.2622 33.0693 13.9613C33.5123 13.7714 33.9981 13.7021 34.4768 13.7607C34.4768 13.7607 36.2154 14.0258 36.8813 14.5595C36.6011 15.4544 36.3775 16.3659 36.2118 17.2887C36.0354 18.467 35.4379 20.8059 35.9634 22.9871C36.4889 25.1683 28.3215 35.8345 22.0834 31.8732Z" fill="url(#paint0_radial_7_21)"/>
<path d="M22.0258 31.9663H22.0042C22.0042 31.9377 21.8278 31.6726 22.2129 31.25L22.3245 31.1211C22.5657 30.8381 22.6845 30.6805 24.5347 29.5308C25.3086 29.0437 26.0609 28.6425 26.788 28.2557C28.0191 27.6003 29.0773 27.0344 29.7937 26.2894L30.258 25.8095C31.0715 24.9785 31.4423 24.5989 31.5143 23.7858C31.5143 23.5494 31.5539 23.3202 31.5718 23.1017C31.633 22.4212 31.6834 21.8338 31.687 21.6511C31.6387 21.444 31.5297 21.2558 31.3739 21.1103L31.3091 21.1497C30.79 21.5009 30.1887 21.713 29.5633 21.7658H29.4013C28.4402 21.6726 27.8391 20.8453 27.8679 19.6597V19.4269L28.0407 19.5809C28.451 19.9391 28.6742 20.0573 28.991 20.0573C29.1611 20.0518 29.33 20.0277 29.4949 19.9857C29.7944 19.9253 30.0595 19.7537 30.2364 19.5057C29.8764 19.4842 29.0989 19.3911 28.8542 18.9864C28.6536 18.5987 28.5406 18.1721 28.523 17.7364L28.505 17.3281L28.721 17.6862C28.865 17.9226 29.3401 18.5315 29.8009 18.5315C29.847 18.5306 29.8929 18.5246 29.9376 18.5136C30.2472 18.4169 30.3588 18.288 30.3552 18.202C30.3528 18.1757 30.3422 18.1507 30.3247 18.1308C30.3072 18.1109 30.2839 18.0969 30.258 18.091C29.8706 17.9845 29.5338 17.7446 29.3077 17.414C29.2363 17.2958 29.1901 17.1641 29.1722 17.0273C29.1542 16.8905 29.1648 16.7515 29.2033 16.6189L29.2537 16.4183L29.3905 16.5759C29.7123 16.9916 30.183 17.2675 30.7043 17.346H30.8123C31.1003 17.303 31.1723 17.1848 31.2947 16.4577C31.5179 15.2077 32.1082 14.3589 33.0513 13.9291C33.512 13.7302 34.0178 13.6572 34.5163 13.7178C34.5919 13.7178 36.2945 13.9971 36.9712 14.538L37.0288 14.5845L37.0072 14.6562C36.7311 15.5457 36.5099 16.4511 36.3449 17.3675C36.3161 17.5609 36.2765 17.7722 36.2333 18.0193C36.0029 19.2944 35.6574 21.2178 36.0929 23.0337C36.2837 23.8216 35.4378 25.5838 33.9872 27.414C31.8778 30.0752 28.433 32.9191 25.089 32.9191C23.9961 32.9077 22.9307 32.5763 22.0258 31.9663ZM34.4623 13.8754C34.0058 13.8181 33.5421 13.8836 33.1197 14.0652C32.245 14.4627 31.6798 15.2615 31.4819 16.4398C31.3523 17.1562 31.2659 17.4319 30.8231 17.5143H30.6828C30.1721 17.4574 29.7004 17.2151 29.3581 16.8338C29.3548 16.9834 29.3934 17.131 29.4697 17.26C29.6675 17.5399 29.956 17.7435 30.2868 17.8367C30.359 17.8524 30.424 17.8916 30.4715 17.9479C30.5191 18.0043 30.5465 18.0747 30.5496 18.1483C30.5496 18.2521 30.5028 18.5064 29.9772 18.6712C29.9128 18.6895 29.8462 18.6991 29.7793 18.6999C29.5795 18.6706 29.3877 18.6012 29.2157 18.4959C29.0437 18.3906 28.895 18.2516 28.7786 18.0874C28.8201 18.3508 28.9065 18.6052 29.0341 18.8395C29.2429 19.1977 30.114 19.2586 30.4056 19.2622H30.5532L30.5064 19.4019C30.4212 19.5975 30.2884 19.7691 30.12 19.901C29.9516 20.0329 29.7529 20.1211 29.5417 20.1576C29.3607 20.2055 29.1746 20.232 28.9874 20.2364C28.6474 20.2277 28.3229 20.0937 28.0767 19.8603C28.1271 20.8023 28.6346 21.4434 29.4121 21.515C29.4588 21.5187 29.5058 21.5187 29.5525 21.515C30.1379 21.4605 30.7001 21.2597 31.1867 20.9312C31.2284 20.9036 31.2716 20.8785 31.3163 20.856H31.3595C31.4341 20.8649 31.5025 20.9021 31.5503 20.9599C31.7319 21.1372 31.8506 21.3685 31.8886 21.6189C31.8886 21.8123 31.8418 22.3746 31.777 23.091C31.759 23.3059 31.7374 23.5351 31.7194 23.7715C31.6402 24.6633 31.2263 25.086 30.402 25.9205L29.9376 26.3968C29.2177 27.1669 28.1379 27.74 26.878 28.4062C26.1581 28.7894 25.4058 29.1905 24.6355 29.6705C22.8357 30.8059 22.6953 30.9635 22.4757 31.2178L22.3569 31.3539C22.1338 31.5974 22.1518 31.7478 22.1662 31.7944C23.0263 32.3409 24.0253 32.6316 25.0458 32.6325C28.3142 32.6325 31.6978 29.8317 33.7748 27.2099C35.1642 25.4549 36.0137 23.7285 35.8409 23.0122C35.391 21.1569 35.7438 19.2085 35.9777 17.9191C36.0209 17.6719 36.0605 17.4606 36.0893 17.2708C36.249 16.3675 36.4654 15.4751 36.7372 14.5988C36.0857 14.1261 34.4803 13.8754 34.4623 13.8754Z" fill="#3C3C3B"/>
<path d="M37.234 23.7034C38.4938 24.0974 40.1892 23.2772 40.218 19.8496C38.7566 19.9642 37.4068 21.164 37.234 20.5659C37.0612 19.9678 35.9417 19.1332 35.9417 19.1332C35.7668 19.7598 35.6999 20.4113 35.7438 21.0602C35.8302 22.0487 36.3341 23.4205 37.234 23.7034Z" fill="url(#paint1_linear_7_21)"/>
<path d="M37.2016 23.8073C36.2621 23.5136 35.733 22.1777 35.6358 21.0566C35.5892 20.3943 35.6586 19.7289 35.8409 19.0903L35.8841 18.9434L36.0101 19.0365C36.0569 19.0724 37.1584 19.9069 37.3384 20.5337C37.3564 20.591 37.3816 20.6232 37.4679 20.6232C37.7573 20.5696 38.0366 20.4717 38.2959 20.3331C38.896 20.0297 39.5435 19.8299 40.2108 19.7421H40.3296V19.8568C40.3044 22.8439 39.0194 23.9076 37.8099 23.9076C37.6033 23.9037 37.3984 23.8699 37.2016 23.8073ZM38.3822 20.5301C38.0978 20.685 37.7884 20.7892 37.4679 20.8381C37.3917 20.8438 37.316 20.8224 37.2541 20.7778C37.1922 20.7333 37.1481 20.6684 37.1296 20.5946C37.0036 20.1504 36.2981 19.5416 36.0065 19.3052C35.8637 19.8713 35.8114 20.4563 35.8517 21.0387C35.9237 21.9162 36.3665 23.3202 37.2664 23.6032C37.4461 23.6573 37.6329 23.685 37.8207 23.6855C38.9006 23.6855 40.0524 22.7078 40.11 19.9678C39.5094 20.0693 38.9271 20.2588 38.3822 20.5301Z" fill="#3C3C3B"/>
<path d="M36.5789 25.6984C36.5789 25.6984 37.8099 25.4119 38.0511 26.3682C38.2501 27.0885 38.2017 27.8543 37.9134 28.544C37.6252 29.2338 37.1137 29.808 36.4601 30.1755" fill="url(#paint2_linear_7_21)"/>
<path d="M36.5141 30.265C38.6991 29.0079 38.2635 26.7765 38.1555 26.3431C37.9431 25.505 37.0181 25.4871 36.5573 25.5945L36.6041 25.8023C36.6509 25.8023 37.7344 25.5516 37.9467 26.3968C38.1362 27.0942 38.0877 27.8344 37.8089 28.5014C37.5301 29.1683 37.0367 29.7244 36.4061 30.0824L36.5141 30.265Z" fill="#3C3C3B"/>
<path d="M42.5722 21.6189C42.5722 21.6189 43.3821 19.4126 43.0401 17.7865C42.6982 16.1605 41.6003 13.8288 39.8185 13.7679C37.9251 13.6999 36.1146 14.452 35.9166 16.2751C35.8385 17.1688 35.8385 18.0676 35.9166 18.9613C35.9706 19.3195 36.2585 20.8166 37.09 21.1318C37.9215 21.447 39.8761 20.1325 40.506 20.0573C41.136 19.9821 42.3994 20.9348 42.5722 21.6189Z" fill="url(#paint3_radial_7_21)"/>
<path d="M42.4534 21.6476C42.2951 21.0208 41.0892 20.0788 40.5061 20.154C40.1489 20.2568 39.8037 20.3973 39.4766 20.5731C38.7567 20.9098 37.9648 21.2894 37.378 21.2894C37.263 21.2914 37.1484 21.2732 37.0397 21.2357C36.2046 20.9205 35.8914 19.5559 35.7942 18.9828C35.7146 18.0796 35.7146 17.1711 35.7942 16.2679C36.0066 14.341 37.8856 13.6569 39.5738 13.6569H39.8077C41.7587 13.7249 42.8134 16.2679 43.1302 17.7579C43.4901 19.3983 42.691 21.5616 42.6586 21.6547L42.5398 21.9807L42.4534 21.6476ZM36.0066 16.2751C35.9286 17.1604 35.9286 18.0509 36.0066 18.9363C36.0786 19.3553 36.3666 20.7271 37.1153 21.0244C37.2001 21.0519 37.2889 21.0652 37.378 21.0638C37.9144 21.0638 38.7315 20.6805 39.3866 20.3689C39.7275 20.1804 40.0901 20.0337 40.4665 19.932C41.064 19.8496 42.1511 20.6196 42.5362 21.3037C42.7342 20.6698 43.1733 19.0473 42.8962 17.7973C42.6154 16.4649 41.6003 13.9291 39.779 13.8575H39.5738C37.9936 13.8718 36.219 14.5057 36.021 16.2858L36.0066 16.2751Z" fill="#3C3C3B"/>
<path d="M18.9842 28.3596C16.2305 26.9269 11.1371 24.846 10.8348 25.6733C10.5324 26.5007 13.592 28.2199 14.5819 28.6318L22.2958 32.1812L23.4585 31.447L21.9862 29.9534L18.9842 28.3596Z" fill="url(#paint4_linear_7_21)"/>
<path d="M14.5387 28.7178C13.664 28.3596 10.3668 26.5688 10.734 25.6232C10.7988 25.4513 10.9931 25.3653 11.3099 25.3653C12.7065 25.3653 16.7093 27.0308 19.0346 28.2307L22.0438 29.8388L23.6349 31.4506L22.2958 32.2994L14.5387 28.7178ZM21.9359 30.0394L18.941 28.4384C16.6229 27.2457 12.6813 25.5945 11.3171 25.5945C11.1047 25.5945 10.9571 25.6339 10.9571 25.7127C10.698 26.3897 13.4265 28.0229 14.6467 28.5351L22.3138 32.0594L23.3181 31.4291L21.9359 30.0394Z" fill="#3C3C3B"/>
<path d="M24.4159 33.4491C24.4086 33.572 24.3697 33.6908 24.3029 33.7944C24.2361 33.8979 24.1436 33.9825 24.0343 34.0401C23.6744 34.212 22.4865 35.5552 22.4577 35.6984C22.4289 35.8417 23.1776 35.7521 23.2892 35.6984C23.4008 35.6447 22.0545 37.7221 22.0833 38.3238C22.1409 38.4671 22.4433 38.7536 23.03 38.3238C23.6168 37.894 25.7009 36.6691 26.5324 36.4685C27.3412 36.7117 28.1821 36.8324 29.0269 36.8267C30.1356 36.8929 31.2433 36.6821 32.2492 36.2136C33.2551 35.745 34.1272 35.0336 34.7862 34.144C36.6796 31.601 36.946 29.7099 36.946 27.8582C36.946 26.2034 36.982 26.0494 36.6472 24.8675C36.3125 23.6855 35.7221 22.6898 35.7329 20.9456" fill="url(#paint5_radial_7_21)"/>
<path d="M22.4722 38.6569C22.7013 38.6441 22.9199 38.5573 23.0949 38.4097C23.6493 37.9943 25.6902 36.7944 26.5289 36.5795C27.3393 36.8211 28.1811 36.9418 29.027 36.9377C31.5215 36.9914 33.4941 36.0781 34.8835 34.212C36.8885 31.5222 37.0433 29.5236 37.0433 27.8617C37.0433 27.697 37.0433 27.5465 37.0433 27.4069C37.1054 26.5407 37.0029 25.6707 36.7409 24.8424C36.6473 24.5165 36.5357 24.2013 36.4277 23.8968C36.0408 22.9614 35.8379 21.9607 35.8302 20.9491H35.6142C35.6218 21.985 35.8283 23.0098 36.2226 23.9685C36.3378 24.2837 36.4421 24.5845 36.5321 24.8997C36.7899 25.7091 36.89 26.5601 36.8273 27.4069V27.8617C36.8273 29.4878 36.6617 31.4434 34.6964 34.0831C33.3501 35.8739 31.4387 36.7801 29.0162 36.7263C28.1798 36.7294 27.3476 36.6087 26.5469 36.3682H26.5181H26.4929C25.6326 36.5723 23.5377 37.8008 22.9509 38.2414C22.8726 38.3153 22.7785 38.3708 22.6757 38.4036C22.5729 38.4365 22.464 38.4459 22.357 38.4312C22.3198 38.423 22.2846 38.4073 22.2537 38.3852C22.2227 38.363 22.1967 38.3348 22.177 38.3023C22.177 37.9083 22.789 36.8266 23.1201 36.2428C23.4513 35.659 23.4261 35.6984 23.3577 35.6268L23.3037 35.5695L23.2245 35.6053C23.0142 35.6584 22.7968 35.6789 22.5802 35.6662C22.7782 35.3761 23.7644 34.2801 24.0668 34.1404C24.195 34.0761 24.3035 33.9787 24.3807 33.8583C24.458 33.7379 24.5013 33.5991 24.506 33.4563H24.2936C24.2889 33.5591 24.2572 33.6588 24.2016 33.7456C24.146 33.8323 24.0685 33.903 23.9768 33.9506C23.3367 34.4337 22.782 35.0196 22.3354 35.6841C22.3303 35.7109 22.333 35.7387 22.3432 35.7641C22.3534 35.7895 22.3707 35.8114 22.393 35.8274C22.6183 35.9028 22.8606 35.9128 23.0913 35.856C23.0445 35.9384 22.9869 36.0387 22.9329 36.1425C22.429 37.0308 21.9431 37.9334 21.9611 38.3345V38.3524V38.3703C21.9925 38.4367 22.0381 38.4954 22.0947 38.5424C22.1513 38.5894 22.2174 38.6235 22.2886 38.6425C22.3489 38.6551 22.4106 38.6599 22.4722 38.6569Z" fill="#3C3C3B"/>
<path d="M33.8145 14.7958C33.9412 14.4216 34.1351 14.0733 34.3868 13.7679C34.4509 13.6773 34.5422 13.6091 34.6475 13.5731C34.7529 13.5371 34.8669 13.5351 34.9735 13.5673C35.6358 13.8252 35.7798 14.5666 35.895 14.9391" fill="#498632"/>
<path d="M35.7834 14.9713L35.9885 14.9069C35.9885 14.8675 35.9633 14.8245 35.9525 14.7779C35.8374 14.3804 35.6466 13.7034 35.0059 13.467C34.8776 13.4204 34.7375 13.4173 34.6073 13.4581C34.4772 13.4989 34.3642 13.5814 34.2859 13.6927C34.0245 14.0123 33.8233 14.3763 33.692 14.7672L33.8972 14.8388C34.0175 14.4796 34.2016 14.1448 34.4407 13.8503C34.6891 13.5888 34.8583 13.6533 34.9159 13.6748C35.4558 13.8861 35.6358 14.4627 35.7294 14.846C35.7582 14.8854 35.769 14.9284 35.7834 14.9713Z" fill="#3C3C3B"/>
<path d="M35.7366 28.1984C36.003 28.1984 36.219 27.919 36.3558 27.6039C36.3808 27.7181 36.4336 27.8245 36.5095 27.9138C36.5855 28.0031 36.6822 28.0725 36.7913 28.116L36.8489 27.9119C36.6293 27.851 36.4673 27.4248 36.5177 27.0344L36.3054 27.0057C36.2442 27.4498 35.9814 27.9763 35.7294 27.9871C35.7047 27.987 35.6802 27.9815 35.6578 27.971C35.6354 27.9605 35.6156 27.9452 35.5998 27.9262C35.3982 27.5748 35.3257 27.1645 35.3947 26.7657L35.1787 26.7407C35.1103 27.1454 34.9195 27.6325 34.6064 27.6826C34.5922 27.6817 34.5784 27.6777 34.566 27.6709C34.5535 27.6641 34.5427 27.6547 34.5344 27.6433C34.3322 27.3762 34.2076 27.059 34.1744 26.7263L33.962 26.755C33.962 26.841 34.0916 27.5931 34.3904 27.8295C34.4244 27.8553 34.4633 27.874 34.5047 27.8845C34.5462 27.895 34.5893 27.897 34.6316 27.8904C34.7558 27.8604 34.871 27.8011 34.9675 27.7176C35.0639 27.6341 35.1388 27.5287 35.1859 27.4104C35.1999 27.6507 35.2878 27.8808 35.4379 28.0695C35.4752 28.1114 35.5213 28.1446 35.5729 28.1669C35.6245 28.1892 35.6804 28.1999 35.7366 28.1984Z" fill="#3C3C3B"/>
<path d="M36.1938 29.9821C36.9389 29.957 36.9857 29.1655 37.0109 28.7392V28.6461H36.7985V28.7392C36.7697 29.255 36.6977 29.76 36.1974 29.7815C35.625 29.7206 35.589 29.2837 35.5962 28.8395C35.5962 28.8073 35.5962 28.7786 35.5962 28.75L35.3803 28.7321C35.2615 29.4162 35.1247 29.7314 34.6603 29.6812C34.3004 29.6418 34.3004 28.9649 34.3004 28.6927C34.3004 28.5673 34.3004 28.5351 34.2788 28.4957L34.1024 28.6175C34.099 28.6058 34.099 28.5934 34.1024 28.5817C34.1024 28.5817 34.1024 28.6461 34.1024 28.6891C34.1024 29.0473 34.0808 29.8352 34.6351 29.8961C34.8039 29.9264 34.9779 29.8929 35.1231 29.8021C35.2683 29.7113 35.3741 29.5699 35.4198 29.4054C35.4629 29.5716 35.5594 29.7193 35.6945 29.826C35.8297 29.9326 35.9961 29.9925 36.1686 29.9964L36.1938 29.9821Z" fill="#3C3C3B"/>
<path d="M34.6135 22.0093C34.8231 22.0128 35.0309 21.97 35.2218 21.884C35.3748 21.8075 35.508 21.697 35.611 21.5609C35.714 21.4249 35.7841 21.267 35.8158 21.0996C36.1757 19.6454 35.2794 19.212 34.9483 19.0509L34.8943 19.0258C34.789 18.9774 34.6808 18.9355 34.5703 18.9004C34.1744 18.7572 33.512 18.5423 33.4364 18.2235L33.2277 18.2736C33.332 18.6855 34.034 18.9363 34.4983 19.101C34.6279 19.1476 34.7395 19.187 34.7971 19.2156L34.8511 19.2443C35.1714 19.3983 35.9309 19.76 35.6034 21.0351C35.5795 21.1713 35.5242 21.3001 35.4417 21.4114C35.3593 21.5226 35.252 21.6133 35.1282 21.6762C34.4911 21.9771 33.4904 21.5115 33.4796 21.5079L33.3896 21.7013C33.7727 21.8847 34.1889 21.9895 34.6135 22.0093Z" fill="#3C3C3B"/>
<path d="M33.9224 16.9771C33.9224 18.0516 34.2823 18.9004 34.7503 18.9004C35.2182 18.9004 35.5818 18.0372 35.5818 16.9771C35.5818 15.9169 35.2218 15.0501 34.7503 15.0501C34.2787 15.0501 33.9224 15.9133 33.9224 16.9771Z" fill="white"/>
<path d="M34.034 17.6146C34.034 18.0874 34.2572 18.467 34.4875 18.4563C34.7179 18.4455 34.8979 18.0587 34.8799 17.5824C34.8619 17.106 34.6603 16.7299 34.4263 16.7407C34.1924 16.7514 34.016 17.1454 34.034 17.6146Z" fill="#1D1D1B"/>
<path d="M40.8552 15.9814C41.1612 16.3395 41.5572 16.515 41.7335 16.3646C41.9099 16.2142 41.8091 15.7987 41.5032 15.437C41.1972 15.0752 40.7832 14.8997 40.6213 15.0501C40.4593 15.2006 40.5457 15.616 40.8552 15.9814Z" fill="url(#paint6_radial_7_21)"/>
<path d="M34.3472 17.6146C34.3472 17.7615 34.4192 17.8797 34.5056 17.8797C34.5919 17.8797 34.6675 17.7615 34.6675 17.6146C34.6675 17.4678 34.5955 17.3496 34.5056 17.3496C34.4156 17.3496 34.3472 17.457 34.3472 17.6146Z" fill="#706F6F"/>
<path d="M23.9192 29.9857C23.9192 29.9857 21.0215 27.8152 19.7293 27.0451C18.437 26.2751 15.9389 25.0179 15.2262 25.0179C14.9671 25.0179 13.9628 25.0179 14.7079 25.6734C15.453 26.3288 22.8177 30.7557 22.8177 30.7557" fill="url(#paint7_linear_7_21)"/>
<path d="M22.7601 30.8668L22.8717 30.6841C22.7997 30.6375 15.5106 26.2536 14.7799 25.6125C14.5243 25.3868 14.5423 25.2973 14.5495 25.2794C14.5567 25.2615 14.6467 25.1433 15.2262 25.1433C15.8849 25.1433 18.3003 26.336 19.6753 27.1562C20.9459 27.9155 23.8256 30.0681 23.8544 30.0895L23.984 29.9176C23.9552 29.8961 21.0683 27.7364 19.7869 26.9699C18.5594 26.2536 15.9857 24.9284 15.2262 24.9284C14.8663 24.9284 14.4415 24.9606 14.3479 25.2042C14.2867 25.3618 14.3803 25.5623 14.6359 25.7736C15.381 26.4112 22.4614 30.6662 22.7601 30.8668Z" fill="#3C3C3B"/>
<path d="M22.123 31.5079C22.123 31.5079 17.1232 29.0759 15.2551 28.6139C13.3869 28.1519 11.7815 27.303 11.3783 28.3882C11.1515 28.9291 14.9779 30.2149 16.2881 30.7271C17.5984 31.2392 20.55 32.2994 21.5759 32.4427" fill="url(#paint8_linear_7_21)"/>
<path d="M21.5435 32.5466L21.5723 32.3352C20.5968 32.1956 17.638 31.1497 16.3277 30.6304L15.3702 30.2722C14.078 29.7923 11.6699 28.8968 11.4827 28.4814C11.4827 28.4814 11.4827 28.4563 11.4827 28.4491C11.7419 27.7543 12.5374 27.9549 13.9232 28.3739C14.3408 28.5029 14.7763 28.6318 15.2335 28.7321C17.0692 29.1619 22.0295 31.5974 22.0727 31.5974L22.1662 31.4076C21.9647 31.3073 17.1268 28.947 15.2767 28.5064C14.8231 28.4026 14.3948 28.2701 13.9772 28.1483C12.6562 27.7507 11.6159 27.4319 11.2739 28.3488C11.2489 28.4121 11.2489 28.4825 11.2739 28.5458C11.4827 29.0222 13.2141 29.6991 15.2839 30.4692C15.6654 30.6089 16.0038 30.7307 16.2377 30.8274C17.6164 31.3682 20.5356 32.4033 21.5435 32.5466Z" fill="#3C3C3B"/>
<path d="M29.8549 26.3324C28.7102 27.5286 26.6692 28.2736 24.5779 29.5881C22.4865 30.9026 22.6161 30.9133 22.2777 31.2894C21.9394 31.6655 22.0798 31.8732 22.0798 31.8732C27.274 35.3725 35.301 27.3102 32.8065 26.5007" fill="url(#paint9_linear_7_21)"/>
<path d="M25.0422 32.851C26.6519 32.79 28.2146 32.2948 29.5633 31.4183C31.7554 30.0967 33.5012 28.0731 33.3788 27.0022C33.366 26.8553 33.308 26.716 33.2126 26.6032C33.1173 26.4904 32.9893 26.4096 32.8461 26.3718L32.7777 26.5759C32.8811 26.6014 32.974 26.6581 33.0436 26.7383C33.1133 26.8185 33.1562 26.9182 33.1665 27.0236C33.2673 27.8976 31.7626 29.8388 29.4517 31.2321C28.1703 32.0057 24.9019 33.5996 22.1698 31.7837C22.1698 31.7407 22.1374 31.5903 22.3606 31.3431L22.4793 31.207C22.6953 30.9527 22.8393 30.7951 24.6391 29.6598C25.4094 29.1798 26.1581 28.7787 26.8816 28.3954C28.1271 27.7292 29.2033 27.1562 29.9413 26.3861L29.7865 26.2393C29.0666 26.9842 28.0119 27.5502 26.7808 28.2056C26.0609 28.5924 25.3014 28.9936 24.5275 29.4807C22.6881 30.6304 22.5585 30.788 22.3174 31.0709L22.2058 31.1999C21.8206 31.6225 21.979 31.8875 21.997 31.9162C22.8916 32.5314 23.9548 32.8577 25.0422 32.851Z" fill="#3C3C3B"/>
<path d="M27.8211 29.3016C27.8211 29.3016 21.8566 31.8087 21.6226 32.2135C21.3887 32.6182 21.889 32.7722 22.033 32.7686C23.0632 32.5064 24.0707 32.1627 25.0458 31.7407C26.1545 31.1963 27.7131 30.5945 27.7131 30.5945" fill="url(#paint10_linear_7_21)"/>
<path d="M22.0294 32.8761H22.0582C23.0968 32.6116 24.1127 32.2655 25.0962 31.841C26.1761 31.3073 27.7383 30.7056 27.7527 30.6984L27.6735 30.4979C27.6735 30.4979 26.0969 31.1103 24.9991 31.6476C24.0342 32.0645 23.0376 32.4046 22.0186 32.6648C21.8915 32.6513 21.775 32.5882 21.6947 32.4893C21.6947 32.4678 21.6407 32.3997 21.7162 32.2708C21.9106 31.995 25.5894 30.3653 27.8643 29.4054L27.7815 29.2085C26.7773 29.6347 21.7702 31.7658 21.5327 32.1669C21.4867 32.2289 21.4599 32.3029 21.4554 32.3799C21.4509 32.4568 21.469 32.5334 21.5075 32.6003C21.5677 32.6827 21.646 32.7504 21.7364 32.7982C21.8268 32.846 21.9271 32.8726 22.0294 32.8761Z" fill="#3C3C3B"/>
<path d="M27.6951 30.548C27.6951 30.548 21.0215 32.6612 21.1295 33.1734C21.2375 33.6855 22.2093 34.0795 23.822 33.7607C25.4346 33.442 29.2861 31.5222 30.2184 30.8954" fill="url(#paint11_linear_7_21)"/>
<path d="M22.7025 33.9828C23.0799 33.9799 23.456 33.9403 23.8256 33.8646C25.4526 33.5423 29.315 31.6189 30.2616 30.9993L30.1429 30.8202C29.2034 31.4363 25.3878 33.3274 23.7824 33.6569C22.177 33.9864 21.3167 33.5673 21.2195 33.1662C21.3779 32.8295 24.6319 31.6261 27.6988 30.659L27.6304 30.4549C27.6304 30.4549 25.9422 30.9921 24.3044 31.5795C20.9064 32.7937 20.9603 33.0516 20.9927 33.2056C21.0971 33.639 21.6947 33.9828 22.7025 33.9828Z" fill="#3C3C3B"/>
<path d="M28.2387 31.2249L28.3431 31.0351C28.1876 30.9523 28.0395 30.8564 27.9004 30.7486C27.8386 30.6862 27.7962 30.6074 27.7783 30.5216C27.7604 30.4358 27.7678 30.3467 27.7996 30.265C27.9868 29.8818 28.8578 29.6991 29.1566 29.6956L29.189 29.4878C28.8291 29.366 28.6455 29.2192 28.6347 29.0759C28.6239 28.9327 28.883 28.6891 28.9946 28.6354L28.8866 28.4491C28.8363 28.4778 28.4007 28.7428 28.4331 29.0938C28.449 29.1893 28.4886 29.2792 28.5483 29.3555C28.608 29.4319 28.686 29.4921 28.7751 29.5308C28.3575 29.6132 27.7996 29.8066 27.6196 30.1719C27.5676 30.2909 27.5525 30.4227 27.5762 30.5503C27.6 30.6779 27.6614 30.7956 27.7528 30.8883C27.905 31.0138 28.0676 31.1264 28.2387 31.2249Z" fill="#3C3C3B"/>
<path d="M28.1631 28.4599C28.0294 28.5387 27.9159 28.6474 27.8316 28.7773C27.7473 28.9072 27.6944 29.0548 27.6771 29.2085C27.6771 29.692 28.2171 29.7744 28.2171 29.7744" fill="#4E8832"/>
<path d="M28.2026 29.8818L28.2314 29.6705C28.2314 29.6705 27.7707 29.5917 27.7851 29.212C27.8014 29.0766 27.8488 28.9466 27.9237 28.8323C27.9986 28.718 28.099 28.6225 28.217 28.553L28.109 28.3668C27.9595 28.4548 27.8328 28.5765 27.739 28.722C27.6452 28.8675 27.5871 29.0329 27.5691 29.2049C27.572 29.3756 27.6383 29.5393 27.7553 29.6643C27.8723 29.7893 28.0316 29.8668 28.2026 29.8818Z" fill="#3C3C3B"/>
<path d="M40.4268 14.9821L40.3008 15.7092H39.2858L40.4268 14.9821Z" fill="url(#paint12_radial_7_21)"/>
<path fill-rule="evenodd" clip-rule="evenodd" d="M8.0846 27.2278C8.08483 22.2647 9.64225 17.4256 12.5395 13.3856C15.4368 9.34569 19.5293 6.30654 24.246 4.69231C28.9626 3.07809 34.0681 2.96933 38.8499 4.38121C43.6317 5.7931 47.8512 8.65518 50.9195 12.568C49.3515 9.66065 47.1938 7.10893 44.583 5.07447C41.9723 3.04001 38.9654 1.56715 35.7528 0.749141C32.5403 -0.0688644 29.192 -0.214186 25.92 0.322386C22.6481 0.858959 19.5237 2.06574 16.7449 3.86628C13.966 5.66683 11.5932 8.02192 9.7767 10.7824C7.96018 13.5429 6.73954 16.6486 6.19207 19.903C5.6446 23.1573 5.78224 26.4892 6.59627 29.6879C7.4103 32.8865 8.88299 35.8821 10.9211 38.4849C9.0544 35.0237 8.07981 31.1558 8.0846 27.2278Z" fill="url(#paint13_linear_7_21)"/>
<path fill-rule="evenodd" clip-rule="evenodd" d="M27.0148 7.65402C31.9755 7.1411 36.9734 8.18208 41.3109 10.6317C45.6484 13.0813 49.1091 16.8173 51.2099 21.3182C53.3106 25.8191 53.9467 30.8603 53.0293 35.7383C52.1119 40.6162 49.6868 45.0875 46.0925 48.528C48.8424 46.6782 51.1757 44.28 52.9446 41.4853C54.7134 38.6906 55.879 35.5606 56.3675 32.2938C56.856 29.0271 56.6567 25.6949 55.7822 22.5089C54.9077 19.3229 53.3772 16.3525 51.2877 13.7863C49.1982 11.2202 46.5954 9.1142 43.6444 7.60212C40.6935 6.09003 37.4589 5.20485 34.1459 5.00273C30.8329 4.80062 27.5138 5.28598 24.3993 6.42803C21.2849 7.57008 18.443 9.34387 16.0541 11.6368C19.3191 9.42523 23.0858 8.05653 27.0148 7.65402Z" fill="url(#paint14_linear_7_21)"/>
<path fill-rule="evenodd" clip-rule="evenodd" d="M49.1702 25.5552C49.6856 30.4912 48.6394 35.4642 46.1776 39.7801C43.7157 44.0961 39.9611 47.5395 35.4377 49.6298C30.9142 51.7201 25.8478 52.3531 20.9454 51.4402C16.0431 50.5274 11.5495 48.1144 8.0918 44.538C9.95075 47.2741 12.361 49.5959 15.1697 51.3559C17.9784 53.1159 21.1241 54.2758 24.4071 54.7618C27.6902 55.2479 31.039 55.0496 34.241 54.1794C37.443 53.3093 40.4282 51.7863 43.0072 49.7072C45.5862 47.6281 47.7027 45.0383 49.2223 42.102C50.742 39.1658 51.6316 35.9473 51.8347 32.6508C52.0378 29.3542 51.55 26.0517 50.4023 22.9527C49.2545 19.8537 47.4719 17.026 45.1674 14.649C47.3886 17.8985 48.764 21.6461 49.1702 25.5552Z" fill="url(#paint15_linear_7_21)"/>
<path fill-rule="evenodd" clip-rule="evenodd" d="M23.1057 47.5752C18.2124 46.6163 13.742 44.1611 10.3185 40.5524C6.89507 36.9437 4.68932 32.3615 4.00916 27.4453C3.32899 22.5292 4.20833 17.5244 6.52446 13.1294C8.84059 8.7345 12.4779 5.16874 16.9288 2.92981C13.7623 3.90119 10.8328 5.51588 8.32562 7.67175C5.81847 9.82762 3.78825 12.4777 2.36337 15.4545C0.938491 18.4312 0.149965 21.6698 0.0476698 24.9654C-0.0546251 28.2609 0.531537 31.5418 1.76908 34.6003C3.00662 37.6589 4.86861 40.4286 7.23727 42.7343C9.60592 45.0401 12.4297 46.8316 15.53 47.9955C18.6303 49.1595 21.9396 49.6706 25.2486 49.4966C28.5576 49.3225 31.7943 48.467 34.7539 46.9842C30.9799 48.1361 26.9779 48.3391 23.1057 47.5752Z" fill="url(#paint16_linear_7_21)"/>
</g>
<defs>
<radialGradient id="paint0_radial_7_21" cx="0" cy="0" r="1" gradientUnits="userSpaceOnUse" gradientTransform="translate(33.5625 19.3875) rotate(180) scale(5.44976 5.42264)">
<stop stop-color="#AAC811"/>
<stop offset="0.45" stop-color="#498632"/>
<stop offset="1" stop-color="#508931"/>
</radialGradient>
<linearGradient id="paint1_linear_7_21" x1="37.6515" y1="20.5731" x2="39.7689" y2="23.402" gradientUnits="userSpaceOnUse">
<stop stop-color="#72100C"/>
<stop offset="0.15" stop-color="#7A0F0C"/>
<stop offset="0.39" stop-color="#8F0D0E"/>
<stop offset="0.67" stop-color="#B20A10"/>
<stop offset="0.99" stop-color="#E20613"/>
<stop offset="1" stop-color="#E30613"/>
</linearGradient>
<linearGradient id="paint2_linear_7_21" x1="39.041" y1="27.26" x2="35.3791" y2="28.2506" gradientUnits="userSpaceOnUse">
<stop stop-color="#DEDC00"/>
<stop offset="0.72" stop-color="#498632"/>
<stop offset="1" stop-color="#508931"/>
</linearGradient>
<radialGradient id="paint3_radial_7_21" cx="0" cy="0" r="1" gradientUnits="userSpaceOnUse" gradientTransform="translate(40.5672 16.9055) rotate(180) scale(5.03581 5.01074)">
<stop stop-color="#E30613"/>
<stop offset="0.2" stop-color="#DE0713"/>
<stop offset="0.44" stop-color="#D00914"/>
<stop offset="0.69" stop-color="#B90D15"/>
<stop offset="0.95" stop-color="#981316"/>
<stop offset="1" stop-color="#921416"/>
</radialGradient>
<linearGradient id="paint4_linear_7_21" x1="23.4657" y1="28.8324" x2="10.8096" y2="28.8324" gradientUnits="userSpaceOnUse">
<stop offset="0.49" stop-color="#498632"/>
<stop offset="1" stop-color="#95C11F"/>
</linearGradient>
<radialGradient id="paint5_radial_7_21" cx="0" cy="0" r="1" gradientUnits="userSpaceOnUse" gradientTransform="translate(38.4254 29.2622) rotate(180) scale(10.0176 9.96777)">
<stop stop-color="#DEDC00"/>
<stop offset="0.72" stop-color="#498632"/>
<stop offset="1" stop-color="#508931"/>
</radialGradient>
<radialGradient id="paint6_radial_7_21" cx="0" cy="0" r="1" gradientUnits="userSpaceOnUse" gradientTransform="translate(40.4953 14.7781) rotate(140.408) scale(0.374063 0.715897)">
<stop stop-color="white"/>
<stop offset="0.14" stop-color="#FFFBFB"/>
<stop offset="0.26" stop-color="#FDF0F1"/>
<stop offset="0.39" stop-color="#FBDDDF"/>
<stop offset="0.51" stop-color="#F8C2C5"/>
<stop offset="0.63" stop-color="#F4A0A5"/>
<stop offset="0.75" stop-color="#F0757D"/>
<stop offset="0.87" stop-color="#EA434D"/>
<stop offset="0.99" stop-color="#E40B18"/>
<stop offset="1" stop-color="#E30613"/>
</radialGradient>
<linearGradient id="paint7_linear_7_21" x1="23.9192" y1="27.8868" x2="14.4343" y2="27.8868" gradientUnits="userSpaceOnUse">
<stop offset="0.49" stop-color="#498632"/>
<stop offset="1" stop-color="#95C11F"/>
</linearGradient>
<linearGradient id="paint8_linear_7_21" x1="22.123" y1="30.154" x2="11.3675" y2="30.154" gradientUnits="userSpaceOnUse">
<stop offset="0.49" stop-color="#498632"/>
<stop offset="1" stop-color="#95C11F"/>
</linearGradient>
<linearGradient id="paint9_linear_7_21" x1="33.2781" y1="29.5415" x2="22.051" y2="29.5415" gradientUnits="userSpaceOnUse">
<stop offset="0.49" stop-color="#498632"/>
<stop offset="1" stop-color="#95C11F"/>
</linearGradient>
<linearGradient id="paint10_linear_7_21" x1="27.8211" y1="31.0351" x2="21.5615" y2="31.0351" gradientUnits="userSpaceOnUse">
<stop offset="0.49" stop-color="#498632"/>
<stop offset="1" stop-color="#95C11F"/>
</linearGradient>
<linearGradient id="paint11_linear_7_21" x1="30.2004" y1="32.2099" x2="21.1079" y2="32.2099" gradientUnits="userSpaceOnUse">
<stop offset="0.49" stop-color="#498632"/>
<stop offset="1" stop-color="#95C11F"/>
</linearGradient>
<radialGradient id="paint12_radial_7_21" cx="0" cy="0" r="1" gradientUnits="userSpaceOnUse" gradientTransform="translate(40.0705 15.4764) rotate(180) scale(0.67312 0.66977)">
<stop stop-color="#520A00"/>
<stop offset="0.22" stop-color="#550A00"/>
<stop offset="0.38" stop-color="#5F0A02"/>
<stop offset="0.53" stop-color="#6F0904"/>
<stop offset="0.67" stop-color="#860907"/>
<stop offset="0.8" stop-color="#A4080B"/>
<stop offset="0.92" stop-color="#C8070F"/>
<stop offset="1" stop-color="#E30613"/>
</radialGradient>
<linearGradient id="paint13_linear_7_21" x1="33.7604" y1="-4.9642" x2="22.7454" y2="39.9503" gradientUnits="userSpaceOnUse">
<stop offset="0.37" stop-color="#9AC328"/>
<stop offset="1" stop-color="white"/>
</linearGradient>
<linearGradient id="paint14_linear_7_21" x1="45.3186" y1="27.2206" x2="19.2298" y2="-3.67067" gradientUnits="userSpaceOnUse">
<stop stop-color="#004E9E"/>
<stop offset="0.43" stop-color="#009FE3"/>
<stop offset="1" stop-color="white"/>
</linearGradient>
<linearGradient id="paint15_linear_7_21" x1="43.8464" y1="34.8245" x2="87.6244" y2="34.8245" gradientUnits="userSpaceOnUse">
<stop stop-color="#D1461C"/>
<stop offset="0.56" stop-color="#FFED00"/>
<stop offset="1" stop-color="white"/>
</linearGradient>
<linearGradient id="paint16_linear_7_21" x1="2.00398e-05" y1="26.2393" x2="34.7539" y2="26.2393" gradientUnits="userSpaceOnUse">
<stop stop-color="#D7771A"/>
<stop offset="0.56" stop-color="#FFED00"/>
<stop offset="1" stop-color="white"/>
</linearGradient>
<clipPath id="clip0_7_21">
<rect width="190" height="55" fill="white"/>
</clipPath>
</defs>
</svg>
