<svg width="259" height="75" viewBox="0 0 259 75" fill="none" xmlns="http://www.w3.org/2000/svg">
<g clip-path="url(#clip0_7_223)">
<path d="M105.521 16.6057C105.521 16.6057 114.353 16.3273 117.179 16.6057C117.042 18.7058 116.762 22.5936 117.179 23.3066C116.639 23.3066 111.993 23.5118 111.993 23.5118C111.993 23.5118 112.061 32.899 112.572 34.6719H105.295C104.88 28.6536 104.955 22.6118 105.521 16.6057Z" fill="#95C11F"/>
<path d="M128.685 15.8926C123.317 15.8926 118.965 20.3566 118.965 25.861C118.965 31.3654 123.317 35.8245 128.685 35.8245C134.053 35.8245 138.411 31.3654 138.411 25.861C138.411 20.3566 134.058 15.8926 128.685 15.8926ZM131.369 31.5754C130.964 31.5754 130.567 31.4556 130.23 31.2313C129.893 31.007 129.63 30.6881 129.475 30.3151C129.319 29.9421 129.279 29.5316 129.358 29.1355C129.437 28.7395 129.632 28.3758 129.919 28.0902C130.206 27.8047 130.571 27.6103 130.969 27.5315C131.367 27.4527 131.78 27.4932 132.154 27.6477C132.529 27.8022 132.849 28.0639 133.075 28.3996C133.3 28.7353 133.42 29.1301 133.42 29.5338C133.42 30.0753 133.204 30.5946 132.82 30.9774C132.435 31.3603 131.913 31.5754 131.369 31.5754Z" fill="#95C11F"/>
<path d="M167.027 15.8926C161.659 15.8926 157.307 20.3566 157.307 25.861C157.307 31.3654 161.659 35.8245 167.027 35.8245C172.395 35.8245 176.752 31.3654 176.752 25.861C176.752 20.3566 172.395 15.8926 167.027 15.8926ZM169.711 31.5754C169.305 31.5754 168.909 31.4556 168.572 31.2313C168.234 31.007 167.971 30.6881 167.816 30.3151C167.661 29.9421 167.62 29.5316 167.7 29.1355C167.779 28.7395 167.974 28.3758 168.261 28.0902C168.548 27.8047 168.913 27.6103 169.311 27.5315C169.709 27.4527 170.121 27.4932 170.496 27.6477C170.871 27.8022 171.191 28.0639 171.417 28.3996C171.642 28.7353 171.762 29.1301 171.762 29.5338C171.762 30.0753 171.546 30.5946 171.161 30.9774C170.777 31.3603 170.255 31.5754 169.711 31.5754Z" fill="#95C11F"/>
<path d="M194.039 24.7378C194.039 15.1455 179.809 16.5081 179.809 16.5081C177.42 18.9502 178.956 35.009 178.956 35.009H186.316C186.183 34.2811 186.138 33.5399 186.183 32.8014C186.556 32.6305 194.039 32.733 194.039 24.7378ZM185.634 30.2812V27.5608C185.634 27.5608 187.14 27.5608 187.106 28.7183C187.1 29.1144 186.945 29.494 186.673 29.7831C186.401 30.0721 186.03 30.2497 185.634 30.2812Z" fill="#95C11F"/>
<path d="M208.323 15.2822L214.235 18.8867C214.235 18.8867 206.787 32.8112 202.518 37.0164C198.141 34.296 196.502 33.1091 196.502 33.1091L200.771 27.7708C200.771 27.7708 195.545 21.3727 194.77 18.159C196.551 17.2408 200.619 15.3018 200.619 15.3018L204.495 21.7634L208.323 15.2822Z" fill="#95C11F"/>
<path d="M216.389 17.6264C216.389 17.6264 214.294 23.6876 215.992 34.2763C220.148 34.2763 236.645 35.5315 237.091 35.5315C237.538 35.5315 237.533 18.6716 237.341 17.1038C236.964 17.0452 232.621 15.834 229.849 16.4396C229.849 18.4861 229.093 23.3115 229.913 28.01C227.832 28.01 220.717 28.3861 220.717 28.3861C220.717 28.3861 220.227 20.9281 221.914 17.4213C220.84 17.4213 216.389 17.6264 216.389 17.6264Z" fill="#95C11F"/>
<path d="M224.304 14.9746C224.304 14.9746 221.91 19.087 222.793 26.1494C224.384 26.7005 226.002 27.1716 227.641 27.5609L229.024 17.3043L224.304 14.9746Z" fill="#95C11F"/>
<path d="M251.061 14.9746C251.061 14.9746 259.186 27.136 258.995 29.451C258.303 30.3937 252.508 35.5317 252.508 35.5317C252.508 35.5317 249.991 28.0493 249.172 27.5609C246.846 30.2667 244.515 33.6513 243.887 36.0348C241.924 34.1544 238.342 29.9541 238.342 29.9541C238.342 29.9541 249.235 15.717 251.061 14.9746Z" fill="#95C11F"/>
<path d="M246.973 31.9617L250.119 31.0825L250.688 34.3451L247.474 35.1558L246.973 31.9617Z" fill="#95C11F"/>
<path d="M156.006 22.6963C155.835 20.181 152.694 16.347 147.979 16.2005C145.15 16.1172 142.401 17.1433 140.324 19.0577V33.4462C143.16 36.9139 150.059 37.0849 152.042 35.0091C154.402 32.8308 152.768 30.3937 152.454 29.9785C156.041 27.8344 156.178 25.2165 156.006 22.6963ZM147.483 32.6599V31.0774C147.714 31.0974 147.927 31.2049 148.08 31.3778C148.233 31.5507 148.312 31.7755 148.303 32.0054C148.31 32.108 148.293 32.2109 148.251 32.3053C148.21 32.3996 148.146 32.4825 148.066 32.5469C147.985 32.6113 147.89 32.6552 147.789 32.6749C147.687 32.6946 147.582 32.6894 147.483 32.6599ZM147.483 28.5817L147.532 26.2764C147.532 26.2764 149.274 26.3692 149.274 27.6293C149.274 28.8894 147.483 28.5817 147.483 28.5817Z" fill="#95C11F"/>
<path d="M119.593 44.3379V50.8435H121.32V44.3379H123.563V51.0291L124.333 51.0633L124.25 54.9705H122.572L122.454 52.6701H117.351V44.3672L119.593 44.3379Z" fill="#1D71B8"/>
<path d="M127.179 49.2953C127.179 50.5896 127.964 51.0633 128.941 51.0633C129.482 51.0596 130.019 50.9689 130.53 50.7947L130.82 52.3967C130.09 52.6487 129.321 52.7742 128.548 52.7679C126.252 52.7679 125 51.2684 125 48.6652C125 45.852 126.473 44.1816 128.357 44.1816C130.153 44.1816 131.198 45.598 131.198 48.1378C131.204 48.5248 131.181 48.9117 131.129 49.2953H127.179ZM129.142 47.7275C129.142 46.653 128.867 45.8178 128.2 45.8178C127.532 45.8178 127.174 46.8923 127.159 47.7275H129.142Z" fill="#1D71B8"/>
<path d="M134.706 44.3379V47.4881H136.473V44.3379H138.71V52.6408H136.473V49.3538H134.706V52.6408H132.454V44.3379H134.706Z" fill="#1D71B8"/>
<path d="M145.594 44.3379V46.1596H143.74V52.6652H141.497V46.1596H139.633V44.3379H145.594Z" fill="#1D71B8"/>
<path d="M146.536 46.9749C146.536 45.9737 146.502 45.1385 146.468 44.3375H148.43L148.553 45.2899H148.587C148.743 44.9565 148.992 44.6748 149.305 44.4783C149.617 44.2817 149.979 44.1786 150.349 44.1812C152.179 44.1812 152.935 46.1739 152.935 48.4938C152.935 51.4585 151.635 52.8016 150.212 52.8016C149.93 52.7964 149.654 52.7186 149.412 52.5756C149.169 52.4326 148.968 52.2295 148.828 51.986H148.793V55.9372H146.536V46.9749ZM148.779 49.6318C148.768 49.8719 148.808 50.1115 148.897 50.3351C149.068 50.8236 149.358 50.9799 149.618 50.9799C150.403 50.9799 150.692 49.8223 150.692 48.5085C150.692 46.9261 150.3 46.0665 149.633 46.0665C149.446 46.0886 149.272 46.1706 149.136 46.3002C149.001 46.4297 148.911 46.5997 148.882 46.7844C148.802 46.9726 148.767 47.1764 148.779 47.3803V49.6318Z" fill="#1D71B8"/>
<path d="M156.909 46.9749C156.909 45.9737 156.875 45.1385 156.841 44.3375H158.803L158.926 45.2899H158.95C159.107 44.9565 159.356 44.6748 159.668 44.4783C159.98 44.2817 160.343 44.1786 160.712 44.1812C162.542 44.1812 163.298 46.1739 163.298 48.4938C163.298 51.4585 161.998 52.8016 160.575 52.8016C160.293 52.7974 160.017 52.7199 159.774 52.5769C159.531 52.4338 159.33 52.2301 159.191 51.986H159.157V55.9372H156.914L156.909 46.9749ZM159.152 49.6318C159.141 49.8719 159.181 50.1115 159.269 50.3351C159.441 50.8236 159.731 50.9799 159.991 50.9799C160.776 50.9799 161.065 49.8223 161.065 48.5085C161.065 46.9261 160.673 46.0665 160.005 46.0665C159.819 46.0886 159.645 46.1706 159.509 46.3002C159.374 46.4297 159.284 46.5997 159.255 46.7844C159.175 46.9726 159.14 47.1764 159.152 47.3803V49.6318Z" fill="#1D71B8"/>
<path d="M170.236 50.7605C170.231 51.3974 170.27 52.0339 170.354 52.6653H168.352L168.229 51.8497H168.18C167.974 52.1476 167.698 52.3905 167.375 52.5566C167.053 52.7227 166.694 52.807 166.33 52.8021C165.064 52.8021 164.122 51.7471 164.122 50.2819C164.122 48.084 166.056 47.2 167.959 47.1805V46.9753C167.973 46.8189 167.951 46.6615 167.896 46.5144C167.841 46.3674 167.753 46.2344 167.64 46.125C167.527 46.0156 167.391 45.9327 167.242 45.8821C167.092 45.8315 166.934 45.8145 166.777 45.8325C166.171 45.8298 165.577 45.9992 165.064 46.3209L164.652 44.8068C165.463 44.3917 166.361 44.1757 167.272 44.1768C169.824 44.1768 170.217 45.9497 170.217 47.6494L170.236 50.7605ZM168.028 48.6115C167.292 48.6115 166.247 48.885 166.247 50.0426C166.247 50.8631 166.708 51.1659 167.052 51.1659C167.262 51.1611 167.465 51.0892 167.631 50.9608C167.797 50.8324 167.917 50.6544 167.974 50.4528C168.011 50.3259 168.029 50.1943 168.028 50.0621V48.6115Z" fill="#1D71B8"/>
<path d="M172.449 47.6246H173.151C173.956 47.6246 174.485 47.2485 174.485 46.6478C174.485 46.0471 174.059 45.7296 173.288 45.7296C172.774 45.747 172.271 45.8806 171.816 46.1203L171.473 44.7381C172.254 44.3511 173.118 44.1584 173.99 44.1765C175.84 44.1765 176.747 45.1533 176.747 46.3059C176.747 47.2827 176.046 47.9274 175.05 48.1619V48.1961C176.252 48.3865 177.071 49.1729 177.071 50.262C177.071 51.9617 175.379 52.7969 173.494 52.7969C172.715 52.8027 171.944 52.6359 171.237 52.3085L171.61 50.8432C172.127 51.0604 172.679 51.1812 173.239 51.1998C174.348 51.1998 174.78 50.7114 174.78 50.179C174.78 49.3975 174.01 49.0898 173.185 49.0898H172.469L172.449 47.6246Z" fill="#1D71B8"/>
<path d="M178.288 44.3721C179.101 44.2577 179.921 44.2005 180.742 44.2012C182.214 44.2012 184.436 44.4405 184.436 46.2964C184.432 46.7507 184.27 47.1893 183.976 47.537C183.682 47.8846 183.276 48.1195 182.827 48.2012V48.255C184.078 48.4406 184.79 49.2318 184.79 50.233C184.79 52.4455 182.052 52.7679 180.374 52.7679C179.682 52.7765 178.99 52.7423 178.303 52.6653L178.288 44.3721ZM180.442 51.2684C180.628 51.3047 180.817 51.3226 181.007 51.3222C181.797 51.3222 182.567 51.0291 182.567 50.2135C182.567 49.3978 181.846 49.0901 180.972 49.0901H180.442V51.2684ZM180.442 47.6591H180.933C181.684 47.6591 182.317 47.283 182.317 46.6188C182.317 45.9546 181.787 45.642 181.002 45.642C180.812 45.6395 180.623 45.6575 180.437 45.6957L180.442 47.6591Z" fill="#1D71B8"/>
<path d="M188.062 44.3379V46.1401C188.062 47.6591 187.974 49.1243 187.891 49.9741H187.94C188.215 49.1048 188.592 48.1866 188.862 47.5321L190.133 44.3477H192.253V52.6506H190.217V50.8288C190.217 49.1438 190.3 48.2061 190.369 47.0827H190.32C190.045 47.9668 189.829 48.6505 189.495 49.4515C189.274 50.0132 188.607 51.6494 188.126 52.6506H186.041V44.3477L188.062 44.3379Z" fill="#1D71B8"/>
<path d="M199.118 44.3379V46.1596H197.253V52.6652H195.011V46.1596H193.146V44.3379H199.118Z" fill="#1D71B8"/>
<path d="M202.096 44.3379V46.1401C202.096 47.6591 202.013 49.1243 201.924 49.9741H201.978C202.248 49.1048 202.626 48.1866 202.901 47.5321L204.167 44.3477H206.291V52.6506H204.255V50.8288C204.255 49.1438 204.338 48.2061 204.407 47.0827H204.358C204.083 47.9668 203.867 48.6505 203.534 49.4515C203.313 50.0132 202.646 51.6494 202.165 52.6506H200.074V44.3477L202.096 44.3379Z" fill="#1D71B8"/>
<path d="M213.754 52.6652H211.595V49.4173H211.389C211.177 49.4066 210.967 49.4649 210.791 49.5833C210.158 49.9448 209.971 51.0486 209.711 52.0742C209.652 52.2853 209.571 52.4898 209.471 52.6847H207.145C207.324 52.3987 207.462 52.0898 207.557 51.7665C207.778 51.0339 208.018 49.9448 208.568 49.3489C208.847 49.0717 209.194 48.8715 209.574 48.7677V48.7335C208.534 48.5137 207.611 47.8983 207.611 46.692C207.606 46.3344 207.693 45.9814 207.865 45.6673C208.037 45.3533 208.288 45.0888 208.593 44.8995C209.157 44.5088 210.251 44.3036 211.399 44.3036C212.183 44.2956 212.967 44.3413 213.745 44.4404L213.754 52.6652ZM211.615 45.7347C211.454 45.6984 211.289 45.6804 211.124 45.681C210.354 45.681 209.873 46.0717 209.873 46.8043C209.878 46.9821 209.919 47.1571 209.994 47.3185C210.069 47.4799 210.177 47.6242 210.31 47.7427C210.443 47.8612 210.6 47.9513 210.769 48.0075C210.939 48.0636 211.118 48.0847 211.296 48.0693C211.399 48.0801 211.503 48.0801 211.605 48.0693L211.615 45.7347Z" fill="#1D71B8"/>
<path d="M218.033 46.9749C218.033 45.9737 217.999 45.1385 217.964 44.3375H219.927L220.05 45.2899H220.084C220.24 44.9565 220.489 44.6748 220.802 44.4783C221.114 44.2817 221.476 44.1786 221.846 44.1812C223.676 44.1812 224.432 46.1739 224.432 48.4938C224.432 51.4585 223.131 52.8016 221.708 52.8016C221.427 52.7964 221.151 52.7186 220.908 52.5756C220.666 52.4326 220.465 52.2295 220.325 51.986H220.285V55.9372H218.043L218.033 46.9749ZM220.276 49.6318C220.265 49.8719 220.305 50.1115 220.393 50.3351C220.565 50.8236 220.855 50.9799 221.115 50.9799C221.9 50.9799 222.189 49.8223 222.189 48.5085C222.189 46.9261 221.797 46.0665 221.129 46.0665C220.943 46.0886 220.769 46.1706 220.633 46.3002C220.498 46.4297 220.408 46.5997 220.379 46.7844C220.299 46.9726 220.264 47.1764 220.276 47.3803V49.6318Z" fill="#1D71B8"/>
<path d="M227.582 49.2953C227.582 50.5896 228.372 51.0633 229.343 51.0633C229.886 51.0601 230.425 50.9694 230.938 50.7947L231.228 52.3967C230.496 52.6491 229.725 52.7747 228.951 52.7679C226.659 52.7679 225.408 51.2684 225.408 48.6652C225.408 45.852 226.88 44.1816 228.764 44.1816C230.56 44.1816 231.605 45.598 231.605 48.1378C231.612 48.5248 231.589 48.9117 231.537 49.2953H227.582ZM229.569 47.7275C229.569 46.653 229.294 45.8178 228.627 45.8178C227.96 45.8178 227.601 46.8923 227.582 47.7275H229.569Z" fill="#1D71B8"/>
<path d="M234.976 44.3379V47.366C234.976 48.0693 235.217 48.5089 235.884 48.5089C236.164 48.5184 236.44 48.4416 236.674 48.2891V44.3379H238.931V52.7532H236.689V49.7543H236.64C236.164 50.0188 235.624 50.1488 235.079 50.1304C233.436 50.1304 232.734 49.1047 232.734 47.5028V44.3379H234.976Z" fill="#1D71B8"/>
<path d="M242.508 44.3379V46.1401C242.508 47.6591 242.425 49.1243 242.337 49.9741H242.391C242.66 49.1048 243.038 48.1866 243.313 47.5321L244.579 44.3477H246.704V52.6506H244.667V50.8288C244.667 49.1438 244.751 48.2061 244.819 47.0827H244.77C244.496 47.9668 244.28 48.6505 243.946 49.4515C243.725 50.0132 243.058 51.6494 242.577 52.6506H240.487V44.3477L242.508 44.3379Z" fill="#1D71B8"/>
<path d="M31.5751 52.1277C31.5751 52.1277 35.5644 52.6406 35.5545 53.4709C35.5447 54.3012 33.0521 54.3305 31.2169 54.2914C29.3818 54.2523 23.5673 55.7175 22.8754 55.8983C22.1835 56.079 20.9127 56.1962 21.2856 55.2047C21.8008 54.5112 23.5624 53.6369 25.0295 53.5246C26.4966 53.4123 26.7174 53.4171 26.7174 53.4171C26.7174 53.4171 24.3916 53.4513 23.3955 53.9056C22.3994 54.3598 21.158 54.6479 21.1433 53.676C21.1433 52.5234 23.7734 52.1766 24.9853 51.991C27.1783 51.745 29.3944 51.791 31.5751 52.1277Z" fill="#DC5113"/>
<path d="M21.2071 55.8594C21.1434 55.7541 21.1068 55.6348 21.1009 55.512C21.0949 55.3893 21.1196 55.267 21.1728 55.1561V55.117C21.3857 54.858 21.6412 54.6367 21.9284 54.4625H21.8794C21.32 54.4625 21.0059 54.1841 21.001 53.6762C20.9765 52.4503 23.3563 52.084 24.7793 51.8691L24.9952 51.8593C25.9133 51.7479 26.8378 51.6973 27.7626 51.7079C29.0478 51.6939 30.3317 51.7919 31.5997 52.001C32.5811 52.128 35.7165 52.6017 35.7067 53.4906C35.7067 54.1646 34.583 54.4674 32.0904 54.4674H31.2219H31.1532C29.2837 54.4674 23.6752 55.8692 22.9441 56.0694C22.6533 56.1502 22.3531 56.1929 22.0511 56.1964C21.8935 56.2122 21.7345 56.1897 21.5875 56.1311C21.4406 56.0724 21.3101 55.9792 21.2071 55.8594ZM31.2219 54.1451H32.0855C34.9707 54.1451 35.4074 53.7153 35.4074 53.4613C35.4074 53.0266 33.4152 52.4845 31.5506 52.2647C30.2975 52.0558 29.0282 51.9578 27.7577 51.9717C26.8477 51.9596 25.9378 52.0086 25.0344 52.1182L24.8431 52.1475C23.69 52.3233 21.2954 52.6896 21.3151 53.6616C21.3151 53.8911 21.3887 54.15 21.899 54.15C22.2351 54.1349 22.5665 54.0656 22.8803 53.9448C23.0472 53.8716 23.214 53.8032 23.371 53.7446C23.5971 53.6484 23.8321 53.5748 24.0727 53.5248C24.3944 53.4416 24.7228 53.3861 25.0541 53.3587H25.216C25.9569 53.2806 26.6095 53.2611 26.7322 53.2611V53.5541C26.6635 53.5541 26.3543 53.5541 25.2356 53.6469C24.8682 53.6852 24.5029 53.7423 24.1414 53.8178C23.9206 53.8765 23.6998 53.9448 23.4839 54.023C23.268 54.1011 23.1453 54.1695 22.9932 54.2232C22.4053 54.4582 21.8761 54.8183 21.4427 55.2782C21.4099 55.3425 21.3928 55.4136 21.3928 55.4857C21.3928 55.5579 21.4099 55.629 21.4427 55.6933C21.5261 55.8154 21.7371 55.8789 22.0413 55.8789C22.3168 55.8763 22.5908 55.8369 22.8558 55.7617C23.5918 55.5615 29.2346 54.15 31.1434 54.15L31.2219 54.1451Z" fill="#3C3C3B"/>
<path d="M46.9579 51.8887C46.9579 51.8887 42.9785 52.4699 43.003 53.3002C43.0276 54.1305 45.5202 54.1159 47.3554 54.0475C49.1905 53.9791 55.0296 55.3418 55.6969 55.5127C56.3642 55.6836 57.6596 55.7764 57.272 54.7947C56.7421 54.1061 54.9707 53.2611 53.4987 53.1781C52.0266 53.0951 51.8107 53.0951 51.8107 53.0951C51.8107 53.0951 54.1365 53.0951 55.1375 53.5249C56.1385 53.9547 57.3898 54.2282 57.3898 53.2562C57.3898 52.1036 54.7352 51.791 53.5183 51.6347C51.3298 51.4323 49.124 51.5176 46.9579 51.8887Z" fill="#DC5113"/>
<path d="M55.6626 55.6541C54.9315 55.4685 49.166 54.1253 47.3603 54.1888C46.8304 54.1888 46.3789 54.2181 46.0109 54.2181C43.847 54.2181 42.8755 53.9349 42.8559 53.2999C42.8313 52.411 45.9717 51.8836 46.9285 51.7419C48.371 51.483 49.8348 51.3603 51.3004 51.3756C52.0496 51.3656 52.7985 51.4031 53.5428 51.4879L53.7293 51.5124C55.1572 51.7028 57.5468 52.0252 57.5419 53.2511C57.5419 53.7688 57.2229 54.057 56.6488 54.057C56.9378 54.2266 57.1951 54.4447 57.4094 54.7017V54.7359C57.4674 54.845 57.4977 54.9665 57.4977 55.0899C57.4977 55.2134 57.4674 55.3349 57.4094 55.444C57.2995 55.5634 57.1622 55.6546 57.0093 55.7099C56.8564 55.7651 56.6923 55.7828 56.5311 55.7615C56.2382 55.7615 55.9465 55.7254 55.6626 55.6541ZM55.589 53.8518C55.4271 53.7981 55.2553 53.7297 55.0983 53.6614C54.8796 53.5841 54.6568 53.5189 54.431 53.466C54.068 53.3935 53.701 53.3429 53.3319 53.3146C52.2082 53.2511 51.8991 53.2413 51.8206 53.2413V52.9483C51.9432 52.9483 52.6007 52.9483 53.3319 53.0215H53.5036C53.8342 53.0436 54.1624 53.0926 54.485 53.1681C54.7264 53.2143 54.963 53.2829 55.1915 53.3732C55.3584 53.4318 55.5301 53.5002 55.6822 53.5637C55.997 53.6796 56.3282 53.7455 56.6636 53.759C57.1935 53.759 57.2622 53.4855 57.2622 53.2462C57.2622 52.2694 54.8628 51.9519 53.7048 51.781L53.5183 51.7566C52.7868 51.6761 52.0511 51.6402 51.3152 51.6491C49.8674 51.6279 48.4211 51.749 46.9972 52.0105C45.1424 52.284 43.1552 52.8408 43.165 53.2706C43.165 53.51 43.5526 53.9056 46.0256 53.9056C46.4133 53.9056 46.8402 53.9056 47.3652 53.8763C49.2003 53.8128 55.01 55.1608 55.7509 55.3415C56.004 55.4076 56.2645 55.442 56.5262 55.444C56.64 55.4598 56.7559 55.4509 56.866 55.418C56.9761 55.3852 57.0777 55.3291 57.1641 55.2536C57.1954 55.188 57.2117 55.1162 57.2117 55.0435C57.2117 54.9709 57.1954 54.8991 57.1641 54.8335C56.7165 54.3968 56.1792 54.0618 55.589 53.8518Z" fill="#3C3C3B"/>
<path d="M47.0757 46.4868L48.6949 48.3965C48.6949 48.3965 47.7577 48.3574 47.8853 48.5919C48.0129 48.8263 49.2592 50.8092 48.6949 51.8984C48.4939 52.1169 48.2375 52.2776 47.9526 52.3636C47.6677 52.4495 47.3648 52.4575 47.0757 52.3868C46.4869 52.1963 46.0551 51.3416 45.8441 51.0681C45.6331 50.7946 44.1561 49.5345 43.8029 49.4563" fill="#498632"/>
<path d="M47.4388 52.6115C47.6999 52.6114 47.9581 52.5565 48.1965 52.4504C48.4349 52.3444 48.6482 52.1896 48.8225 51.9961C49.1954 51.2781 48.9354 50.145 48.0521 48.6212C48.2619 48.579 48.4766 48.5659 48.69 48.5821H49.0237L47.1885 46.4233L46.9628 46.6089L48.376 48.2744C48.1012 48.2744 47.8411 48.333 47.7577 48.4649C47.7374 48.4989 47.7267 48.5377 47.7267 48.5772C47.7267 48.6168 47.7374 48.6556 47.7577 48.6896L47.8019 48.7677C48.8274 50.5357 48.7832 51.4198 48.5723 51.8496C48.3878 52.0459 48.1546 52.1904 47.8962 52.2685C47.6377 52.3465 47.3632 52.3553 47.1002 52.294C46.693 52.1573 46.3446 51.6298 46.1189 51.283C46.0502 51.1756 45.9913 51.0876 45.9373 51.0193C45.7459 50.7751 44.2297 49.4515 43.8176 49.3587L43.7538 49.6419C44.4715 50.0766 45.131 50.6002 45.7165 51.2C45.7607 51.2537 45.8146 51.3416 45.8833 51.4393C46.1326 51.9258 46.5291 52.3221 47.0168 52.5724C47.1546 52.6069 47.2969 52.6201 47.4388 52.6115Z" fill="#3C3C3B"/>
<path d="M30.1032 43.4632C30.1032 43.4632 29.9118 43.1751 30.3731 42.6671C30.8343 42.1592 30.6528 42.1396 33.5085 40.3472C36.3643 38.5547 39.1415 37.5388 40.7019 35.9075C42.2622 34.2763 42.9737 33.7634 43.0915 32.4008C43.2092 31.0381 43.3221 29.8122 43.327 29.4703C43.3319 29.1284 42.8363 28.5375 42.7382 28.5765C42.64 28.6156 41.2661 29.5875 40.0787 29.4703C38.8913 29.3531 38.0816 28.303 38.116 26.745C38.8618 27.4092 39.2495 27.5655 40.2308 27.3311C40.4945 27.2856 40.743 27.1762 40.9543 27.0127C41.1657 26.8492 41.3334 26.6365 41.4428 26.3933C41.4428 26.3933 39.8383 26.3933 39.4457 25.7535C39.1906 25.2437 39.0452 24.6864 39.0188 24.1174C39.0188 24.1174 39.9168 25.5826 40.8147 25.3042C41.7127 25.0258 41.5606 24.5276 41.2465 24.4495C40.9325 24.3713 39.6027 23.8243 39.9168 22.618C40.4075 23.165 41.2514 23.8194 41.9923 23.7071C42.483 23.6338 42.591 23.3799 42.7676 22.3786C43.1307 20.3615 44.1415 19.4482 45.0787 19.0379C45.6825 18.7789 46.3447 18.6845 46.9973 18.7644C46.9973 18.7644 49.3673 19.1258 50.275 19.8536C49.8931 21.074 49.5883 22.3169 49.3623 23.5752C49.1219 25.1821 48.3074 28.3714 49.0238 31.3458C49.7402 34.3202 38.6067 48.865 30.1032 43.4632Z" fill="url(#paint0_radial_7_223)"/>
<path d="M30.0247 43.5903H29.9953C29.9953 43.5513 29.7548 43.1898 30.2798 42.6135L30.432 42.4377C30.7607 42.0519 30.9226 41.837 33.4447 40.2692C34.4997 39.6049 35.5252 39.0579 36.5164 38.5304C38.1945 37.6366 39.6371 36.865 40.6135 35.8491L41.2465 35.1946C42.3555 34.0615 42.8609 33.5438 42.959 32.4351C42.959 32.1127 43.013 31.8002 43.0375 31.5022C43.1209 30.5743 43.1896 29.7733 43.1945 29.5242C43.1287 29.2417 42.9801 28.9851 42.7676 28.7867L42.6793 28.8404C41.9717 29.3193 41.1521 29.6086 40.2995 29.6805H40.0787C38.7686 29.5535 37.9492 28.4253 37.9884 26.8086V26.4912L38.2239 26.7012C38.7833 27.1896 39.0875 27.3508 39.5193 27.3508C39.7512 27.3432 39.9816 27.3104 40.2063 27.2531C40.6145 27.1707 40.976 26.9367 41.2171 26.5986C40.7264 26.5693 39.6665 26.4423 39.3329 25.8904C39.0595 25.3617 38.9054 24.78 38.8815 24.1859L38.8569 23.6291L39.1513 24.1175C39.3476 24.4399 39.9953 25.2701 40.6234 25.2701C40.6862 25.2689 40.7488 25.2607 40.8098 25.2457C41.2318 25.1139 41.3839 24.938 41.379 24.8208C41.3758 24.7849 41.3612 24.7509 41.3374 24.7237C41.3137 24.6965 41.2818 24.6775 41.2465 24.6694C40.7185 24.5242 40.2594 24.1971 39.9511 23.7463C39.8538 23.585 39.7909 23.4055 39.7664 23.219C39.7419 23.0324 39.7563 22.8428 39.8088 22.662L39.8775 22.3885L40.064 22.6034C40.5026 23.1702 41.1443 23.5465 41.855 23.6535H42.0022C42.3947 23.5949 42.4928 23.4337 42.6597 22.4423C42.9639 20.7377 43.7686 19.5802 45.0542 18.9941C45.6823 18.7229 46.3717 18.6234 47.0513 18.7059C47.1543 18.7059 49.4752 19.0869 50.3977 19.8244L50.4762 19.8879L50.4468 19.9856C50.0704 21.1985 49.7689 22.4332 49.5439 23.6828C49.5047 23.9466 49.4507 24.2347 49.3918 24.5717C49.0778 26.3105 48.6067 28.9332 49.2004 31.4094C49.4605 32.4839 48.3074 34.8869 46.33 37.3827C43.4546 41.0115 38.7588 44.8895 34.2004 44.8895C32.7105 44.874 31.2582 44.4222 30.0247 43.5903ZM46.9777 18.9208C46.3553 18.8427 45.7233 18.9321 45.1474 19.1797C43.9551 19.7218 43.1847 20.811 42.9148 22.4178C42.7382 23.3947 42.6204 23.7707 42.0169 23.8831H41.8255C41.1294 23.8055 40.4865 23.4751 40.0198 22.9551C40.0153 23.1591 40.068 23.3604 40.1719 23.5363C40.4415 23.9179 40.8348 24.1956 41.2858 24.3226C41.3842 24.3441 41.4728 24.3975 41.5376 24.4743C41.6024 24.5512 41.6398 24.6473 41.644 24.7475C41.644 24.8892 41.5802 25.236 40.8638 25.4606C40.776 25.4856 40.6852 25.4987 40.5939 25.4997C40.3216 25.4598 40.0602 25.3651 39.8257 25.2215C39.5912 25.078 39.3885 24.8885 39.2298 24.6645C39.2864 25.0237 39.4042 25.3706 39.5782 25.6902C39.8628 26.1786 41.0503 26.2616 41.4477 26.2665H41.6489L41.5851 26.457C41.4689 26.7238 41.288 26.9577 41.0584 27.1376C40.8288 27.3175 40.5579 27.4378 40.2701 27.4875C40.0233 27.5529 39.7697 27.589 39.5144 27.595C39.0511 27.5831 38.6086 27.4003 38.273 27.0821C38.3417 28.3666 39.0336 29.2409 40.0934 29.3386C40.1571 29.3436 40.2211 29.3436 40.2848 29.3386C41.0829 29.2642 41.8491 28.9903 42.5125 28.5425C42.5693 28.5049 42.6283 28.4706 42.6891 28.4399H42.748C42.8498 28.452 42.943 28.5027 43.0081 28.5815C43.2556 28.8234 43.4175 29.1388 43.4693 29.4802C43.4693 29.744 43.4055 30.5108 43.3172 31.4876C43.2927 31.7806 43.2632 32.0932 43.2387 32.4156C43.1307 33.6317 42.5664 34.208 41.4428 35.346L40.8098 35.9956C39.8285 37.0457 38.3564 37.8271 36.639 38.7356C35.6577 39.2582 34.6322 39.8052 33.5821 40.4596C31.1287 42.0079 30.9374 42.2228 30.638 42.5696L30.4761 42.7552C30.1719 43.0873 30.1964 43.2924 30.2161 43.3559C31.3885 44.1011 32.7504 44.4976 34.1415 44.4988C38.5969 44.4988 43.2092 40.6794 46.0405 37.1043C47.9345 34.7111 49.0925 32.357 48.857 31.3801C48.2436 28.8502 48.7245 26.1932 49.0434 24.435C49.1023 24.098 49.1563 23.8098 49.1955 23.5509C49.4132 22.3193 49.7081 21.1024 50.0787 19.9074C49.1906 19.2627 47.0022 18.9208 46.9777 18.9208Z" fill="#3C3C3B"/>
<path d="M50.7559 32.3229C52.4732 32.8602 54.7843 31.7417 54.8236 27.0676C52.8314 27.2239 50.9914 28.8601 50.7559 28.0445C50.5203 27.2288 48.9943 26.0908 48.9943 26.0908C48.7559 26.9452 48.6646 27.8337 48.7245 28.7185C48.8422 30.0665 49.5292 31.9371 50.7559 32.3229Z" fill="url(#paint1_linear_7_223)"/>
<path d="M50.7117 32.4646C49.4311 32.0641 48.7098 30.2424 48.5773 28.7136C48.5137 27.8105 48.6084 26.9032 48.857 26.0323L48.9158 25.832L49.0876 25.959C49.1514 26.0079 50.6528 27.1459 50.8982 28.0006C50.9227 28.0787 50.9571 28.1227 51.0748 28.1227C51.4693 28.0495 51.8499 27.9161 52.2034 27.7271C53.0214 27.3133 53.9041 27.0408 54.8138 26.9212H54.9757V27.0775C54.9414 31.1508 53.1897 32.6014 51.541 32.6014C51.2594 32.596 50.98 32.5499 50.7117 32.4646ZM52.3212 27.9957C51.9335 28.2069 51.5117 28.3491 51.0748 28.4157C50.9709 28.4234 50.8677 28.3943 50.7833 28.3335C50.6989 28.2727 50.6388 28.1842 50.6136 28.0836C50.4419 27.478 49.4801 26.6477 49.0827 26.3253C48.8879 27.0974 48.8167 27.8951 48.8717 28.6892C48.9698 29.8858 49.5734 31.8004 50.8001 32.1862C51.0451 32.26 51.2997 32.2979 51.5557 32.2986C53.0277 32.2986 54.5979 30.9652 54.6764 27.2289C53.8576 27.3673 53.0639 27.6257 52.3212 27.9957Z" fill="#3C3C3B"/>
<path d="M49.8628 35.0431C49.8628 35.0431 51.541 34.6524 51.8697 35.9565C52.141 36.9387 52.075 37.9829 51.682 38.9235C51.2891 39.8641 50.5919 40.6471 49.7009 41.1482" fill="url(#paint2_linear_7_223)"/>
<path d="M49.7745 41.2703C52.7529 39.556 52.1592 36.5132 52.012 35.9222C51.7225 34.7793 50.4615 34.7549 49.8334 34.9014L49.8972 35.1847C49.961 35.1847 51.4379 34.8428 51.7274 35.9955C51.9857 36.9464 51.9196 37.9557 51.5395 38.8653C51.1594 39.7748 50.4869 40.533 49.6273 41.0212L49.7745 41.2703Z" fill="#3C3C3B"/>
<path d="M58.0326 29.4802C58.0326 29.4802 59.1366 26.4716 58.6705 24.2542C58.2043 22.0369 56.7078 18.8573 54.2789 18.7743C51.6979 18.6815 49.2298 19.7072 48.9599 22.1932C48.8535 23.4119 48.8535 24.6375 48.9599 25.8562C49.0335 26.3446 49.4261 28.3862 50.5596 28.816C51.693 29.2458 54.3574 27.4533 55.2161 27.3508C56.0748 27.2482 57.7971 28.5473 58.0326 29.4802Z" fill="url(#paint3_radial_7_223)"/>
<path d="M57.8706 29.5194C57.6547 28.6647 56.011 27.3802 55.2161 27.4828C54.7291 27.6229 54.2587 27.8145 53.8127 28.0542C52.8314 28.5133 51.7519 29.031 50.9521 29.031C50.7952 29.0337 50.6391 29.0089 50.4908 28.9578C49.3525 28.528 48.9256 26.6671 48.7931 25.8857C48.6845 24.654 48.6845 23.4152 48.7931 22.1835C49.0826 19.5559 51.6439 18.623 53.9452 18.623H54.2641C56.9236 18.7158 58.3613 22.1835 58.7931 24.2153C59.2838 26.4522 58.1945 29.4022 58.1503 29.5292L57.9884 29.9737L57.8706 29.5194ZM49.0826 22.1933C48.9762 23.4006 48.9762 24.6149 49.0826 25.8222C49.1807 26.3936 49.5733 28.2642 50.5939 28.6696C50.7095 28.7071 50.8305 28.7253 50.9521 28.7233C51.6832 28.7233 52.797 28.2007 53.6901 27.7758C54.1547 27.5187 54.649 27.3187 55.1621 27.18C55.9766 27.0676 57.4585 28.1177 57.9835 29.0506C58.2534 28.1861 58.852 25.9736 58.4742 24.269C58.0914 22.4522 56.7077 18.9942 54.2249 18.8966H53.9452C51.7911 18.9161 49.3721 19.7806 49.1022 22.208L49.0826 22.1933Z" fill="#3C3C3B"/>
<path d="M25.8785 38.6724C22.1248 36.7188 15.1817 33.8811 14.7695 35.0093C14.3573 36.1376 18.5281 38.4819 19.8774 39.0436L30.3927 43.8837L31.9776 42.8825L29.9707 40.8458L25.8785 38.6724Z" fill="url(#paint4_linear_7_223)"/>
<path d="M19.8185 39.1604C18.6261 38.672 14.1315 36.2299 14.632 34.9405C14.7203 34.7061 14.9853 34.5889 15.4171 34.5889C17.3209 34.5889 22.7773 36.86 25.947 38.4961L30.0491 40.6891L32.2179 42.8869L30.3926 44.0444L19.8185 39.1604ZM29.9019 40.9626L25.8195 38.7794C22.6595 37.153 17.2866 34.9014 15.4269 34.9014C15.1374 34.9014 14.9362 34.9552 14.9362 35.0626C14.5829 35.9857 18.3023 38.2128 19.9657 38.9113L30.4171 43.7172L31.7861 42.8576L29.9019 40.9626Z" fill="#3C3C3B"/>
<path d="M33.2828 45.6124C33.2729 45.7798 33.2198 45.9419 33.1287 46.0831C33.0376 46.2242 32.9116 46.3397 32.7626 46.4182C32.272 46.6527 30.6527 48.4842 30.6135 48.6796C30.5742 48.8749 31.5948 48.7528 31.7469 48.6796C31.899 48.6063 30.0639 51.4391 30.1032 52.2596C30.1817 52.455 30.5938 52.8457 31.3936 52.2596C32.1935 51.6735 35.0345 50.0032 36.1679 49.7296C37.2704 50.0613 38.4167 50.2259 39.5684 50.2181C41.0796 50.3083 42.5896 50.0209 43.9608 49.382C45.332 48.7431 46.5209 47.7729 47.4192 46.5599C50.0002 43.0922 50.3633 40.5134 50.3633 37.9883C50.3633 35.7319 50.4124 35.5218 49.956 33.9101C49.4997 32.2983 48.695 30.9406 48.7097 28.562" fill="url(#paint5_radial_7_223)"/>
<path d="M30.6331 52.7138C30.9453 52.6964 31.2434 52.5781 31.482 52.3768C32.2376 51.8103 35.0198 50.1741 36.163 49.881C37.2677 50.2104 38.4152 50.375 39.5684 50.3695C42.9688 50.4427 45.6577 49.1973 47.5517 46.6527C50.2848 42.9847 50.4958 40.2594 50.4958 37.9932C50.4958 37.7685 50.4958 37.5634 50.4958 37.3729C50.5805 36.1918 50.4407 35.0054 50.0836 33.8759C49.956 33.4314 49.8039 33.0016 49.6567 32.5865C49.1292 31.3109 48.8527 29.9463 48.8422 28.5669H48.5478C48.5581 29.9794 48.8395 31.3769 49.377 32.6842C49.534 33.114 49.6763 33.5242 49.799 33.954C50.1503 35.0578 50.2869 36.2182 50.2014 37.3729V37.9932C50.2014 40.2105 49.9757 42.8773 47.2965 46.4768C45.4614 48.9189 42.8559 50.1545 39.5536 50.0813C38.4135 50.0854 37.2791 49.9208 36.1876 49.5929H36.1483H36.114C34.9413 49.8713 32.0855 51.5465 31.2857 52.1473C31.1789 52.2481 31.0507 52.3237 30.9105 52.3685C30.7704 52.4133 30.6219 52.4262 30.4761 52.4061C30.4253 52.3949 30.3774 52.3736 30.3352 52.3433C30.293 52.3131 30.2575 52.2746 30.2307 52.2303C30.2307 51.693 31.0649 50.218 31.5163 49.4219C31.9677 48.6258 31.9334 48.6796 31.8402 48.5819L31.7666 48.5037L31.6586 48.5526C31.3719 48.625 31.0756 48.653 30.7803 48.6356C31.0502 48.24 32.3946 46.7455 32.8068 46.555C32.9816 46.4674 33.1294 46.3345 33.2347 46.1703C33.3401 46.0062 33.399 45.8168 33.4054 45.6221H33.1159C33.1096 45.7623 33.0663 45.8983 32.9905 46.0166C32.9148 46.1349 32.8091 46.2312 32.6841 46.2961C31.8116 46.955 31.0554 47.7539 30.4466 48.66C30.4396 48.6966 30.4433 48.7345 30.4572 48.7691C30.4711 48.8037 30.4947 48.8337 30.5251 48.8554C30.8322 48.9583 31.1625 48.9719 31.4771 48.8945C31.4133 49.0068 31.3348 49.1435 31.2612 49.2852C30.5742 50.4964 29.9118 51.7272 29.9363 52.2742V52.2987V52.3231C29.9792 52.4135 30.0414 52.4936 30.1185 52.5577C30.1956 52.6218 30.2858 52.6684 30.3828 52.6943C30.4651 52.7114 30.5492 52.718 30.6331 52.7138Z" fill="#3C3C3B"/>
<path d="M46.0944 20.1761C46.2671 19.6657 46.5315 19.1908 46.8745 18.7743C46.962 18.6508 47.0863 18.5578 47.2299 18.5087C47.3736 18.4596 47.5291 18.4568 47.6743 18.5008C48.5772 18.8525 48.7735 19.8635 48.9305 20.3714" fill="#498632"/>
<path d="M48.7785 20.4153L49.0581 20.3274C49.0581 20.2737 49.0238 20.2151 49.0091 20.1516C48.8521 19.6094 48.592 18.6864 47.7186 18.364C47.5438 18.3005 47.3528 18.2962 47.1754 18.3518C46.9979 18.4074 46.8438 18.5199 46.7372 18.6717C46.3808 19.1075 46.1065 19.6039 45.9276 20.1369L46.2073 20.2346C46.3713 19.7448 46.6223 19.2882 46.9482 18.8866C47.2868 18.5301 47.5174 18.618 47.5959 18.6473C48.3319 18.9355 48.5773 19.7218 48.7049 20.2444C48.7441 20.2981 48.7588 20.3567 48.7785 20.4153Z" fill="#3C3C3B"/>
<path d="M48.7146 38.4522C49.0777 38.4522 49.3721 38.0712 49.5585 37.6414C49.5927 37.7972 49.6647 37.9424 49.7682 38.0641C49.8717 38.1859 50.0035 38.2805 50.1523 38.3399L50.2308 38.0615C49.9315 37.9784 49.7107 37.3972 49.7793 36.8648L49.4898 36.8258C49.4064 37.4314 49.0482 38.1494 48.7048 38.164C48.671 38.1639 48.6377 38.1564 48.6072 38.142C48.5767 38.1277 48.5497 38.1069 48.5281 38.081C48.2533 37.6018 48.1544 37.0423 48.2484 36.4985L47.954 36.4644C47.8608 37.0163 47.6007 37.6805 47.1738 37.7489C47.1545 37.7476 47.1357 37.7421 47.1188 37.7328C47.1018 37.7236 47.0871 37.7107 47.0757 37.6951C46.8001 37.331 46.6303 36.8985 46.585 36.4448L46.2955 36.4839C46.2955 36.6011 46.4722 37.6268 46.8794 37.9491C46.9258 37.9843 46.9788 38.0098 47.0353 38.0241C47.0918 38.0384 47.1506 38.0411 47.2082 38.0322C47.3776 37.9912 47.5346 37.9104 47.6661 37.7965C47.7976 37.6826 47.8997 37.539 47.9638 37.3777C47.9829 37.7053 48.1028 38.019 48.3073 38.2764C48.3582 38.3335 48.421 38.3788 48.4914 38.4092C48.5617 38.4396 48.6379 38.4543 48.7146 38.4522Z" fill="#3C3C3B"/>
<path d="M49.3377 40.8848C50.3534 40.8506 50.4172 39.7712 50.4516 39.19V39.063H50.1621V39.19C50.1228 39.8933 50.0247 40.582 49.3426 40.6113C48.5624 40.5283 48.5134 39.9324 48.5232 39.3268C48.5232 39.2828 48.5232 39.2437 48.5232 39.2047L48.2288 39.1803C48.0669 40.1131 47.8804 40.5429 47.2474 40.4745C46.7567 40.4208 46.7567 39.4977 46.7567 39.1265C46.7567 38.9556 46.7567 38.9116 46.7273 38.8579L46.4869 39.024C46.4822 39.008 46.4822 38.9911 46.4869 38.9751C46.4869 38.9751 46.4869 39.063 46.4869 39.1217C46.4869 39.6101 46.4574 40.6846 47.2131 40.7676C47.4431 40.8089 47.6803 40.7632 47.8782 40.6394C48.0761 40.5156 48.2204 40.3227 48.2828 40.0985C48.3415 40.3251 48.473 40.5265 48.6572 40.6719C48.8414 40.8174 49.0683 40.899 49.3034 40.9043L49.3377 40.8848Z" fill="#3C3C3B"/>
<path d="M47.1837 30.0126C47.4694 30.0173 47.7526 29.9589 48.0129 29.8416C48.2215 29.7374 48.403 29.5866 48.5435 29.4011C48.6839 29.2156 48.7794 29.0003 48.8225 28.772C49.3132 26.7891 48.0914 26.1981 47.64 25.9783L47.5664 25.9441C47.4229 25.8781 47.2754 25.821 47.1248 25.7732C46.585 25.5778 45.6822 25.2848 45.5792 24.8501L45.2946 24.9185C45.4369 25.4801 46.3937 25.822 47.0267 26.0467C47.2033 26.1102 47.3554 26.1639 47.4339 26.203L47.5075 26.242C47.9442 26.4521 48.9796 26.9454 48.533 28.6841C48.5005 28.8698 48.4251 29.0455 48.3127 29.1972C48.2003 29.3489 48.054 29.4726 47.8853 29.5583C47.0168 29.9686 45.6528 29.3337 45.638 29.3288L45.5154 29.5925C46.0375 29.8427 46.6049 29.9855 47.1837 30.0126Z" fill="#3C3C3B"/>
<path d="M46.2416 23.1506C46.2416 24.6158 46.7323 25.7733 47.3701 25.7733C48.008 25.7733 48.5036 24.5963 48.5036 23.1506C48.5036 21.7049 48.0129 20.5229 47.3701 20.5229C46.7274 20.5229 46.2416 21.7 46.2416 23.1506Z" fill="white"/>
<path d="M46.3937 24.0201C46.3937 24.6648 46.6979 25.1826 47.0119 25.1679C47.326 25.1533 47.5713 24.6258 47.5468 23.9762C47.5223 23.3266 47.2475 22.8138 46.9285 22.8284C46.6096 22.8431 46.3692 23.3803 46.3937 24.0201Z" fill="#1D1D1B"/>
<path d="M55.6921 21.7926C56.1092 22.281 56.6489 22.5204 56.8893 22.3152C57.1298 22.1101 56.9924 21.5435 56.5753 21.0502C56.1582 20.557 55.5939 20.3176 55.3731 20.5228C55.1523 20.7279 55.2701 21.2944 55.6921 21.7926Z" fill="url(#paint6_radial_7_223)"/>
<path d="M46.8206 24.0201C46.8206 24.2204 46.9187 24.3815 47.0365 24.3815C47.1542 24.3815 47.2573 24.2204 47.2573 24.0201C47.2573 23.8199 47.1591 23.6587 47.0365 23.6587C46.9138 23.6587 46.8206 23.8052 46.8206 24.0201Z" fill="#706F6F"/>
<path d="M32.6057 40.8895C32.6057 40.8895 28.6557 37.9297 26.8942 36.8796C25.1326 35.8295 21.7273 34.1152 20.7558 34.1152C20.4025 34.1152 19.0335 34.1152 20.0492 35.009C21.0649 35.9028 31.1042 41.9395 31.1042 41.9395" fill="url(#paint7_linear_7_223)"/>
<path d="M31.0256 42.091L31.1777 41.8419C31.0796 41.7784 21.1434 35.8003 20.1473 34.926C19.7989 34.6183 19.8234 34.4962 19.8333 34.4718C19.8431 34.4474 19.9657 34.2862 20.7557 34.2862C21.6537 34.2862 24.9461 35.9126 26.8205 37.0311C28.5526 38.0665 32.478 41.0018 32.5173 41.0311L32.6939 40.7967C32.6547 40.7674 28.7194 37.8223 26.9726 36.7771C25.2994 35.8003 21.7911 33.9932 20.7557 33.9932C20.2651 33.9932 19.686 34.0371 19.5585 34.3692C19.4751 34.5841 19.6026 34.8576 19.951 35.1458C20.9667 36.0152 30.6184 41.8175 31.0256 42.091Z" fill="#3C3C3B"/>
<path d="M30.1571 42.9653C30.1571 42.9653 23.3416 39.649 20.795 39.019C18.2484 38.3889 16.0599 37.2314 15.5104 38.7113C15.2012 39.4488 20.4172 41.2021 22.2032 41.9006C23.9893 42.599 28.0129 44.0447 29.4113 44.2401" fill="url(#paint8_linear_7_223)"/>
<path d="M29.3671 44.3816L29.4064 44.0934C28.0766 43.9029 24.0432 42.4768 22.2572 41.7686L20.952 41.2802C19.1904 40.6257 15.9078 39.4047 15.6526 38.8381C15.6526 38.8381 15.6526 38.804 15.6526 38.7942C16.0059 37.8467 17.0903 38.1202 18.9794 38.6916C19.5486 38.8675 20.1423 39.0433 20.7655 39.18C23.268 39.7661 30.0295 43.0873 30.0884 43.0873L30.216 42.8284C29.9412 42.6917 23.3465 39.4731 20.8244 38.8723C20.2061 38.7307 19.6222 38.55 19.053 38.3839C17.2522 37.8418 15.8342 37.4071 15.368 38.6574C15.3339 38.7437 15.3339 38.8397 15.368 38.9261C15.6526 39.5756 18.0128 40.4987 20.8342 41.5488C21.3543 41.7393 21.8156 41.9054 22.1345 42.0372C24.0138 42.7747 27.9932 44.1862 29.3671 44.3816Z" fill="#3C3C3B"/>
<path d="M40.6969 35.9077C39.1365 37.539 36.3543 38.5549 33.5035 40.3473C30.6527 42.1398 30.8293 42.1545 30.3681 42.6673C29.9068 43.1801 30.0982 43.4634 30.0982 43.4634C37.1787 48.2351 48.1208 37.2411 44.7204 36.1373" fill="url(#paint9_linear_7_223)"/>
<path d="M34.1365 44.7968C36.3308 44.7135 38.461 44.0383 40.2995 42.8432C43.2877 41.0409 45.6675 38.2814 45.5007 36.8211C45.4832 36.6208 45.4041 36.4308 45.2741 36.277C45.1441 36.1232 44.9697 36.013 44.7745 35.9615L44.6812 36.2399C44.8222 36.2746 44.9488 36.3519 45.0437 36.4613C45.1386 36.5706 45.1971 36.7066 45.2112 36.8504C45.3486 38.0421 43.2975 40.6893 40.1474 42.5892C38.4005 43.6441 33.9452 45.8176 30.2209 43.3413C30.2209 43.2827 30.1768 43.0776 30.481 42.7406L30.6429 42.555C30.9373 42.2082 31.1336 41.9933 33.587 40.4451C34.637 39.7906 35.6576 39.2436 36.6439 38.721C38.3417 37.8126 39.8088 37.0311 40.8147 35.981L40.6037 35.7808C39.6223 36.7967 38.1846 37.5683 36.5065 38.4621C35.5252 38.9896 34.4898 39.5366 33.4349 40.2009C30.9275 41.7687 30.7509 41.9836 30.4221 42.3694L30.27 42.5452C29.745 43.1215 29.9609 43.483 29.9854 43.522C31.2049 44.3609 32.6542 44.806 34.1365 44.7968Z" fill="#3C3C3B"/>
<path d="M37.9246 39.9565C37.9246 39.9565 29.7941 43.3754 29.4751 43.9273C29.1562 44.4792 29.8382 44.6892 30.0345 44.6843C31.4388 44.3268 32.8122 43.858 34.1415 43.2826C35.6528 42.5402 37.7774 41.7197 37.7774 41.7197" fill="url(#paint10_linear_7_223)"/>
<path d="M30.0295 44.8309H30.0688C31.4846 44.4703 32.8694 43.9983 34.2101 43.4194C35.6821 42.6917 37.8117 41.8711 37.8313 41.8614L37.7233 41.5879C37.7233 41.5879 35.5742 42.423 34.0776 43.1556C32.7623 43.7242 31.4038 44.188 30.0148 44.5427C29.8415 44.5243 29.6827 44.4383 29.5732 44.3034C29.5732 44.2741 29.4996 44.1813 29.6026 44.0055C29.8676 43.6294 34.8823 41.4072 37.9834 40.0982L37.8706 39.8296C36.5016 40.4108 29.6762 43.3168 29.3524 43.8638C29.2897 43.9484 29.2531 44.0493 29.247 44.1543C29.2409 44.2592 29.2656 44.3636 29.318 44.4548C29.4001 44.5672 29.5068 44.6596 29.6301 44.7247C29.7534 44.7899 29.89 44.8262 30.0295 44.8309Z" fill="#3C3C3B"/>
<path d="M37.7529 41.6562C37.7529 41.6562 28.6557 44.5379 28.8029 45.2363C28.9501 45.9347 30.2749 46.472 32.4732 46.0373C34.6714 45.6026 39.9217 42.9847 41.1926 42.13" fill="url(#paint11_linear_7_223)"/>
<path d="M30.9471 46.3401C31.4614 46.3361 31.9742 46.2821 32.478 46.1789C34.6959 45.7394 39.9608 43.1166 41.2513 42.2717L41.0894 42.0275C39.8087 42.8675 34.6075 45.4463 32.4191 45.8957C30.2307 46.345 29.058 45.7736 28.9255 45.2266C29.1414 44.7674 33.5771 43.1264 37.7577 41.8077L37.6645 41.5293C37.6645 41.5293 35.3632 42.2619 33.1306 43.0629C28.4986 44.7186 28.5722 45.0703 28.6163 45.2803C28.7586 45.8712 29.5732 46.3401 30.9471 46.3401Z" fill="#3C3C3B"/>
<path d="M38.4938 42.5796L38.6361 42.3207C38.4241 42.2078 38.2222 42.0771 38.0325 41.93C37.9483 41.845 37.8905 41.7375 37.8661 41.6205C37.8418 41.5036 37.8518 41.3821 37.8952 41.2707C38.1503 40.7481 39.3377 40.499 39.745 40.4941L39.7892 40.2108C39.2985 40.0448 39.0482 39.8445 39.0335 39.6491C39.0188 39.4538 39.3721 39.1217 39.5242 39.0484L39.377 38.7944C39.3083 38.8335 38.7146 39.1949 38.7587 39.6736C38.7804 39.8037 38.8344 39.9264 38.9158 40.0304C38.9972 40.1345 39.1035 40.2166 39.2249 40.2694C38.6557 40.3818 37.8952 40.6455 37.6498 41.1437C37.5789 41.306 37.5584 41.4857 37.5907 41.6597C37.6231 41.8337 37.7068 41.9942 37.8314 42.1205C38.0389 42.2917 38.2605 42.4452 38.4938 42.5796Z" fill="#3C3C3B"/>
<path d="M38.3907 38.8091C38.2085 38.9166 38.0538 39.0648 37.9388 39.2419C37.8239 39.419 37.7518 39.6203 37.7283 39.8299C37.7283 40.4892 38.4643 40.6015 38.4643 40.6015" fill="#4E8832"/>
<path d="M38.4447 40.7481L38.4839 40.4599C38.4839 40.4599 37.8558 40.3525 37.8755 39.8348C37.8977 39.65 37.9623 39.4729 38.0645 39.317C38.1666 39.1612 38.3034 39.0308 38.4643 38.9361L38.3171 38.6821C38.1132 38.8022 37.9405 38.9681 37.8127 39.1665C37.6849 39.365 37.6055 39.5905 37.5811 39.825C37.585 40.0579 37.6754 40.2811 37.8349 40.4515C37.9943 40.622 38.2116 40.7276 38.4447 40.7481Z" fill="#3C3C3B"/>
<path d="M55.1082 20.4302L54.9364 21.4216H53.5527L55.1082 20.4302Z" fill="url(#paint12_radial_7_223)"/>
<path fill-rule="evenodd" clip-rule="evenodd" d="M11.0206 37.1286C11.021 30.3608 13.144 23.7619 17.0934 18.2529C21.0428 12.7439 26.6215 8.59963 33.0511 6.39841C39.4807 4.1972 46.4403 4.04889 52.9586 5.97418C59.4769 7.89948 65.2288 11.8023 69.4114 17.138C67.2739 13.1734 64.3326 9.6938 60.7737 6.91954C57.2149 4.14528 53.1161 2.13682 48.7368 1.02136C44.3576 -0.094103 39.7933 -0.292269 35.3331 0.439421C30.8729 1.17111 26.614 2.81672 22.826 5.27201C19.038 7.7273 15.8035 10.9388 13.3272 14.7031C10.851 18.4674 9.18711 22.7025 8.44082 27.1402C7.69454 31.5779 7.88216 36.1215 8.99182 40.4833C10.1015 44.845 12.109 48.9299 14.8872 52.4793C12.3426 47.7594 11.0141 42.485 11.0206 37.1286Z" fill="url(#paint13_linear_7_223)"/>
<path fill-rule="evenodd" clip-rule="evenodd" d="M36.8255 10.4375C43.5877 9.73809 50.4007 11.1576 56.3134 14.498C62.226 17.8383 66.9435 22.9329 69.8072 29.0705C72.6709 35.2081 73.5379 42.0825 72.2874 48.7343C71.0368 55.386 67.7311 61.4832 62.8314 66.1747C66.5799 63.6524 69.7607 60.382 72.1718 56.5711C74.583 52.7601 76.172 48.4919 76.8379 44.0372C77.5038 39.5826 77.2321 35.0388 76.04 30.6942C74.848 26.3496 72.7616 22.2991 69.9132 18.7998C67.0649 15.3004 63.5169 12.4287 59.4943 10.3667C55.4717 8.30482 51.0624 7.09775 46.5463 6.82214C42.0301 6.54652 37.5057 7.20838 33.2602 8.76572C29.0147 10.3231 25.1407 12.7419 21.8843 15.8686C26.335 12.8528 31.4696 10.9864 36.8255 10.4375Z" fill="url(#paint14_linear_7_223)"/>
<path fill-rule="evenodd" clip-rule="evenodd" d="M67.0268 34.8481C67.7295 41.5791 66.3034 48.3605 62.9475 54.2458C59.5916 60.1312 54.4734 64.8268 48.3072 67.6772C42.1411 70.5277 35.2347 71.3907 28.552 70.146C21.8694 68.9012 15.7439 65.6107 11.0305 60.7338C13.5646 64.4649 16.8502 67.6309 20.6788 70.0309C24.5075 72.431 28.7955 74.0126 33.2709 74.6754C37.7463 75.3382 42.3112 75.0678 46.676 73.8812C51.0408 72.6947 55.1101 70.6179 58.6257 67.7828C62.1413 64.9477 65.0264 61.416 67.0979 57.4121C69.1694 53.4081 70.3821 49.0192 70.659 44.5239C70.9359 40.0287 70.271 35.5252 68.7064 31.2993C67.1418 27.0735 64.7118 23.2175 61.5704 19.9761C64.5983 24.4073 66.4732 29.5176 67.0268 34.8481Z" fill="url(#paint15_linear_7_223)"/>
<path fill-rule="evenodd" clip-rule="evenodd" d="M31.4967 64.8752C24.8263 63.5676 18.7325 60.2196 14.0658 55.2986C9.39908 50.3777 6.39231 44.1292 5.46513 37.4254C4.53795 30.7215 5.73663 23.8968 8.89388 17.9037C12.0511 11.9106 17.0094 7.0482 23.0767 3.99512C18.7602 5.31973 14.7668 7.52158 11.3491 10.4614C7.93151 13.4012 5.164 17.015 3.22166 21.0742C1.27933 25.1334 0.204443 29.5497 0.0649988 34.0436C-0.0744452 38.5376 0.724586 43.0114 2.41155 47.1822C4.09852 51.353 6.6367 55.1299 9.86556 58.274C13.0944 61.4182 16.9437 63.8611 21.1698 65.4484C25.396 67.0356 29.9071 67.7326 34.4178 67.4952C38.9285 67.2579 43.3406 66.0913 47.3751 64.0694C42.2306 65.64 36.7751 65.9169 31.4967 64.8752Z" fill="url(#paint16_linear_7_223)"/>
</g>
<defs>
<radialGradient id="paint0_radial_7_223" cx="0" cy="0" r="1" gradientUnits="userSpaceOnUse" gradientTransform="translate(45.751 26.4373) rotate(180) scale(7.42888 7.39451)">
<stop stop-color="#AAC811"/>
<stop offset="0.45" stop-color="#498632"/>
<stop offset="1" stop-color="#508931"/>
</radialGradient>
<linearGradient id="paint1_linear_7_223" x1="51.3251" y1="28.0542" x2="54.2127" y2="31.9109" gradientUnits="userSpaceOnUse">
<stop stop-color="#72100C"/>
<stop offset="0.15" stop-color="#7A0F0C"/>
<stop offset="0.39" stop-color="#8F0D0E"/>
<stop offset="0.67" stop-color="#B20A10"/>
<stop offset="0.99" stop-color="#E20613"/>
<stop offset="1" stop-color="#E30613"/>
</linearGradient>
<linearGradient id="paint2_linear_7_223" x1="53.2191" y1="37.1726" x2="48.2271" y2="38.5225" gradientUnits="userSpaceOnUse">
<stop stop-color="#DEDC00"/>
<stop offset="0.72" stop-color="#498632"/>
<stop offset="1" stop-color="#508931"/>
</linearGradient>
<radialGradient id="paint3_radial_7_223" cx="0" cy="0" r="1" gradientUnits="userSpaceOnUse" gradientTransform="translate(55.2995 23.0528) rotate(180) scale(6.8646 6.83283)">
<stop stop-color="#E30613"/>
<stop offset="0.2" stop-color="#DE0713"/>
<stop offset="0.44" stop-color="#D00914"/>
<stop offset="0.69" stop-color="#B90D15"/>
<stop offset="0.95" stop-color="#981316"/>
<stop offset="1" stop-color="#921416"/>
</radialGradient>
<linearGradient id="paint4_linear_7_223" x1="31.9874" y1="39.3171" x2="14.7351" y2="39.3171" gradientUnits="userSpaceOnUse">
<stop offset="0.49" stop-color="#498632"/>
<stop offset="1" stop-color="#95C11F"/>
</linearGradient>
<radialGradient id="paint5_radial_7_223" cx="0" cy="0" r="1" gradientUnits="userSpaceOnUse" gradientTransform="translate(52.38 39.9029) rotate(180) scale(13.6556 13.5924)">
<stop stop-color="#DEDC00"/>
<stop offset="0.72" stop-color="#498632"/>
<stop offset="1" stop-color="#508931"/>
</radialGradient>
<radialGradient id="paint6_radial_7_223" cx="0" cy="0" r="1" gradientUnits="userSpaceOnUse" gradientTransform="translate(55.2015 20.1518) rotate(140.398) scale(0.509979 0.976084)">
<stop stop-color="white"/>
<stop offset="0.14" stop-color="#FFFBFB"/>
<stop offset="0.26" stop-color="#FDF0F1"/>
<stop offset="0.39" stop-color="#FBDDDF"/>
<stop offset="0.51" stop-color="#F8C2C5"/>
<stop offset="0.63" stop-color="#F4A0A5"/>
<stop offset="0.75" stop-color="#F0757D"/>
<stop offset="0.87" stop-color="#EA434D"/>
<stop offset="0.99" stop-color="#E40B18"/>
<stop offset="1" stop-color="#E30613"/>
</radialGradient>
<linearGradient id="paint7_linear_7_223" x1="32.6057" y1="38.0274" x2="19.6763" y2="38.0274" gradientUnits="userSpaceOnUse">
<stop offset="0.49" stop-color="#498632"/>
<stop offset="1" stop-color="#95C11F"/>
</linearGradient>
<linearGradient id="paint8_linear_7_223" x1="30.1571" y1="41.1191" x2="15.4956" y2="41.1191" gradientUnits="userSpaceOnUse">
<stop offset="0.49" stop-color="#498632"/>
<stop offset="1" stop-color="#95C11F"/>
</linearGradient>
<linearGradient id="paint9_linear_7_223" x1="45.3632" y1="40.2839" x2="30.0589" y2="40.2839" gradientUnits="userSpaceOnUse">
<stop offset="0.49" stop-color="#498632"/>
<stop offset="1" stop-color="#95C11F"/>
</linearGradient>
<linearGradient id="paint10_linear_7_223" x1="37.9246" y1="42.3204" x2="29.3917" y2="42.3204" gradientUnits="userSpaceOnUse">
<stop offset="0.49" stop-color="#498632"/>
<stop offset="1" stop-color="#95C11F"/>
</linearGradient>
<linearGradient id="paint11_linear_7_223" x1="41.168" y1="43.9225" x2="28.7735" y2="43.9225" gradientUnits="userSpaceOnUse">
<stop offset="0.49" stop-color="#498632"/>
<stop offset="1" stop-color="#95C11F"/>
</linearGradient>
<radialGradient id="paint12_radial_7_223" cx="0" cy="0" r="1" gradientUnits="userSpaceOnUse" gradientTransform="translate(54.6224 21.1042) rotate(180) scale(0.917569 0.913323)">
<stop stop-color="#520A00"/>
<stop offset="0.22" stop-color="#550A00"/>
<stop offset="0.38" stop-color="#5F0A02"/>
<stop offset="0.53" stop-color="#6F0904"/>
<stop offset="0.67" stop-color="#860907"/>
<stop offset="0.8" stop-color="#A4080B"/>
<stop offset="0.92" stop-color="#C8070F"/>
<stop offset="1" stop-color="#E30613"/>
</radialGradient>
<linearGradient id="paint13_linear_7_223" x1="46.0208" y1="-6.76956" x2="30.9957" y2="54.475" gradientUnits="userSpaceOnUse">
<stop offset="0.37" stop-color="#9AC328"/>
<stop offset="1" stop-color="white"/>
</linearGradient>
<linearGradient id="paint14_linear_7_223" x1="61.7765" y1="37.1193" x2="26.1987" y2="-4.99293" gradientUnits="userSpaceOnUse">
<stop stop-color="#004E9E"/>
<stop offset="0.43" stop-color="#009FE3"/>
<stop offset="1" stop-color="white"/>
</linearGradient>
<linearGradient id="paint15_linear_7_223" x1="59.7697" y1="47.4881" x2="119.446" y2="47.4881" gradientUnits="userSpaceOnUse">
<stop stop-color="#D1461C"/>
<stop offset="0.56" stop-color="#FFED00"/>
<stop offset="1" stop-color="white"/>
</linearGradient>
<linearGradient id="paint16_linear_7_223" x1="4.46649e-05" y1="35.7807" x2="47.3751" y2="35.7807" gradientUnits="userSpaceOnUse">
<stop stop-color="#D7771A"/>
<stop offset="0.56" stop-color="#FFED00"/>
<stop offset="1" stop-color="white"/>
</linearGradient>
<clipPath id="clip0_7_223">
<rect width="259" height="75" fill="white"/>
</clipPath>
</defs>
</svg>
