<svg width="21" height="21" viewBox="0 0 21 21" fill="none" xmlns="http://www.w3.org/2000/svg">
<path d="M19.6101 18.19C20.2368 17.35 20.6669 16.3799 20.8686 15.3514C21.0703 14.323 21.0385 13.2623 20.7755 12.2478C20.5125 11.2333 20.025 10.2907 19.3491 9.48975C18.6732 8.68878 17.826 8.04982 16.8701 7.62001C16.6619 6.42211 16.1834 5.28743 15.4709 4.30218C14.7585 3.31693 13.8308 2.50704 12.7585 1.93404C11.6861 1.36104 10.4972 1.04001 9.28217 0.995345C8.06713 0.950679 6.8579 1.18355 5.74635 1.67627C4.6348 2.16898 3.65018 2.90858 2.86731 3.83886C2.08443 4.76914 1.5239 5.86563 1.22831 7.045C0.93271 8.22438 0.909825 9.45562 1.16139 10.6452C1.41295 11.8347 1.93235 12.9513 2.68011 13.91L1.29011 15.29C1.15136 15.4306 1.05736 15.6092 1.01998 15.8032C0.982611 15.9972 1.00353 16.1979 1.08011 16.38C1.15513 16.5626 1.28253 16.719 1.44625 16.8293C1.60997 16.9396 1.80269 16.999 2.00011 17H7.69011C8.25676 18.1946 9.15015 19.2043 10.2669 19.9122C11.3836 20.6201 12.6779 20.9973 14.0001 21H20.0001C20.1975 20.999 20.3903 20.9396 20.554 20.8293C20.7177 20.719 20.8451 20.5626 20.9201 20.38C20.9967 20.1979 21.0176 19.9972 20.9802 19.8032C20.9429 19.6092 20.8489 19.4306 20.7101 19.29L19.6101 18.19ZM7.00011 14C7.00149 14.3349 7.02823 14.6692 7.08011 15H4.41011L4.76011 14.66C4.85384 14.567 4.92824 14.4564 4.979 14.3346C5.02977 14.2127 5.05591 14.082 5.05591 13.95C5.05591 13.818 5.02977 13.6873 4.979 13.5654C4.92824 13.4436 4.85384 13.333 4.76011 13.24C4.19967 12.6857 3.75536 12.0252 3.45317 11.2972C3.15097 10.5692 2.99695 9.78825 3.00011 9.00001C3.00011 7.40871 3.63225 5.88258 4.75747 4.75737C5.88269 3.63215 7.40881 3.00001 9.00011 3.00001C10.2418 2.99255 11.4546 3.37439 12.468 4.09187C13.4815 4.80935 14.2446 5.82638 14.6501 7.00001C14.4301 7.00001 14.2201 7.00001 14.0001 7.00001C12.1436 7.00001 10.3631 7.73751 9.05037 9.05026C7.73761 10.363 7.00011 12.1435 7.00011 14ZM17.5401 19L17.5901 19.05H14.0001C12.8435 19.0479 11.7233 18.6449 10.8304 17.9096C9.93758 17.1743 9.32729 16.1522 9.10351 15.0174C8.87973 13.8825 9.05632 12.7052 9.60319 11.686C10.1501 10.6668 11.0334 9.86871 12.1027 9.42771C13.172 8.9867 14.3611 8.93006 15.4674 9.26744C16.5738 9.60481 17.529 10.3153 18.1703 11.278C18.8115 12.2406 19.0992 13.3958 18.9843 14.5467C18.8694 15.6976 18.359 16.7732 17.5401 17.59C17.3517 17.7746 17.2439 18.0262 17.2401 18.29C17.2407 18.4223 17.2675 18.5532 17.319 18.6751C17.3705 18.7969 17.4456 18.9074 17.5401 19V19Z" fill="#FCFBF4"/>
</svg>
