<svg width="18" height="15" viewBox="0 0 18 15" fill="none" xmlns="http://www.w3.org/2000/svg">
<path d="M6.71955 14.0374C6.219 14.0374 6.3041 13.8484 6.13146 13.3718L4.65967 8.52812L15.989 1.80685" fill="#C8DAEA"/>
<path d="M6.71875 14.0377C7.10498 14.0377 7.27556 13.8611 7.49121 13.6515L9.55109 11.6485L6.98164 10.0991" fill="#A9C9DD"/>
<path d="M6.98141 10.0991L13.2074 14.6989C13.9179 15.0909 14.4306 14.8879 14.6076 14.0394L17.1419 2.0968C17.4013 1.05656 16.7454 0.584588 16.0656 0.893185L1.18425 6.63138C0.168466 7.03885 0.174517 7.60558 0.999115 7.85804L4.81801 9.05007L13.6592 3.47229C14.0766 3.21918 14.4597 3.35513 14.1453 3.63425" fill="url(#paint0_linear_134_145)"/>
<defs>
<linearGradient id="paint0_linear_134_145" x1="11.4879" y1="6.95769" x2="13.8989" y2="12.451" gradientUnits="userSpaceOnUse">
<stop stop-color="#EFF7FC"/>
<stop offset="1" stop-color="white"/>
</linearGradient>
</defs>
</svg>
