<svg width="20" height="20" viewBox="0 0 20 20" fill="none" xmlns="http://www.w3.org/2000/svg">
<path fill-rule="evenodd" clip-rule="evenodd" d="M14.3365 11.9059C14.0987 11.7869 12.9296 11.2118 12.7116 11.1324C12.4936 11.0531 12.3351 11.0134 12.1766 11.2514C12.018 11.4894 11.5623 12.0249 11.4236 12.1835C11.2849 12.3422 11.1462 12.3621 10.9084 12.243C10.6706 12.1241 9.90436 11.873 8.99607 11.0631C8.28915 10.4328 7.81189 9.65423 7.67315 9.41625C7.53446 9.17826 7.65839 9.04962 7.77747 8.93109C7.8844 8.82462 8.01523 8.65346 8.13413 8.51463C8.25303 8.3758 8.29267 8.27664 8.37194 8.11802C8.4512 7.95934 8.41157 7.82051 8.3521 7.70152C8.29267 7.58252 7.81711 6.41243 7.61894 5.93646C7.42593 5.47292 7.22986 5.53564 7.0839 5.52837C6.94534 5.52146 6.78667 5.52 6.62813 5.52C6.4696 5.52 6.212 5.57952 5.99399 5.81746C5.77602 6.05545 5.16172 6.63062 5.16172 7.80067C5.16172 8.97077 6.01383 10.1012 6.13273 10.2599C6.25163 10.4185 7.80956 12.8197 10.195 13.8494C10.7624 14.0943 11.2053 14.2406 11.5507 14.3502C12.1203 14.5311 12.6387 14.5056 13.0485 14.4444C13.5053 14.3761 14.4554 13.8692 14.6536 13.314C14.8517 12.7587 14.8517 12.2827 14.7923 12.1835C14.7329 12.0844 14.5743 12.0249 14.3365 11.9059ZM9.9975 17.8281H9.9943C8.57488 17.8276 7.18271 17.4464 5.96823 16.7259L5.67936 16.5545L2.68551 17.3397L3.48463 14.4216L3.29652 14.1224C2.50471 12.8634 2.08652 11.4082 2.08711 9.91401C2.08885 5.554 5.63739 2.00682 10.0007 2.00682C12.1135 2.00765 14.0996 2.83127 15.593 4.32594C17.0865 5.82065 17.9085 7.80747 17.9077 9.92041C17.9059 14.2807 14.3574 17.8281 9.9975 17.8281ZM16.7292 3.19033C14.9323 1.39198 12.5428 0.401134 9.99686 0.400129C4.75119 0.400129 0.481822 4.66785 0.479719 9.91357C0.479033 11.5904 0.917247 13.2272 1.75006 14.67L0.399902 19.6001L5.44508 18.2772C6.83515 19.0351 8.40021 19.4345 9.99307 19.4352H9.99695H9.997C15.2422 19.4352 19.5119 15.1669 19.5141 9.92116C19.515 7.37901 18.526 4.98862 16.7292 3.19033Z" fill="white"/>
</svg>
