<svg width="16" height="16" viewBox="0 0 16 16" fill="none" xmlns="http://www.w3.org/2000/svg">
<path d="M15.9105 11.9361V14.3361C15.9114 14.5589 15.8658 14.7794 15.7765 14.9836C15.6872 15.1877 15.5563 15.3709 15.3922 15.5216C15.228 15.6722 15.0342 15.7869 14.8231 15.8582C14.612 15.9296 14.3884 15.9561 14.1665 15.9361C11.7048 15.6686 9.34009 14.8274 7.26249 13.4801C5.32956 12.2518 3.69076 10.613 2.46249 8.68008C1.11048 6.59304 0.269088 4.21687 0.00649337 1.74408C-0.0134982 1.52285 0.0127933 1.29989 0.0836937 1.08938C0.154594 0.878868 0.26855 0.685429 0.418306 0.521374C0.568062 0.35732 0.750337 0.226245 0.953526 0.136495C1.15671 0.0467452 1.37637 0.000286745 1.59849 7.75619e-05H3.99849C4.38674 -0.00374359 4.76313 0.13374 5.0575 0.386904C5.35188 0.640067 5.54415 0.991635 5.59849 1.37608C5.69979 2.14413 5.88765 2.89826 6.15849 3.62408C6.26613 3.91042 6.28942 4.22161 6.22562 4.52078C6.16181 4.81995 6.01358 5.09457 5.79849 5.31208L4.78249 6.32808C5.92134 8.33091 7.57966 9.98923 9.58249 11.1281L10.5985 10.1121C10.816 9.89699 11.0906 9.74876 11.3898 9.68495C11.689 9.62115 12.0002 9.64444 12.2865 9.75208C13.0123 10.0229 13.7664 10.2108 14.5345 10.3121C14.9231 10.3669 15.278 10.5626 15.5317 10.8621C15.7854 11.1615 15.9202 11.5437 15.9105 11.9361Z" fill="#95C11F"/>
</svg>
